<?xml version="1.0" encoding="UTF-8"?>
<svg version="1.1" viewBox="0 0 1116 388" xml:space="preserve" xmlns="http://www.w3.org/2000/svg"><defs><clipPath id="clipPath20"><path d="m0 291v-291h837v291z"/></clipPath><clipPath id="clipPath28"><path d="m37 283h790v-243h-790z"/></clipPath><clipPath id="clipPath36"><path d="m0 291v-291h837v291z"/></clipPath><clipPath id="clipPath44"><path d="m37 283v-243h790v243z"/></clipPath><clipPath id="clipPath50"><path d="m37 283h790v-243h-790z"/></clipPath><clipPath id="clipPath674"><path d="m0 291v-291h837v291z"/></clipPath></defs><g transform="matrix(1.3333 0 0 -1.3333 0 388)"><g clip-path="url(#clipPath20)"><g clip-path="url(#clipPath28)"><g clip-path="url(#clipPath36)"><g clip-path="url(#clipPath44)"><g clip-path="url(#clipPath50)"><path d="m37 283h790v-243h-790z" fill="#fff"/><g fill="#0000f0" fill-opacity=".75686"><path d="m711 116c0-1.1-0.9-2-2-2s-2 0.9-2 2 0.9 2 2 2 2-0.9 2-2z"/><path d="m796 246c0-1.1-0.9-2-2-2s-2 0.9-2 2 0.9 2 2 2 2-0.9 2-2z"/><path d="m533 114c0-1.1-0.9-2-2-2s-2 0.9-2 2 0.9 2 2 2 2-0.9 2-2z"/><path d="m752 126c0-1.1-0.9-2-2-2s-2 0.9-2 2 0.9 2 2 2 2-0.9 2-2z"/><path d="m779 113c0-1.1-0.9-2-2-2s-2 0.9-2 2 0.9 2 2 2 2-0.9 2-2z"/><path d="m762 123c0-1.1-0.9-2-2-2s-2 0.9-2 2 0.9 2 2 2 2-0.9 2-2z"/><path d="m713 127c0-1.1-0.9-2-2-2s-2 0.9-2 2 0.9 2 2 2 2-0.9 2-2z"/><path d="m591 147c0-1.1-0.9-2-2-2s-2 0.9-2 2 0.9 2 2 2 2-0.9 2-2z"/><path d="m734 131c0-1.1-0.9-2-2-2s-2 0.9-2 2 0.9 2 2 2 2-0.9 2-2z"/><path d="m676 160c0-1.1-0.9-2-2-2s-2 0.9-2 2 0.9 2 2 2 2-0.9 2-2z"/><path d="m698 146c0-1.1-0.9-2-2-2s-2 0.9-2 2 0.9 2 2 2 2-0.9 2-2z"/><path d="m545 159c0-1.1-0.9-2-2-2s-2 0.9-2 2 0.9 2 2 2 2-0.9 2-2z"/><path d="m683 116c0-1.1-0.9-2-2-2s-2 0.9-2 2 0.9 2 2 2 2-0.9 2-2z"/><path d="m688 156c0-1.1-0.9-2-2-2s-2 0.9-2 2 0.9 2 2 2 2-0.9 2-2z"/><path d="m658 148c0-1.1-0.9-2-2-2s-2 0.9-2 2 0.9 2 2 2 2-0.9 2-2z"/><path d="m800 129c0-1.1-0.9-2-2-2s-2 0.9-2 2 0.9 2 2 2 2-0.9 2-2z"/><path d="m434 113c0-1.1-0.9-2-2-2s-2 0.9-2 2 0.9 2 2 2 2-0.9 2-2z"/><path d="m760 156c0-1.1-0.9-2-2-2s-2 0.9-2 2 0.9 2 2 2 2-0.9 2-2z"/><path d="m799 131c0-1.1-0.9-2-2-2s-2 0.9-2 2 0.9 2 2 2 2-0.9 2-2z"/><path d="m822 144c0-1.1-0.9-2-2-2s-2 0.9-2 2 0.9 2 2 2 2-0.9 2-2z"/><path d="m729 119c0-1.1-0.9-2-2-2s-2 0.9-2 2 0.9 2 2 2 2-0.9 2-2z"/><path d="m753 132c0-1.1-0.9-2-2-2s-2 0.9-2 2 0.9 2 2 2 2-0.9 2-2z"/><path d="m770 120c0-1.1-0.9-2-2-2s-2 0.9-2 2 0.9 2 2 2 2-0.9 2-2z"/><path d="m726 143c0-1.1-0.9-2-2-2s-2 0.9-2 2 0.9 2 2 2 2-0.9 2-2z"/><path d="m752 126c0-1.1-0.9-2-2-2s-2 0.9-2 2 0.9 2 2 2 2-0.9 2-2z"/><path d="m752 104c0-1.1-0.9-2-2-2s-2 0.9-2 2 0.9 2 2 2 2-0.9 2-2z"/><path d="m295 159c0-1.1-0.9-2-2-2s-2 0.9-2 2 0.9 2 2 2 2-0.9 2-2z"/><path d="m606 140c0-1.1-0.9-2-2-2s-2 0.9-2 2 0.9 2 2 2 2-0.9 2-2z"/><path d="m734 133c0-1.1-0.9-2-2-2s-2 0.9-2 2 0.9 2 2 2 2-0.9 2-2z"/><path d="m465 159c0-1.1-0.9-2-2-2s-2 0.9-2 2 0.9 2 2 2 2-0.9 2-2z"/><path d="m723 160c0-1.1-0.9-2-2-2s-2 0.9-2 2 0.9 2 2 2 2-0.9 2-2z"/><path d="m736 150c0-1.1-0.9-2-2-2s-2 0.9-2 2 0.9 2 2 2 2-0.9 2-2z"/><path d="m441 146c0-1.1-0.9-2-2-2s-2 0.9-2 2 0.9 2 2 2 2-0.9 2-2z"/><path d="m754 119c0-1.1-0.9-2-2-2s-2 0.9-2 2 0.9 2 2 2 2-0.9 2-2z"/><path d="m522 129c0-1.1-0.9-2-2-2s-2 0.9-2 2 0.9 2 2 2 2-0.9 2-2z"/><path d="m730 134c0-1.1-0.9-2-2-2s-2 0.9-2 2 0.9 2 2 2 2-0.9 2-2z"/><path d="m751 115c0-1.1-0.9-2-2-2s-2 0.9-2 2 0.9 2 2 2 2-0.9 2-2z"/><path d="m781 125c0-1.1-0.9-2-2-2s-2 0.9-2 2 0.9 2 2 2 2-0.9 2-2z"/><path d="m757 121c0-1.1-0.9-2-2-2s-2 0.9-2 2 0.9 2 2 2 2-0.9 2-2z"/><path d="m782 138c0-1.1-0.9-2-2-2s-2 0.9-2 2 0.9 2 2 2 2-0.9 2-2z"/><path d="m432 159c0-1.1-0.9-2-2-2s-2 0.9-2 2 0.9 2 2 2 2-0.9 2-2z"/><path d="m667 120c0-1.1-0.9-2-2-2s-2 0.9-2 2 0.9 2 2 2 2-0.9 2-2z"/><path d="m656 154c0-1.1-0.9-2-2-2s-2 0.9-2 2 0.9 2 2 2 2-0.9 2-2z"/><path d="m472 147c0-1.1-0.9-2-2-2s-2 0.9-2 2 0.9 2 2 2 2-0.9 2-2z"/><path d="m646 148c0-1.1-0.9-2-2-2s-2 0.9-2 2 0.9 2 2 2 2-0.9 2-2z"/><path d="m739 126c0-1.1-0.9-2-2-2s-2 0.9-2 2 0.9 2 2 2 2-0.9 2-2z"/><path d="m699 154c0-1.1-0.9-2-2-2s-2 0.9-2 2 0.9 2 2 2 2-0.9 2-2z"/><path d="m649 159c0-1.1-0.9-2-2-2s-2 0.9-2 2 0.9 2 2 2 2-0.9 2-2z"/><path d="m753 136c0-1.1-0.9-2-2-2s-2 0.9-2 2 0.9 2 2 2 2-0.9 2-2z"/><path d="m648 128c0-1.1-0.9-2-2-2s-2 0.9-2 2 0.9 2 2 2 2-0.9 2-2z"/><path d="m488 129c0-1.1-0.9-2-2-2s-2 0.9-2 2 0.9 2 2 2 2-0.9 2-2z"/><path d="m710 120c0-1.1-0.9-2-2-2s-2 0.9-2 2 0.9 2 2 2 2-0.9 2-2z"/><path d="m817 127c0-1.1-0.9-2-2-2s-2 0.9-2 2 0.9 2 2 2 2-0.9 2-2z"/><path d="m644 150c0-1.1-0.9-2-2-2s-2 0.9-2 2 0.9 2 2 2 2-0.9 2-2z"/><path d="m360 148c0-1.1-0.9-2-2-2s-2 0.9-2 2 0.9 2 2 2 2-0.9 2-2z"/><path d="m692 147c0-1.1-0.9-2-2-2s-2 0.9-2 2 0.9 2 2 2 2-0.9 2-2z"/><path d="m684 122c0-1.1-0.9-2-2-2s-2 0.9-2 2 0.9 2 2 2 2-0.9 2-2z"/><path d="m595 138c0-1.1-0.9-2-2-2s-2 0.9-2 2 0.9 2 2 2 2-0.9 2-2z"/><path d="m444 164c0-1.1-0.9-2-2-2s-2 0.9-2 2 0.9 2 2 2 2-0.9 2-2z"/><path d="m702 138c0-1.1-0.9-2-2-2s-2 0.9-2 2 0.9 2 2 2 2-0.9 2-2z"/><path d="m511 135c0-1.1-0.9-2-2-2s-2 0.9-2 2 0.9 2 2 2 2-0.9 2-2z"/><path d="m118 156c0-1.1-0.9-2-2-2s-2 0.9-2 2 0.9 2 2 2 2-0.9 2-2z"/><path d="m664 125c0-1.1-0.9-2-2-2s-2 0.9-2 2 0.9 2 2 2 2-0.9 2-2z"/><path d="m336 84c0-1.1-0.9-2-2-2s-2 0.9-2 2 0.9 2 2 2 2-0.9 2-2z"/><path d="m635 108c0-1.1-0.9-2-2-2s-2 0.9-2 2 0.9 2 2 2 2-0.9 2-2z"/><path d="m815 139c0-1.1-0.9-2-2-2s-2 0.9-2 2 0.9 2 2 2 2-0.9 2-2z"/><path d="m804 134c0-1.1-0.9-2-2-2s-2 0.9-2 2 0.9 2 2 2 2-0.9 2-2z"/><path d="m584 128c0-1.1-0.9-2-2-2s-2 0.9-2 2 0.9 2 2 2 2-0.9 2-2z"/><path d="m717 131c0-1.1-0.9-2-2-2s-2 0.9-2 2 0.9 2 2 2 2-0.9 2-2z"/><path d="m389 148c0-1.1-0.9-2-2-2s-2 0.9-2 2 0.9 2 2 2 2-0.9 2-2z"/><path d="m696 124c0-1.1-0.9-2-2-2s-2 0.9-2 2 0.9 2 2 2 2-0.9 2-2z"/><path d="m632 123c0-1.1-0.9-2-2-2s-2 0.9-2 2 0.9 2 2 2 2-0.9 2-2z"/><path d="m825 144c0-1.1-0.9-2-2-2s-2 0.9-2 2 0.9 2 2 2 2-0.9 2-2z"/><path d="m744 123c0-1.1-0.9-2-2-2s-2 0.9-2 2 0.9 2 2 2 2-0.9 2-2z"/><path d="m637 124c0-1.1-0.9-2-2-2s-2 0.9-2 2 0.9 2 2 2 2-0.9 2-2z"/><path d="m745 123c0-1.1-0.9-2-2-2s-2 0.9-2 2 0.9 2 2 2 2-0.9 2-2z"/><path d="m796 118c0-1.1-0.9-2-2-2s-2 0.9-2 2 0.9 2 2 2 2-0.9 2-2z"/><path d="m629 140c0-1.1-0.9-2-2-2s-2 0.9-2 2 0.9 2 2 2 2-0.9 2-2z"/><path d="m752 110c0-1.1-0.9-2-2-2s-2 0.9-2 2 0.9 2 2 2 2-0.9 2-2z"/><path d="m679 109c0-1.1-0.9-2-2-2s-2 0.9-2 2 0.9 2 2 2 2-0.9 2-2z"/><path d="m732 126c0-1.1-0.9-2-2-2s-2 0.9-2 2 0.9 2 2 2 2-0.9 2-2z"/><path d="m618 150c0-1.1-0.9-2-2-2s-2 0.9-2 2 0.9 2 2 2 2-0.9 2-2z"/><path d="m578 171c0-1.1-0.9-2-2-2s-2 0.9-2 2 0.9 2 2 2 2-0.9 2-2z"/><path d="m703 126c0-1.1-0.9-2-2-2s-2 0.9-2 2 0.9 2 2 2 2-0.9 2-2z"/><path d="m724 150c0-1.1-0.9-2-2-2s-2 0.9-2 2 0.9 2 2 2 2-0.9 2-2z"/><path d="m743 128c0-1.1-0.9-2-2-2s-2 0.9-2 2 0.9 2 2 2 2-0.9 2-2z"/><path d="m586 124c0-1.1-0.9-2-2-2s-2 0.9-2 2 0.9 2 2 2 2-0.9 2-2z"/><path d="m396 148c0-1.1-0.9-2-2-2s-2 0.9-2 2 0.9 2 2 2 2-0.9 2-2z"/><path d="m595 153c0-1.1-0.9-2-2-2s-2 0.9-2 2 0.9 2 2 2 2-0.9 2-2z"/><path d="m375 129c0-1.1-0.9-2-2-2s-2 0.9-2 2 0.9 2 2 2 2-0.9 2-2z"/><path d="m447 159c0-1.1-0.9-2-2-2s-2 0.9-2 2 0.9 2 2 2 2-0.9 2-2z"/><path d="m567 119c0-1.1-0.9-2-2-2s-2 0.9-2 2 0.9 2 2 2 2-0.9 2-2z"/><path d="m667 124c0-1.1-0.9-2-2-2s-2 0.9-2 2 0.9 2 2 2 2-0.9 2-2z"/><path d="m728 154c0-1.1-0.9-2-2-2s-2 0.9-2 2 0.9 2 2 2 2-0.9 2-2z"/><path d="m231 123c0-1.1-0.9-2-2-2s-2 0.9-2 2 0.9 2 2 2 2-0.9 2-2z"/><path d="m591 130c0-1.1-0.9-2-2-2s-2 0.9-2 2 0.9 2 2 2 2-0.9 2-2z"/><path d="m375 148c0-1.1-0.9-2-2-2s-2 0.9-2 2 0.9 2 2 2 2-0.9 2-2z"/><path d="m755 125c0-1.1-0.9-2-2-2s-2 0.9-2 2 0.9 2 2 2 2-0.9 2-2z"/><path d="m742 152c0-1.1-0.9-2-2-2s-2 0.9-2 2 0.9 2 2 2 2-0.9 2-2z"/><path d="m395 116c0-1.1-0.9-2-2-2s-2 0.9-2 2 0.9 2 2 2 2-0.9 2-2z"/><path d="m766 124c0-1.1-0.9-2-2-2s-2 0.9-2 2 0.9 2 2 2 2-0.9 2-2z"/><path d="m688 214c0-1.1-0.9-2-2-2s-2 0.9-2 2 0.9 2 2 2 2-0.9 2-2z"/><path d="m724 127c0-1.1-0.9-2-2-2s-2 0.9-2 2 0.9 2 2 2 2-0.9 2-2z"/><path d="m632 132c0-1.1-0.9-2-2-2s-2 0.9-2 2 0.9 2 2 2 2-0.9 2-2z"/><path d="m773 127c0-1.1-0.9-2-2-2s-2 0.9-2 2 0.9 2 2 2 2-0.9 2-2z"/><path d="m543 113c0-1.1-0.9-2-2-2s-2 0.9-2 2 0.9 2 2 2 2-0.9 2-2z"/><path d="m720 152c0-1.1-0.9-2-2-2s-2 0.9-2 2 0.9 2 2 2 2-0.9 2-2z"/><path d="m254 123c0-1.1-0.9-2-2-2s-2 0.9-2 2 0.9 2 2 2 2-0.9 2-2z"/><path d="m706 132c0-1.1-0.9-2-2-2s-2 0.9-2 2 0.9 2 2 2 2-0.9 2-2z"/><path d="m717 146c0-1.1-0.9-2-2-2s-2 0.9-2 2 0.9 2 2 2 2-0.9 2-2z"/><path d="m741 129c0-1.1-0.9-2-2-2s-2 0.9-2 2 0.9 2 2 2 2-0.9 2-2z"/><path d="m602 135c0-1.1-0.9-2-2-2s-2 0.9-2 2 0.9 2 2 2 2-0.9 2-2z"/><path d="m767 126c0-1.1-0.9-2-2-2s-2 0.9-2 2 0.9 2 2 2 2-0.9 2-2z"/><path d="m767 123c0-1.1-0.9-2-2-2s-2 0.9-2 2 0.9 2 2 2 2-0.9 2-2z"/><path d="m773 129c0-1.1-0.9-2-2-2s-2 0.9-2 2 0.9 2 2 2 2-0.9 2-2z"/><path d="m714 152c0-1.1-0.9-2-2-2s-2 0.9-2 2 0.9 2 2 2 2-0.9 2-2z"/><path d="m611 124c0-1.1-0.9-2-2-2s-2 0.9-2 2 0.9 2 2 2 2-0.9 2-2z"/><path d="m734 126c0-1.1-0.9-2-2-2s-2 0.9-2 2 0.9 2 2 2 2-0.9 2-2z"/><path d="m713 123c0-1.1-0.9-2-2-2s-2 0.9-2 2 0.9 2 2 2 2-0.9 2-2z"/><path d="m732 162c0-1.1-0.9-2-2-2s-2 0.9-2 2 0.9 2 2 2 2-0.9 2-2z"/><path d="m579 122c0-1.1-0.9-2-2-2s-2 0.9-2 2 0.9 2 2 2 2-0.9 2-2z"/><path d="m494 129c0-1.1-0.9-2-2-2s-2 0.9-2 2 0.9 2 2 2 2-0.9 2-2z"/><path d="m742 165c0-1.1-0.9-2-2-2s-2 0.9-2 2 0.9 2 2 2 2-0.9 2-2z"/><path d="m637 159c0-1.1-0.9-2-2-2s-2 0.9-2 2 0.9 2 2 2 2-0.9 2-2z"/><path d="m770 136c0-1.1-0.9-2-2-2s-2 0.9-2 2 0.9 2 2 2 2-0.9 2-2z"/><path d="m759 119c0-1.1-0.9-2-2-2s-2 0.9-2 2 0.9 2 2 2 2-0.9 2-2z"/><path d="m691 120c0-1.1-0.9-2-2-2s-2 0.9-2 2 0.9 2 2 2 2-0.9 2-2z"/><path d="m656 119c0-1.1-0.9-2-2-2s-2 0.9-2 2 0.9 2 2 2 2-0.9 2-2z"/><path d="m292 124c0-1.1-0.9-2-2-2s-2 0.9-2 2 0.9 2 2 2 2-0.9 2-2z"/><path d="m727 135c0-1.1-0.9-2-2-2s-2 0.9-2 2 0.9 2 2 2 2-0.9 2-2z"/><path d="m720 142c0-1.1-0.9-2-2-2s-2 0.9-2 2 0.9 2 2 2 2-0.9 2-2z"/><path d="m614 160c0-1.1-0.9-2-2-2s-2 0.9-2 2 0.9 2 2 2 2-0.9 2-2z"/><path d="m780 95c0-1.1-0.9-2-2-2s-2 0.9-2 2 0.9 2 2 2 2-0.9 2-2z"/><path d="m512 57c0-1.1-0.9-2-2-2s-2 0.9-2 2 0.9 2 2 2 2-0.9 2-2z"/><path d="m421 82c0-1.1-0.9-2-2-2s-2 0.9-2 2 0.9 2 2 2 2-0.9 2-2z"/><path d="m777 128c0-1.1-0.9-2-2-2s-2 0.9-2 2 0.9 2 2 2 2-0.9 2-2z"/><path d="m779 145c0-1.1-0.9-2-2-2s-2 0.9-2 2 0.9 2 2 2 2-0.9 2-2z"/><path d="m246 129c0-1.1-0.9-2-2-2s-2 0.9-2 2 0.9 2 2 2 2-0.9 2-2z"/><path d="m453 145c0-1.1-0.9-2-2-2s-2 0.9-2 2 0.9 2 2 2 2-0.9 2-2z"/><path d="m515 153c0-1.1-0.9-2-2-2s-2 0.9-2 2 0.9 2 2 2 2-0.9 2-2z"/><path d="m699 147c0-1.1-0.9-2-2-2s-2 0.9-2 2 0.9 2 2 2 2-0.9 2-2z"/><path d="m358 159c0-1.1-0.9-2-2-2s-2 0.9-2 2 0.9 2 2 2 2-0.9 2-2z"/><path d="m382 149c0-1.1-0.9-2-2-2s-2 0.9-2 2 0.9 2 2 2 2-0.9 2-2z"/><path d="m729 126c0-1.1-0.9-2-2-2s-2 0.9-2 2 0.9 2 2 2 2-0.9 2-2z"/><path d="m552 125c0-1.1-0.9-2-2-2s-2 0.9-2 2 0.9 2 2 2 2-0.9 2-2z"/><path d="m708 102c0-1.1-0.9-2-2-2s-2 0.9-2 2 0.9 2 2 2 2-0.9 2-2z"/><path d="m140 130c0-1.1-0.9-2-2-2s-2 0.9-2 2 0.9 2 2 2 2-0.9 2-2z"/><path d="m563 147c0-1.1-0.9-2-2-2s-2 0.9-2 2 0.9 2 2 2 2-0.9 2-2z"/></g><g fill="#00b200" fill-opacity=".38431"><path d="m717 120c0-2.21-1.79-4-4-4s-4 1.79-4 4 1.79 4 4 4 4-1.79 4-4z"/><path d="m751 132c0-2.21-1.79-4-4-4s-4 1.79-4 4 1.79 4 4 4 4-1.79 4-4z"/><path d="m535 114c0-2.21-1.79-4-4-4s-4 1.79-4 4 1.79 4 4 4 4-1.79 4-4z"/><path d="m755 127c0-2.21-1.79-4-4-4s-4 1.79-4 4 1.79 4 4 4 4-1.79 4-4z"/><path d="m793 123c0-2.21-1.79-4-4-4s-4 1.79-4 4 1.79 4 4 4 4-1.79 4-4z"/><path d="m767 126c0-2.21-1.79-4-4-4s-4 1.79-4 4 1.79 4 4 4 4-1.79 4-4z"/><path d="m715 128c0-2.21-1.79-4-4-4s-4 1.79-4 4 1.79 4 4 4 4-1.79 4-4z"/><path d="m593 147c0-2.21-1.79-4-4-4s-4 1.79-4 4 1.79 4 4 4 4-1.79 4-4z"/><path d="m737 130c0-2.21-1.79-4-4-4s-4 1.79-4 4 1.79 4 4 4 4-1.79 4-4z"/><path d="m676 159c0-2.21-1.79-4-4-4s-4 1.79-4 4 1.79 4 4 4 4-1.79 4-4z"/><path d="m697 144c0-2.21-1.79-4-4-4s-4 1.79-4 4 1.79 4 4 4 4-1.79 4-4z"/><path d="m544 159c0-2.21-1.79-4-4-4s-4 1.79-4 4 1.79 4 4 4 4-1.79 4-4z"/><path d="m686 117c0-2.21-1.79-4-4-4s-4 1.79-4 4 1.79 4 4 4 4-1.79 4-4z"/><path d="m684 152c0-2.21-1.79-4-4-4s-4 1.79-4 4 1.79 4 4 4 4-1.79 4-4z"/><path d="m658 147c0-2.21-1.79-4-4-4s-4 1.79-4 4 1.79 4 4 4 4-1.79 4-4z"/><path d="m793 132c0-2.21-1.79-4-4-4s-4 1.79-4 4 1.79 4 4 4 4-1.79 4-4z"/><path d="m436 113c0-2.21-1.79-4-4-4s-4 1.79-4 4 1.79 4 4 4 4-1.79 4-4z"/><path d="m750 145c0-2.21-1.79-4-4-4s-4 1.79-4 4 1.79 4 4 4 4-1.79 4-4z"/><path d="m684 132c0-2.21-1.79-4-4-4s-4 1.79-4 4 1.79 4 4 4 4-1.79 4-4z"/><path d="m807 131c0-2.21-1.79-4-4-4s-4 1.79-4 4 1.79 4 4 4 4-1.79 4-4z"/><path d="m810 136c0-2.21-1.79-4-4-4s-4 1.79-4 4 1.79 4 4 4 4-1.79 4-4z"/><path d="m737 122c0-2.21-1.79-4-4-4s-4 1.79-4 4 1.79 4 4 4 4-1.79 4-4z"/><path d="m756 132c0-2.21-1.79-4-4-4s-4 1.79-4 4 1.79 4 4 4 4-1.79 4-4z"/><path d="m777 125c0-2.21-1.79-4-4-4s-4 1.79-4 4 1.79 4 4 4 4-1.79 4-4z"/><path d="m725 141c0-2.21-1.79-4-4-4s-4 1.79-4 4 1.79 4 4 4 4-1.79 4-4z"/><path d="m716 132c0-2.21-1.79-4-4-4s-4 1.79-4 4 1.79 4 4 4 4-1.79 4-4z"/><path d="m755 127c0-2.21-1.79-4-4-4s-4 1.79-4 4 1.79 4 4 4 4-1.79 4-4z"/><path d="m769 119c0-2.21-1.79-4-4-4s-4 1.79-4 4 1.79 4 4 4 4-1.79 4-4z"/><path d="m297 159c0-2.21-1.79-4-4-4s-4 1.79-4 4 1.79 4 4 4 4-1.79 4-4z"/><path d="m609 140c0-2.21-1.79-4-4-4s-4 1.79-4 4 1.79 4 4 4 4-1.79 4-4z"/><path d="m734 133c0-2.21-1.79-4-4-4s-4 1.79-4 4 1.79 4 4 4 4-1.79 4-4z"/><path d="m467 159c0-2.21-1.79-4-4-4s-4 1.79-4 4 1.79 4 4 4 4-1.79 4-4z"/><path d="m719 158c0-2.21-1.79-4-4-4s-4 1.79-4 4 1.79 4 4 4 4-1.79 4-4z"/><path d="m731 145c0-2.21-1.79-4-4-4s-4 1.79-4 4 1.79 4 4 4 4-1.79 4-4z"/><path d="m442 146c0-2.21-1.79-4-4-4s-4 1.79-4 4 1.79 4 4 4 4-1.79 4-4z"/><path d="m767 125c0-2.21-1.79-4-4-4s-4 1.79-4 4 1.79 4 4 4 4-1.79 4-4z"/><path d="m524 129c0-2.21-1.79-4-4-4s-4 1.79-4 4 1.79 4 4 4 4-1.79 4-4z"/><path d="m721 131c0-2.21-1.79-4-4-4s-4 1.79-4 4 1.79 4 4 4 4-1.79 4-4z"/><path d="m768 123c0-2.21-1.79-4-4-4s-4 1.79-4 4 1.79 4 4 4 4-1.79 4-4z"/><path d="m785 128c0-2.21-1.79-4-4-4s-4 1.79-4 4 1.79 4 4 4 4-1.79 4-4z"/><path d="m762 125c0-2.21-1.79-4-4-4s-4 1.79-4 4 1.79 4 4 4 4-1.79 4-4z"/><path d="m782 135c0-2.21-1.79-4-4-4s-4 1.79-4 4 1.79 4 4 4 4-1.79 4-4z"/><path d="m434 159c0-2.21-1.79-4-4-4s-4 1.79-4 4 1.79 4 4 4 4-1.79 4-4z"/><path d="m807 135c0-2.21-1.79-4-4-4s-4 1.79-4 4 1.79 4 4 4 4-1.79 4-4z"/><path d="m669 122c0-2.21-1.79-4-4-4s-4 1.79-4 4 1.79 4 4 4 4-1.79 4-4z"/><path d="m655 153c0-2.21-1.79-4-4-4s-4 1.79-4 4 1.79 4 4 4 4-1.79 4-4z"/><path d="m474 132c0-2.21-1.79-4-4-4s-4 1.79-4 4 1.79 4 4 4 4-1.79 4-4z"/><path d="m648 148c0-2.21-1.79-4-4-4s-4 1.79-4 4 1.79 4 4 4 4-1.79 4-4z"/><path d="m742 128c0-2.21-1.79-4-4-4s-4 1.79-4 4 1.79 4 4 4 4-1.79 4-4z"/><path d="m694 151c0-2.21-1.79-4-4-4s-4 1.79-4 4 1.79 4 4 4 4-1.79 4-4z"/><path d="m527 133c0-2.21-1.79-4-4-4s-4 1.79-4 4 1.79 4 4 4 4-1.79 4-4z"/><path d="m649 158c0-2.21-1.79-4-4-4s-4 1.79-4 4 1.79 4 4 4 4-1.79 4-4z"/><path d="m753 134c0-2.21-1.79-4-4-4s-4 1.79-4 4 1.79 4 4 4 4-1.79 4-4z"/><path d="m650 128c0-2.21-1.79-4-4-4s-4 1.79-4 4 1.79 4 4 4 4-1.79 4-4z"/><path d="m490 129c0-2.21-1.79-4-4-4s-4 1.79-4 4 1.79 4 4 4 4-1.79 4-4z"/><path d="m714 122c0-2.21-1.79-4-4-4s-4 1.79-4 4 1.79 4 4 4 4-1.79 4-4z"/><path d="m821 130c0-2.21-1.79-4-4-4s-4 1.79-4 4 1.79 4 4 4 4-1.79 4-4z"/><path d="m664 144c0-2.21-1.79-4-4-4s-4 1.79-4 4 1.79 4 4 4 4-1.79 4-4z"/><path d="m645 150c0-2.21-1.79-4-4-4s-4 1.79-4 4 1.79 4 4 4 4-1.79 4-4z"/><path d="m362 148c0-2.21-1.79-4-4-4s-4 1.79-4 4 1.79 4 4 4 4-1.79 4-4z"/><path d="m692 146c0-2.21-1.79-4-4-4s-4 1.79-4 4 1.79 4 4 4 4-1.79 4-4z"/><path d="m714 128c0-2.21-1.79-4-4-4s-4 1.79-4 4 1.79 4 4 4 4-1.79 4-4z"/><path d="m516 131c0-2.21-1.79-4-4-4s-4 1.79-4 4 1.79 4 4 4 4-1.79 4-4z"/><path d="m443 164c0-2.21-1.79-4-4-4s-4 1.79-4 4 1.79 4 4 4 4-1.79 4-4z"/><path d="m705 137c0-2.21-1.79-4-4-4s-4 1.79-4 4 1.79 4 4 4 4-1.79 4-4z"/><path d="m512 135c0-2.21-1.79-4-4-4s-4 1.79-4 4 1.79 4 4 4 4-1.79 4-4z"/><path d="m120 156c0-2.21-1.79-4-4-4s-4 1.79-4 4 1.79 4 4 4 4-1.79 4-4z"/><path d="m635 129c0-2.21-1.79-4-4-4s-4 1.79-4 4 1.79 4 4 4 4-1.79 4-4z"/><path d="m463 132c0-2.21-1.79-4-4-4s-4 1.79-4 4 1.79 4 4 4 4-1.79 4-4z"/><path d="m639 127c0-2.21-1.79-4-4-4s-4 1.79-4 4 1.79 4 4 4 4-1.79 4-4z"/><path d="m811 135c0-2.21-1.79-4-4-4s-4 1.79-4 4 1.79 4 4 4 4-1.79 4-4z"/><path d="m794 130c0-2.21-1.79-4-4-4s-4 1.79-4 4 1.79 4 4 4 4-1.79 4-4z"/><path d="m584 128c0-2.21-1.79-4-4-4s-4 1.79-4 4 1.79 4 4 4 4-1.79 4-4z"/><path d="m723 131c0-2.21-1.79-4-4-4s-4 1.79-4 4 1.79 4 4 4 4-1.79 4-4z"/><path d="m391 148c0-2.21-1.79-4-4-4s-4 1.79-4 4 1.79 4 4 4 4-1.79 4-4z"/><path d="m699 126c0-2.21-1.79-4-4-4s-4 1.79-4 4 1.79 4 4 4 4-1.79 4-4z"/><path d="m635 124c0-2.21-1.79-4-4-4s-4 1.79-4 4 1.79 4 4 4 4-1.79 4-4z"/><path d="m820 134c0-2.21-1.79-4-4-4s-4 1.79-4 4 1.79 4 4 4 4-1.79 4-4z"/><path d="m758 128c0-2.21-1.79-4-4-4s-4 1.79-4 4 1.79 4 4 4 4-1.79 4-4z"/><path d="m640 124c0-2.21-1.79-4-4-4s-4 1.79-4 4 1.79 4 4 4 4-1.79 4-4z"/><path d="m754 128c0-2.21-1.79-4-4-4s-4 1.79-4 4 1.79 4 4 4 4-1.79 4-4z"/><path d="m507 130c0-2.21-1.79-4-4-4s-4 1.79-4 4 1.79 4 4 4 4-1.79 4-4z"/><path d="m630 140c0-2.21-1.79-4-4-4s-4 1.79-4 4 1.79 4 4 4 4-1.79 4-4z"/><path d="m760 118c0-2.21-1.79-4-4-4s-4 1.79-4 4 1.79 4 4 4 4-1.79 4-4z"/><path d="m683 112c0-2.21-1.79-4-4-4s-4 1.79-4 4 1.79 4 4 4 4-1.79 4-4z"/><path d="m735 127c0-2.21-1.79-4-4-4s-4 1.79-4 4 1.79 4 4 4 4-1.79 4-4z"/><path d="m619 150c0-2.21-1.79-4-4-4s-4 1.79-4 4 1.79 4 4 4 4-1.79 4-4z"/><path d="m578 169c0-2.21-1.79-4-4-4s-4 1.79-4 4 1.79 4 4 4 4-1.79 4-4z"/><path d="m705 125c0-2.21-1.79-4-4-4s-4 1.79-4 4 1.79 4 4 4 4-1.79 4-4z"/><path d="m723 146c0-2.21-1.79-4-4-4s-4 1.79-4 4 1.79 4 4 4 4-1.79 4-4z"/><path d="m774 129c0-2.21-1.79-4-4-4s-4 1.79-4 4 1.79 4 4 4 4-1.79 4-4z"/><path d="m588 124c0-2.21-1.79-4-4-4s-4 1.79-4 4 1.79 4 4 4 4-1.79 4-4z"/><path d="m398 148c0-2.21-1.79-4-4-4s-4 1.79-4 4 1.79 4 4 4 4-1.79 4-4z"/><path d="m596 152c0-2.21-1.79-4-4-4s-4 1.79-4 4 1.79 4 4 4 4-1.79 4-4z"/><path d="m377 129c0-2.21-1.79-4-4-4s-4 1.79-4 4 1.79 4 4 4 4-1.79 4-4z"/><path d="m449 159c0-2.21-1.79-4-4-4s-4 1.79-4 4 1.79 4 4 4 4-1.79 4-4z"/><path d="m589 130c0-2.21-1.79-4-4-4s-4 1.79-4 4 1.79 4 4 4 4-1.79 4-4z"/><path d="m708 128c0-2.21-1.79-4-4-4s-4 1.79-4 4 1.79 4 4 4 4-1.79 4-4z"/><path d="m723 150c0-2.21-1.79-4-4-4s-4 1.79-4 4 1.79 4 4 4 4-1.79 4-4z"/><path d="m233 123c0-2.21-1.79-4-4-4s-4 1.79-4 4 1.79 4 4 4 4-1.79 4-4z"/><path d="m593 130c0-2.21-1.79-4-4-4s-4 1.79-4 4 1.79 4 4 4 4-1.79 4-4z"/><path d="m377 148c0-2.21-1.79-4-4-4s-4 1.79-4 4 1.79 4 4 4 4-1.79 4-4z"/><path d="m759 128c0-2.21-1.79-4-4-4s-4 1.79-4 4 1.79 4 4 4 4-1.79 4-4z"/><path d="m740 149c0-2.21-1.79-4-4-4s-4 1.79-4 4 1.79 4 4 4 4-1.79 4-4z"/><path d="m438 132c0-2.21-1.79-4-4-4s-4 1.79-4 4 1.79 4 4 4 4-1.79 4-4z"/><path d="m767 127c0-2.21-1.79-4-4-4s-4 1.79-4 4 1.79 4 4 4 4-1.79 4-4z"/><path d="m690 132c0-2.21-1.79-4-4-4s-4 1.79-4 4 1.79 4 4 4 4-1.79 4-4z"/><path d="m751 130c0-2.21-1.79-4-4-4s-4 1.79-4 4 1.79 4 4 4 4-1.79 4-4z"/><path d="m636 132c0-2.21-1.79-4-4-4s-4 1.79-4 4 1.79 4 4 4 4-1.79 4-4z"/><path d="m790 131c0-2.21-1.79-4-4-4s-4 1.79-4 4 1.79 4 4 4 4-1.79 4-4z"/><path d="m545 113c0-2.21-1.79-4-4-4s-4 1.79-4 4 1.79 4 4 4 4-1.79 4-4z"/><path d="m623 132c0-2.21-1.79-4-4-4s-4 1.79-4 4 1.79 4 4 4 4-1.79 4-4z"/><path d="m710 146c0-2.21-1.79-4-4-4s-4 1.79-4 4 1.79 4 4 4 4-1.79 4-4z"/><path d="m256 123c0-2.21-1.79-4-4-4s-4 1.79-4 4 1.79 4 4 4 4-1.79 4-4z"/><path d="m708 131c0-2.21-1.79-4-4-4s-4 1.79-4 4 1.79 4 4 4 4-1.79 4-4z"/><path d="m713 143c0-2.21-1.79-4-4-4s-4 1.79-4 4 1.79 4 4 4 4-1.79 4-4z"/><path d="m744 129c0-2.21-1.79-4-4-4s-4 1.79-4 4 1.79 4 4 4 4-1.79 4-4z"/><path d="m410 131c0-2.21-1.79-4-4-4s-4 1.79-4 4 1.79 4 4 4 4-1.79 4-4z"/><path d="m603 135c0-2.21-1.79-4-4-4s-4 1.79-4 4 1.79 4 4 4 4-1.79 4-4z"/><path d="m712 133c0-2.21-1.79-4-4-4s-4 1.79-4 4 1.79 4 4 4 4-1.79 4-4z"/><path d="m770 129c0-2.21-1.79-4-4-4s-4 1.79-4 4 1.79 4 4 4 4-1.79 4-4z"/><path d="m765 130c0-2.21-1.79-4-4-4s-4 1.79-4 4 1.79 4 4 4 4-1.79 4-4z"/><path d="m781 129c0-2.21-1.79-4-4-4s-4 1.79-4 4 1.79 4 4 4 4-1.79 4-4z"/><path d="m715 147c0-2.21-1.79-4-4-4s-4 1.79-4 4 1.79 4 4 4 4-1.79 4-4z"/><path d="m616 126c0-2.21-1.79-4-4-4s-4 1.79-4 4 1.79 4 4 4 4-1.79 4-4z"/><path d="m610 132c0-2.21-1.79-4-4-4s-4 1.79-4 4 1.79 4 4 4 4-1.79 4-4z"/><path d="m744 129c0-2.21-1.79-4-4-4s-4 1.79-4 4 1.79 4 4 4 4-1.79 4-4z"/><path d="m717 126c0-2.21-1.79-4-4-4s-4 1.79-4 4 1.79 4 4 4 4-1.79 4-4z"/><path d="m727 158c0-2.21-1.79-4-4-4s-4 1.79-4 4 1.79 4 4 4 4-1.79 4-4z"/><path d="m581 122c0-2.21-1.79-4-4-4s-4 1.79-4 4 1.79 4 4 4 4-1.79 4-4z"/><path d="m496 129c0-2.21-1.79-4-4-4s-4 1.79-4 4 1.79 4 4 4 4-1.79 4-4z"/><path d="m765 131c0-2.21-1.79-4-4-4s-4 1.79-4 4 1.79 4 4 4 4-1.79 4-4z"/><path d="m728 159c0-2.21-1.79-4-4-4s-4 1.79-4 4 1.79 4 4 4 4-1.79 4-4z"/><path d="m638 159c0-2.21-1.79-4-4-4s-4 1.79-4 4 1.79 4 4 4 4-1.79 4-4z"/><path d="m767 134c0-2.21-1.79-4-4-4s-4 1.79-4 4 1.79 4 4 4 4-1.79 4-4z"/><path d="m765 124c0-2.21-1.79-4-4-4s-4 1.79-4 4 1.79 4 4 4 4-1.79 4-4z"/><path d="m695 121c0-2.21-1.79-4-4-4s-4 1.79-4 4 1.79 4 4 4 4-1.79 4-4z"/><path d="m658 120c0-2.21-1.79-4-4-4s-4 1.79-4 4 1.79 4 4 4 4-1.79 4-4z"/><path d="m294 124c0-2.21-1.79-4-4-4s-4 1.79-4 4 1.79 4 4 4 4-1.79 4-4z"/><path d="m728 134c0-2.21-1.79-4-4-4s-4 1.79-4 4 1.79 4 4 4 4-1.79 4-4z"/><path d="m716 140c0-2.21-1.79-4-4-4s-4 1.79-4 4 1.79 4 4 4 4-1.79 4-4z"/><path d="m615 160c0-2.21-1.79-4-4-4s-4 1.79-4 4 1.79 4 4 4 4-1.79 4-4z"/><path d="m797 121c0-2.21-1.79-4-4-4s-4 1.79-4 4 1.79 4 4 4 4-1.79 4-4z"/><path d="m704 131c0-2.21-1.79-4-4-4s-4 1.79-4 4 1.79 4 4 4 4-1.79 4-4z"/><path d="m506 131c0-2.21-1.79-4-4-4s-4 1.79-4 4 1.79 4 4 4 4-1.79 4-4z"/><path d="m792 132c0-2.21-1.79-4-4-4s-4 1.79-4 4 1.79 4 4 4 4-1.79 4-4z"/><path d="m770 140c0-2.21-1.79-4-4-4s-4 1.79-4 4 1.79 4 4 4 4-1.79 4-4z"/><path d="m248 129c0-2.21-1.79-4-4-4s-4 1.79-4 4 1.79 4 4 4 4-1.79 4-4z"/><path d="m659 137c0-2.21-1.79-4-4-4s-4 1.79-4 4 1.79 4 4 4 4-1.79 4-4z"/><path d="m515 154c0-2.21-1.79-4-4-4s-4 1.79-4 4 1.79 4 4 4 4-1.79 4-4z"/><path d="m508 165c0-2.21-1.79-4-4-4s-4 1.79-4 4 1.79 4 4 4 4-1.79 4-4z"/><path d="m360 159c0-2.21-1.79-4-4-4s-4 1.79-4 4 1.79 4 4 4 4-1.79 4-4z"/><path d="m382 147c0-2.21-1.79-4-4-4s-4 1.79-4 4 1.79 4 4 4 4-1.79 4-4z"/><path d="m732 127c0-2.21-1.79-4-4-4s-4 1.79-4 4 1.79 4 4 4 4-1.79 4-4z"/><path d="m548 132c0-2.21-1.79-4-4-4s-4 1.79-4 4 1.79 4 4 4 4-1.79 4-4z"/><path d="m554 125c0-2.21-1.79-4-4-4s-4 1.79-4 4 1.79 4 4 4 4-1.79 4-4z"/><path d="m721 117c0-2.21-1.79-4-4-4s-4 1.79-4 4 1.79 4 4 4 4-1.79 4-4z"/><path d="m142 131c0-2.21-1.79-4-4-4s-4 1.79-4 4 1.79 4 4 4 4-1.79 4-4z"/><path d="m565 133c0-2.21-1.79-4-4-4s-4 1.79-4 4 1.79 4 4 4 4-1.79 4-4z"/></g></g></g></g></g><g clip-path="url(#clipPath674)"><path d="m76 38v4" fill="none" stroke="#000" stroke-linecap="square" stroke-miterlimit="10"/><text transform="matrix(1,0,0,-1,68,24)" fill="#000000" font-family="Helvetica" font-size="12px"><tspan x="0 8.6020002" y="0">16</tspan></text>
<path d="m155 38v4" fill="none" stroke="#000" stroke-linecap="square" stroke-miterlimit="10"/><text transform="matrix(1,0,0,-1,147,24)" fill="#000000" font-family="Helvetica" font-size="12px"><tspan x="0 8.6020002" y="0">17</tspan></text>
<path d="m234 38v4" fill="none" stroke="#000" stroke-linecap="square" stroke-miterlimit="10"/><text transform="matrix(1,0,0,-1,226,24)" fill="#000000" font-family="Helvetica" font-size="12px"><tspan x="0 8.6020002" y="0">18</tspan></text>
<path d="m313 38v4" fill="none" stroke="#000" stroke-linecap="square" stroke-miterlimit="10"/><text transform="matrix(1,0,0,-1,305,24)" fill="#000000" font-family="Helvetica" font-size="12px"><tspan x="0 8.6020002" y="0">19</tspan></text>
<path d="m392 38v4" fill="none" stroke="#000" stroke-linecap="square" stroke-miterlimit="10"/><text transform="matrix(1,0,0,-1,384,24)" fill="#000000" font-family="Helvetica" font-size="12px"><tspan x="0 8.6020002" y="0">20</tspan></text>
<path d="m471 38v4" fill="none" stroke="#000" stroke-linecap="square" stroke-miterlimit="10"/><text transform="matrix(1,0,0,-1,463,24)" fill="#000000" font-family="Helvetica" font-size="12px"><tspan x="0 8.6020002" y="0">21</tspan></text>
<path d="m550 38v4" fill="none" stroke="#000" stroke-linecap="square" stroke-miterlimit="10"/><text transform="matrix(1,0,0,-1,542,24)" fill="#000000" font-family="Helvetica" font-size="12px"><tspan x="0 8.6020002" y="0">22</tspan></text>
<path d="m629 38v4" fill="none" stroke="#000" stroke-linecap="square" stroke-miterlimit="10"/><text transform="matrix(1,0,0,-1,621,24)" fill="#000000" font-family="Helvetica" font-size="12px"><tspan x="0 8.6020002" y="0">23</tspan></text>
<path d="m708 38v4" fill="none" stroke="#000" stroke-linecap="square" stroke-miterlimit="10"/><text transform="matrix(1,0,0,-1,700,24)" fill="#000000" font-family="Helvetica" font-size="12px"><tspan x="0 8.6020002" y="0">24</tspan></text>
<path d="m787 38v4" fill="none" stroke="#000" stroke-linecap="square" stroke-miterlimit="10"/><text transform="matrix(1,0,0,-1,779,24)" fill="#000000" font-family="Helvetica" font-size="12px"><tspan x="0 8.6020002" y="0">25</tspan></text><g fill="none" stroke="#000" stroke-linecap="square" stroke-miterlimit="10">
<path d="m37 40v2"/><path d="m44 40v2"/><path d="m52 40v2"/><path d="m60 40v2"/><path d="m68 40v2"/><path d="m84 40v2"/><path d="m92 40v2"/><path d="m100 40v2"/><path d="m108 40v2"/><path d="m116 40v2"/><path d="m123 40v2"/><path d="m131 40v2"/><path d="m139 40v2"/><path d="m147 40v2"/><path d="m163 40v2"/><path d="m171 40v2"/><path d="m179 40v2"/><path d="m187 40v2"/><path d="m195 40v2"/><path d="m202 40v2"/><path d="m210 40v2"/><path d="m218 40v2"/><path d="m226 40v2"/><path d="m242 40v2"/><path d="m250 40v2"/><path d="m258 40v2"/><path d="m266 40v2"/><path d="m274 40v2"/><path d="m281 40v2"/><path d="m289 40v2"/><path d="m297 40v2"/><path d="m305 40v2"/><path d="m321 40v2"/><path d="m329 40v2"/><path d="m337 40v2"/><path d="m345 40v2"/><path d="m353 40v2"/><path d="m360 40v2"/><path d="m368 40v2"/><path d="m376 40v2"/><path d="m384 40v2"/><path d="m400 40v2"/><path d="m408 40v2"/><path d="m416 40v2"/><path d="m424 40v2"/><path d="m432 40v2"/><path d="m439 40v2"/><path d="m447 40v2"/><path d="m455 40v2"/><path d="m463 40v2"/><path d="m479 40v2"/><path d="m487 40v2"/><path d="m495 40v2"/><path d="m503 40v2"/><path d="m511 40v2"/><path d="m518 40v2"/><path d="m526 40v2"/><path d="m534 40v2"/><path d="m542 40v2"/><path d="m558 40v2"/><path d="m566 40v2"/><path d="m574 40v2"/><path d="m582 40v2"/><path d="m590 40v2"/><path d="m597 40v2"/><path d="m605 40v2"/><path d="m613 40v2"/><path d="m621 40v2"/><path d="m637 40v2"/><path d="m645 40v2"/><path d="m653 40v2"/><path d="m661 40v2"/><path d="m669 40v2"/><path d="m676 40v2"/><path d="m684 40v2"/><path d="m692 40v2"/><path d="m700 40v2"/><path d="m716 40v2"/><path d="m724 40v2"/><path d="m732 40v2"/><path d="m740 40v2"/><path d="m748 40v2"/><path d="m755 40v2"/><path d="m763 40v2"/><path d="m771 40v2"/><path d="m779 40v2"/><path d="m795 40v2"/><path d="m803 40v2"/><path d="m811 40v2"/><path d="m819 40v2"/><path d="m827 40v2"/></g><text transform="matrix(1,0,0,-1,406,5)" fill="#000000" font-family="Helvetica" font-size="12px"><tspan x="0 7.802 16.733999 21.200001 32.326 40.127998 47.93" y="0">g [mag]</tspan></text>
<path d="m35 56h4" fill="none" stroke="#000" stroke-linecap="square" stroke-miterlimit="10"/><text transform="matrix(1,0,0,-1,21,50)" fill="#000000" font-family="Helvetica" font-size="12px"><tspan x="0 5.296" y="0">-2</tspan></text>
<path d="m35 116h4" fill="none" stroke="#000" stroke-linecap="square" stroke-miterlimit="10"/><text transform="matrix(1,0,0,-1,25,110)" fill="#000000" font-family="Helvetica" font-size="12px"><tspan x="0" y="0">0</tspan></text>
<path d="m35 177h4" fill="none" stroke="#000" stroke-linecap="square" stroke-miterlimit="10"/><text transform="matrix(1,0,0,-1,25,171)" fill="#000000" font-family="Helvetica" font-size="12px"><tspan x="0" y="0">2</tspan></text>
<path d="m35 238h4" fill="none" stroke="#000" stroke-linecap="square" stroke-miterlimit="10"/><text transform="matrix(1,0,0,-1,25,232)" fill="#000000" font-family="Helvetica" font-size="12px"><tspan x="0" y="0">4</tspan></text><g fill="none" stroke="#000" stroke-linecap="square" stroke-miterlimit="10">
<path d="m37 40h2"/><path d="m37 48h2"/><path d="m37 63h2"/><path d="m37 71h2"/><path d="m37 78h2"/><path d="m37 86h2"/><path d="m37 94h2"/><path d="m37 101h2"/><path d="m37 109h2"/><path d="m37 124h2"/><path d="m37 132h2"/><path d="m37 139h2"/><path d="m37 147h2"/><path d="m37 154h2"/><path d="m37 162h2"/><path d="m37 170h2"/><path d="m37 185h2"/><path d="m37 192h2"/><path d="m37 200h2"/><path d="m37 208h2"/><path d="m37 215h2"/><path d="m37 223h2"/><path d="m37 230h2"/><path d="m37 246h2"/><path d="m37 253h2"/><path d="m37 261h2"/><path d="m37 268h2"/><path d="m37 276h2"/><path d="m37 283h2"/></g><text transform="matrix(0,1,1,0,14,126)" fill="#000000" font-family="Helvetica" font-size="12px"><tspan x="0 7.5939102 11.85182 16.76973 21.027639 25.945551 34.461369 38.71928 49.637192 57.231098 64.825012" y="0">g - r [mag]</tspan></text>
<path d="m37 283h790v-243h-790z" fill="none" stroke="#000" stroke-linecap="square" stroke-miterlimit="10"/><path d="m71 254h110v-41h-110z" fill="#fff"/><path d="m71 254h110v-41h-110z" fill="none" stroke="#000" stroke-linecap="square" stroke-miterlimit="10"/><path d="m87 243c0-1.1-0.9-2-2-2s-2 0.9-2 2 0.9 2 2 2 2-0.9 2-2z" fill="#0000f0"/><path d="m87 243c0-1.1-0.9-2-2-2s-2 0.9-2 2 0.9 2 2 2 2-0.9 2-2z" fill="none" stroke="#0000f0" stroke-linecap="square" stroke-miterlimit="10"/><text transform="matrix(1,0,0,-1,99,235)" fill="#000000" font-family="Helvetica" font-size="12px"><tspan x="0 9.6417303 13.28346 17.597191 25.24692 32.896648 40.546379 44.860111 49.17384 56.82357 61.797298 65.439034 73.08876" y="0">without prior</tspan></text>
<path d="m89 224c0-2.21-1.79-4-4-4s-4 1.79-4 4 1.79 4 4 4 4-1.79 4-4z" fill="#00b200"/><path d="m89 224c0-2.21-1.79-4-4-4s-4 1.79-4 4 1.79 4 4 4 4-1.79 4-4z" fill="none" stroke="#00b200" stroke-linecap="square" stroke-miterlimit="10"/><text transform="matrix(1,0,0,-1,99,216)" fill="#000000" font-family="Helvetica" font-size="12px"><tspan x="0 9.6374102 13.27482 17.58423 25.229639 29.539049 37.18446 42.15387 45.791279 53.436691" y="0">with prior</tspan></text>
</g></g></g></svg>
