<?xml version="1.0" encoding="utf-8" standalone="no"?>
<!DOCTYPE svg PUBLIC "-//W3C//DTD SVG 1.1//EN"
  "http://www.w3.org/Graphics/SVG/1.1/DTD/svg11.dtd">
<!-- Created with matplotlib (http://matplotlib.org/) -->
<svg height="360pt" version="1.1" viewBox="0 0 864 360" width="864pt" xmlns="http://www.w3.org/2000/svg" xmlns:xlink="http://www.w3.org/1999/xlink">
 <defs>
  <style type="text/css">
*{stroke-linecap:butt;stroke-linejoin:round;}
  </style>
 </defs>
 <g id="figure_1">
  <g id="patch_1">
   <path d="M 0 360 
L 864 360 
L 864 0 
L 0 0 
z
" style="fill:#ffffff;"/>
  </g>
  <g id="axes_1">
   <g id="patch_2">
    <path d="M 69.12 320.4 
L 410.963478 320.4 
L 410.963478 7.2 
L 69.12 7.2 
z
" style="fill:#ffffff;"/>
   </g>
   <g id="matplotlib.axis_1">
    <g id="xtick_1">
     <g id="line2d_1">
      <path clip-path="url(#p6a6c20fd53)" d="M 84.64423 320.4 
L 84.64423 7.2 
" style="fill:none;stroke:#b0b0b0;stroke-dasharray:0.5,0.825;stroke-dashoffset:0;stroke-width:0.5;"/>
     </g>
     <g id="line2d_2">
      <defs>
       <path d="M 0 0 
L 0 3.5 
" id="m8796431c9a" style="stroke:#000000;stroke-width:0.8;"/>
      </defs>
      <g>
       <use style="stroke:#000000;stroke-width:0.8;" x="84.64423" xlink:href="#m8796431c9a" y="320.4"/>
      </g>
     </g>
     <g id="text_1">
      <!-- $-1.0$ -->
      <defs>
       <path d="M 65.90625 23 
C 67.59375 23 69.40625 23 69.40625 25 
C 69.40625 27 67.59375 27 65.90625 27 
L 11.796875 27 
C 10.09375 27 8.296875 27 8.296875 25 
C 8.296875 23 10.09375 23 11.796875 23 
z
" id="CMSY10-0"/>
       <path d="M 28.40625 67 
L 26.5 67 
C 21.09375 61.5625 14.796875 60.78125 8.40625 60.78125 
L 8.40625 55 
C 11.296875 55 16 55 20.703125 57.296875 
L 20.703125 5.765625 
L 8.90625 5.765625 
L 8.90625 0 
L 40.203125 0 
L 40.203125 5.765625 
L 28.40625 5.765625 
z
" id="CMSS17-49"/>
       <path d="M 17 7.96875 
L 9 7.96875 
L 9 0 
L 17 0 
z
" id="CMSS17-46"/>
       <path d="M 43.09375 31.9375 
C 43.09375 37.578125 43 48.078125 38.90625 56.1875 
C 34.796875 64 28.203125 66.078125 23.5 66.078125 
C 16.703125 66.078125 10.90625 62.109375 7.90625 55.78125 
C 4.703125 49.15625 3.796875 42.328125 3.796875 31.9375 
C 3.796875 24.828125 4.09375 16.109375 7.703125 8.484375 
C 11.796875 0.078125 18.703125 -2 23.40625 -2 
C 29.59375 -2 35.59375 1.265625 39 8.09375 
C 42.5 15.21875 43.09375 23.03125 43.09375 31.9375 
z
M 23.40625 4.078125 
C 15.796875 4.078125 13.5 12.671875 12.796875 15.546875 
C 11.59375 20.46875 11.40625 25.21875 11.40625 33.03125 
C 11.40625 39.15625 11.40625 46.0625 13.296875 51.515625 
C 15.59375 57.828125 19.59375 60 23.40625 60 
C 30.796875 60 33.203125 52.6875 34 50.125 
C 35.5 44.890625 35.5 38.765625 35.5 33.03125 
C 35.5 23.84375 35.5 4.078125 23.40625 4.078125 
z
" id="CMSS17-48"/>
      </defs>
      <g transform="translate(70.494822 337.085876)scale(0.14 -0.14)">
       <use transform="scale(0.996264)" xlink:href="#CMSY10-0"/>
       <use transform="translate(77.487468 0)scale(0.996264)" xlink:href="#CMSS17-49"/>
       <use transform="translate(124.331091 0)scale(0.996264)" xlink:href="#CMSS17-46"/>
       <use transform="translate(150.355296 0)scale(0.996264)" xlink:href="#CMSS17-48"/>
      </g>
     </g>
    </g>
    <g id="xtick_2">
     <g id="line2d_3">
      <path clip-path="url(#p6a6c20fd53)" d="M 162.342985 320.4 
L 162.342985 7.2 
" style="fill:none;stroke:#b0b0b0;stroke-dasharray:0.5,0.825;stroke-dashoffset:0;stroke-width:0.5;"/>
     </g>
     <g id="line2d_4">
      <g>
       <use style="stroke:#000000;stroke-width:0.8;" x="162.342985" xlink:href="#m8796431c9a" y="320.4"/>
      </g>
     </g>
     <g id="text_2">
      <!-- $-0.5$ -->
      <defs>
       <path d="M 14.59375 58.625 
L 39.09375 58.625 
L 39.09375 65 
L 7.296875 65 
L 7.296875 27.828125 
L 14 27.828125 
C 15.796875 31.96875 19.5 35 24.296875 35 
C 28.796875 35 33.796875 31.078125 33.796875 19.78125 
C 33.796875 7.703125 26.703125 4.171875 21.5 4.171875 
C 15.09375 4.171875 9.203125 8 6.59375 13.296875 
L 3.40625 7.796875 
C 8 0.765625 15.5 -2 21.5 -2 
C 33.09375 -2 42.203125 7.765625 42.203125 19.578125 
C 42.203125 31.71875 34.09375 41.078125 24.40625 41.078125 
C 20.90625 41.078125 17.5 39.890625 14.59375 37.484375 
z
" id="CMSS17-53"/>
      </defs>
      <g transform="translate(148.193576 337.085876)scale(0.14 -0.14)">
       <use transform="scale(0.996264)" xlink:href="#CMSY10-0"/>
       <use transform="translate(77.487468 0)scale(0.996264)" xlink:href="#CMSS17-48"/>
       <use transform="translate(124.331091 0)scale(0.996264)" xlink:href="#CMSS17-46"/>
       <use transform="translate(150.355296 0)scale(0.996264)" xlink:href="#CMSS17-53"/>
      </g>
     </g>
    </g>
    <g id="xtick_3">
     <g id="line2d_5">
      <path clip-path="url(#p6a6c20fd53)" d="M 240.041739 320.4 
L 240.041739 7.2 
" style="fill:none;stroke:#b0b0b0;stroke-dasharray:0.5,0.825;stroke-dashoffset:0;stroke-width:0.5;"/>
     </g>
     <g id="line2d_6">
      <g>
       <use style="stroke:#000000;stroke-width:0.8;" x="240.041739" xlink:href="#m8796431c9a" y="320.4"/>
      </g>
     </g>
     <g id="text_3">
      <!-- $0.0$ -->
      <g transform="translate(231.316448 337.085876)scale(0.14 -0.14)">
       <use transform="scale(0.996264)" xlink:href="#CMSS17-48"/>
       <use transform="translate(46.843624 0)scale(0.996264)" xlink:href="#CMSS17-46"/>
       <use transform="translate(72.867828 0)scale(0.996264)" xlink:href="#CMSS17-48"/>
      </g>
     </g>
    </g>
    <g id="xtick_4">
     <g id="line2d_7">
      <path clip-path="url(#p6a6c20fd53)" d="M 317.740493 320.4 
L 317.740493 7.2 
" style="fill:none;stroke:#b0b0b0;stroke-dasharray:0.5,0.825;stroke-dashoffset:0;stroke-width:0.5;"/>
     </g>
     <g id="line2d_8">
      <g>
       <use style="stroke:#000000;stroke-width:0.8;" x="317.740493" xlink:href="#m8796431c9a" y="320.4"/>
      </g>
     </g>
     <g id="text_4">
      <!-- $0.5$ -->
      <g transform="translate(309.015202 337.085876)scale(0.14 -0.14)">
       <use transform="scale(0.996264)" xlink:href="#CMSS17-48"/>
       <use transform="translate(46.843624 0)scale(0.996264)" xlink:href="#CMSS17-46"/>
       <use transform="translate(72.867828 0)scale(0.996264)" xlink:href="#CMSS17-53"/>
      </g>
     </g>
    </g>
    <g id="xtick_5">
     <g id="line2d_9">
      <path clip-path="url(#p6a6c20fd53)" d="M 395.439248 320.4 
L 395.439248 7.2 
" style="fill:none;stroke:#b0b0b0;stroke-dasharray:0.5,0.825;stroke-dashoffset:0;stroke-width:0.5;"/>
     </g>
     <g id="line2d_10">
      <g>
       <use style="stroke:#000000;stroke-width:0.8;" x="395.439248" xlink:href="#m8796431c9a" y="320.4"/>
      </g>
     </g>
     <g id="text_5">
      <!-- $1.0$ -->
      <g transform="translate(386.713957 337.085876)scale(0.14 -0.14)">
       <use transform="scale(0.996264)" xlink:href="#CMSS17-49"/>
       <use transform="translate(46.843624 0)scale(0.996264)" xlink:href="#CMSS17-46"/>
       <use transform="translate(72.867828 0)scale(0.996264)" xlink:href="#CMSS17-48"/>
      </g>
     </g>
    </g>
    <g id="text_6">
     <!-- $q_{x}(\textsf{model})$ -->
     <defs>
      <path d="M 50.09375 43.265625 
L 42.703125 43.265625 
L 41.40625 37.203125 
C 40.09375 39.28125 36.5 43.265625 29.90625 43.265625 
C 18.59375 43.265625 7.09375 29.46875 7.09375 14.6875 
C 7.09375 7.328125 10.59375 -1 19.09375 -1 
C 22.5 -1 27.90625 -0.109375 34.203125 4.671875 
L 29.09375 -19.5 
L 36.703125 -19.5 
z
M 36.203125 13.109375 
C 35.796875 11.515625 35.796875 11.3125 34.796875 10.328125 
C 31.5 6.5625 27.796875 5.078125 24.59375 5.078125 
C 19 5.078125 15 9.734375 15 16.875 
C 15 27.875 24.09375 37 32.40625 37 
C 34.296875 37 36.296875 36.40625 37.703125 34.53125 
C 39.40625 32.234375 39.59375 29.359375 39.59375 29.0625 
C 39.59375 28.671875 39.59375 28.375 39.40625 27.578125 
z
" id="CMSSI17-113"/>
      <path d="M 29.5 22.09375 
L 50.703125 42.796875 
L 41.90625 42.796875 
L 28.296875 28.859375 
C 27.90625 28.46875 27.5 28.078125 27.296875 27.765625 
L 18.5 42.796875 
L 9.703125 42.796875 
L 22.5 22.09375 
L 0 0 
L 8.703125 0 
L 25 17.515625 
L 34.296875 0 
L 43.09375 0 
z
" id="CMSSI17-120"/>
      <path d="M 25.203125 74.5 
C 19.796875 69.015625 7.40625 56.265625 7.40625 24.8125 
C 7.40625 -6.765625 19.796875 -19.421875 25.203125 -25 
L 31.296875 -25 
C 19 -12.25 15 5.578125 15 24.703125 
C 15 43.71875 18.796875 61.65625 31.296875 74.5 
z
" id="CMSS17-40"/>
      <path d="M 67 29.328125 
C 67 36.0625 65.296875 44 54.09375 44 
C 46.59375 44 42.09375 39.3125 40.09375 36.421875 
C 38.296875 41.71875 34.09375 44 28.09375 44 
C 21.296875 44 17 40.125 14.703125 37.328125 
L 14.703125 43.09375 
L 7.40625 43.09375 
L 7.40625 0 
L 15 0 
L 15 24.359375 
C 15 30.296875 17.203125 37.9375 24.296875 37.9375 
C 33.40625 37.9375 33.40625 31.5 33.40625 28.578125 
L 33.40625 0 
L 41 0 
L 41 24.359375 
C 41 30.296875 43.203125 37.9375 50.296875 37.9375 
C 59.40625 37.9375 59.40625 31.5 59.40625 28.578125 
L 59.40625 0 
L 67 0 
z
" id="CMSS17-109"/>
      <path d="M 44.203125 21.1875 
C 44.203125 34 34.703125 44 23.5 44 
C 12 44 2.703125 33.703125 2.703125 21.1875 
C 2.703125 8.5 12.296875 -1 23.40625 -1 
C 34.796875 -1 44.203125 8.796875 44.203125 21.1875 
z
M 23.5 5.265625 
C 16.40625 5.265625 10.296875 11.078125 10.296875 22 
C 10.296875 33.609375 17.40625 37.921875 23.40625 37.921875 
C 29.90625 37.921875 36.59375 33.21875 36.59375 22 
C 36.59375 10.671875 30.09375 5.265625 23.5 5.265625 
z
" id="CMSS17-111"/>
      <path d="M 40.796875 69 
L 33.40625 69 
L 33.40625 38.09375 
C 30.296875 40.671875 25.203125 43.0625 19.59375 43.0625 
C 10.5 43.0625 3.296875 33.296875 3.296875 21.046875 
C 3.296875 8.78125 10.40625 -1 19.296875 -1 
C 26.203125 -1 30.796875 2.6875 33.203125 4.78125 
L 33.203125 -0.203125 
L 40.796875 -0.203125 
z
M 33.203125 13.0625 
C 33.203125 11.671875 33.203125 10.203125 30.09375 7.53125 
C 28.09375 5.859375 25.703125 5.078125 23.40625 5.078125 
C 18 5.078125 10.90625 9 10.90625 20.9375 
C 10.90625 33.34375 18.90625 37 24.40625 37 
C 28.09375 37 31.09375 35.21875 33.203125 32.265625 
z
" id="CMSS17-100"/>
      <path d="M 39.09375 21.515625 
C 39.09375 24.84375 38.90625 31.296875 35.703125 36.640625 
C 32.203125 42.390625 26.5 44 22.203125 44 
C 11.796875 44 3 34.1875 3 21.484375 
C 3 9.09375 12.09375 -1 23.59375 -1 
C 28.09375 -1 33.59375 0.296875 38.59375 3.875 
C 38.59375 4.28125 38.40625 6.46875 38.296875 6.5625 
C 38.296875 6.765625 38 9.84375 38 10.25 
C 33.203125 6.359375 27.703125 5.078125 23.703125 5.078125 
C 17.296875 5.078125 10.40625 10.421875 10.09375 21.515625 
z
M 10.90625 27 
C 12.203125 32.5625 16.59375 37.828125 22.203125 37.828125 
C 23.703125 37.828125 30.703125 37.828125 32.5 27 
z
" id="CMSS17-101"/>
      <path d="M 14.796875 69 
L 7.40625 69 
L 7.40625 0 
L 14.796875 0 
z
" id="CMSS17-108"/>
      <path d="M 11.296875 -25 
C 16.703125 -19.515625 29.09375 -6.765625 29.09375 24.703125 
C 29.09375 56.265625 16.703125 68.921875 11.296875 74.5 
L 5.203125 74.5 
C 17.5 61.75 21.5 43.921875 21.5 24.8125 
C 21.5 5.78125 17.703125 -12.15625 5.203125 -25 
z
" id="CMSS17-41"/>
     </defs>
     <g transform="translate(207.03775 356.638653)scale(0.16 -0.16)">
      <use transform="translate(0 14.943915)scale(0.996264)" xlink:href="#CMSSI17-113"/>
      <use transform="translate(48.204943 0)scale(0.697382)" xlink:href="#CMSSI17-120"/>
      <use transform="translate(85.002134 14.943915)scale(0.996264)" xlink:href="#CMSS17-40"/>
      <use transform="translate(121.436049 14.943915)scale(0.996264)" xlink:href="#CMSS17-109"/>
      <use transform="translate(195.665303 14.943915)scale(0.996264)" xlink:href="#CMSS17-111"/>
      <use transform="translate(245.111365 14.943915)scale(0.996264)" xlink:href="#CMSS17-100"/>
      <use transform="translate(293.316308 14.943915)scale(0.996264)" xlink:href="#CMSS17-101"/>
      <use transform="translate(334.95513 14.943915)scale(0.996264)" xlink:href="#CMSS17-108"/>
      <use transform="translate(357.135853 14.943915)scale(0.996264)" xlink:href="#CMSS17-41"/>
     </g>
    </g>
   </g>
   <g id="matplotlib.axis_2">
    <g id="ytick_1">
     <g id="line2d_11">
      <path clip-path="url(#p6a6c20fd53)" d="M 69.12 306.163636 
L 410.963478 306.163636 
" style="fill:none;stroke:#b0b0b0;stroke-dasharray:0.5,0.825;stroke-dashoffset:0;stroke-width:0.5;"/>
     </g>
     <g id="line2d_12">
      <defs>
       <path d="M 0 0 
L -3.5 0 
" id="m10dcad2177" style="stroke:#000000;stroke-width:0.8;"/>
      </defs>
      <g>
       <use style="stroke:#000000;stroke-width:0.8;" x="69.12" xlink:href="#m10dcad2177" y="306.163636"/>
      </g>
     </g>
     <g id="text_7">
      <!-- $-10.0$ -->
      <g transform="translate(26.992694 311.006575)scale(0.14 -0.14)">
       <use transform="scale(0.996264)" xlink:href="#CMSY10-0"/>
       <use transform="translate(77.487468 0)scale(0.996264)" xlink:href="#CMSS17-49"/>
       <use transform="translate(124.331091 0)scale(0.996264)" xlink:href="#CMSS17-48"/>
       <use transform="translate(171.174715 0)scale(0.996264)" xlink:href="#CMSS17-46"/>
       <use transform="translate(197.19892 0)scale(0.996264)" xlink:href="#CMSS17-48"/>
      </g>
     </g>
    </g>
    <g id="ytick_2">
     <g id="line2d_13">
      <path clip-path="url(#p6a6c20fd53)" d="M 69.12 270.572727 
L 410.963478 270.572727 
" style="fill:none;stroke:#b0b0b0;stroke-dasharray:0.5,0.825;stroke-dashoffset:0;stroke-width:0.5;"/>
     </g>
     <g id="line2d_14">
      <g>
       <use style="stroke:#000000;stroke-width:0.8;" x="69.12" xlink:href="#m10dcad2177" y="270.572727"/>
      </g>
     </g>
     <g id="text_8">
      <!-- $-7.5$ -->
      <defs>
       <path d="M 21.703125 59 
C 22.90625 59 24.09375 59 25.296875 59 
L 36.796875 59 
C 22.5 42.359375 14.296875 21.328125 14.296875 -0.5 
L 22.296875 -0.5 
C 22.296875 20.671875 29.296875 42.125 43 59.296875 
L 43 65.765625 
L 3.90625 65.765625 
L 3.90625 59 
z
" id="CMSS17-55"/>
      </defs>
      <g transform="translate(33.821183 275.415665)scale(0.14 -0.14)">
       <use transform="scale(0.996264)" xlink:href="#CMSY10-0"/>
       <use transform="translate(77.487468 0)scale(0.996264)" xlink:href="#CMSS17-55"/>
       <use transform="translate(124.331091 0)scale(0.996264)" xlink:href="#CMSS17-46"/>
       <use transform="translate(150.355296 0)scale(0.996264)" xlink:href="#CMSS17-53"/>
      </g>
     </g>
    </g>
    <g id="ytick_3">
     <g id="line2d_15">
      <path clip-path="url(#p6a6c20fd53)" d="M 69.12 234.981818 
L 410.963478 234.981818 
" style="fill:none;stroke:#b0b0b0;stroke-dasharray:0.5,0.825;stroke-dashoffset:0;stroke-width:0.5;"/>
     </g>
     <g id="line2d_16">
      <g>
       <use style="stroke:#000000;stroke-width:0.8;" x="69.12" xlink:href="#m10dcad2177" y="234.981818"/>
      </g>
     </g>
     <g id="text_9">
      <!-- $-5.0$ -->
      <g transform="translate(33.821183 239.824756)scale(0.14 -0.14)">
       <use transform="scale(0.996264)" xlink:href="#CMSY10-0"/>
       <use transform="translate(77.487468 0)scale(0.996264)" xlink:href="#CMSS17-53"/>
       <use transform="translate(124.331091 0)scale(0.996264)" xlink:href="#CMSS17-46"/>
       <use transform="translate(150.355296 0)scale(0.996264)" xlink:href="#CMSS17-48"/>
      </g>
     </g>
    </g>
    <g id="ytick_4">
     <g id="line2d_17">
      <path clip-path="url(#p6a6c20fd53)" d="M 69.12 199.390909 
L 410.963478 199.390909 
" style="fill:none;stroke:#b0b0b0;stroke-dasharray:0.5,0.825;stroke-dashoffset:0;stroke-width:0.5;"/>
     </g>
     <g id="line2d_18">
      <g>
       <use style="stroke:#000000;stroke-width:0.8;" x="69.12" xlink:href="#m10dcad2177" y="199.390909"/>
      </g>
     </g>
     <g id="text_10">
      <!-- $-2.5$ -->
      <defs>
       <path d="M 25.796875 21.203125 
C 28.59375 24.078125 32.796875 27.5625 35.703125 31.046875 
C 38.5 34.4375 42.203125 39.234375 42.203125 46.203125 
C 42.203125 57.140625 34.796875 67 22.203125 67 
C 12.296875 67 6.59375 60.828125 3.90625 51.15625 
L 7.796875 45.765625 
C 10 54.84375 13.09375 60.625 20.90625 60.625 
C 29.5 60.625 34.296875 53.640625 34.296875 45.96875 
C 34.296875 36.796875 27.296875 29.703125 22 24.421875 
C 16.09375 18.546875 10.296875 12.5625 4.703125 6.375 
L 4.703125 0 
L 42.203125 0 
L 42.203125 6.765625 
L 25.203125 6.765625 
C 24 6.765625 22.796875 6.765625 21.59375 6.765625 
L 11.59375 6.765625 
L 11.59375 6.859375 
z
" id="CMSS17-50"/>
      </defs>
      <g transform="translate(33.821183 204.233847)scale(0.14 -0.14)">
       <use transform="scale(0.996264)" xlink:href="#CMSY10-0"/>
       <use transform="translate(77.487468 0)scale(0.996264)" xlink:href="#CMSS17-50"/>
       <use transform="translate(124.331091 0)scale(0.996264)" xlink:href="#CMSS17-46"/>
       <use transform="translate(150.355296 0)scale(0.996264)" xlink:href="#CMSS17-53"/>
      </g>
     </g>
    </g>
    <g id="ytick_5">
     <g id="line2d_19">
      <path clip-path="url(#p6a6c20fd53)" d="M 69.12 163.8 
L 410.963478 163.8 
" style="fill:none;stroke:#b0b0b0;stroke-dasharray:0.5,0.825;stroke-dashoffset:0;stroke-width:0.5;"/>
     </g>
     <g id="line2d_20">
      <g>
       <use style="stroke:#000000;stroke-width:0.8;" x="69.12" xlink:href="#m10dcad2177" y="163.8"/>
      </g>
     </g>
     <g id="text_11">
      <!-- $0.0$ -->
      <g transform="translate(44.669418 168.642938)scale(0.14 -0.14)">
       <use transform="scale(0.996264)" xlink:href="#CMSS17-48"/>
       <use transform="translate(46.843624 0)scale(0.996264)" xlink:href="#CMSS17-46"/>
       <use transform="translate(72.867828 0)scale(0.996264)" xlink:href="#CMSS17-48"/>
      </g>
     </g>
    </g>
    <g id="ytick_6">
     <g id="line2d_21">
      <path clip-path="url(#p6a6c20fd53)" d="M 69.12 128.209091 
L 410.963478 128.209091 
" style="fill:none;stroke:#b0b0b0;stroke-dasharray:0.5,0.825;stroke-dashoffset:0;stroke-width:0.5;"/>
     </g>
     <g id="line2d_22">
      <g>
       <use style="stroke:#000000;stroke-width:0.8;" x="69.12" xlink:href="#m10dcad2177" y="128.209091"/>
      </g>
     </g>
     <g id="text_12">
      <!-- $2.5$ -->
      <g transform="translate(44.669418 133.052029)scale(0.14 -0.14)">
       <use transform="scale(0.996264)" xlink:href="#CMSS17-50"/>
       <use transform="translate(46.843624 0)scale(0.996264)" xlink:href="#CMSS17-46"/>
       <use transform="translate(72.867828 0)scale(0.996264)" xlink:href="#CMSS17-53"/>
      </g>
     </g>
    </g>
    <g id="ytick_7">
     <g id="line2d_23">
      <path clip-path="url(#p6a6c20fd53)" d="M 69.12 92.618182 
L 410.963478 92.618182 
" style="fill:none;stroke:#b0b0b0;stroke-dasharray:0.5,0.825;stroke-dashoffset:0;stroke-width:0.5;"/>
     </g>
     <g id="line2d_24">
      <g>
       <use style="stroke:#000000;stroke-width:0.8;" x="69.12" xlink:href="#m10dcad2177" y="92.618182"/>
      </g>
     </g>
     <g id="text_13">
      <!-- $5.0$ -->
      <g transform="translate(44.669418 97.46112)scale(0.14 -0.14)">
       <use transform="scale(0.996264)" xlink:href="#CMSS17-53"/>
       <use transform="translate(46.843624 0)scale(0.996264)" xlink:href="#CMSS17-46"/>
       <use transform="translate(72.867828 0)scale(0.996264)" xlink:href="#CMSS17-48"/>
      </g>
     </g>
    </g>
    <g id="ytick_8">
     <g id="line2d_25">
      <path clip-path="url(#p6a6c20fd53)" d="M 69.12 57.027273 
L 410.963478 57.027273 
" style="fill:none;stroke:#b0b0b0;stroke-dasharray:0.5,0.825;stroke-dashoffset:0;stroke-width:0.5;"/>
     </g>
     <g id="line2d_26">
      <g>
       <use style="stroke:#000000;stroke-width:0.8;" x="69.12" xlink:href="#m10dcad2177" y="57.027273"/>
      </g>
     </g>
     <g id="text_14">
      <!-- $7.5$ -->
      <g transform="translate(44.669418 61.870211)scale(0.14 -0.14)">
       <use transform="scale(0.996264)" xlink:href="#CMSS17-55"/>
       <use transform="translate(46.843624 0)scale(0.996264)" xlink:href="#CMSS17-46"/>
       <use transform="translate(72.867828 0)scale(0.996264)" xlink:href="#CMSS17-53"/>
      </g>
     </g>
    </g>
    <g id="ytick_9">
     <g id="line2d_27">
      <path clip-path="url(#p6a6c20fd53)" d="M 69.12 21.436364 
L 410.963478 21.436364 
" style="fill:none;stroke:#b0b0b0;stroke-dasharray:0.5,0.825;stroke-dashoffset:0;stroke-width:0.5;"/>
     </g>
     <g id="line2d_28">
      <g>
       <use style="stroke:#000000;stroke-width:0.8;" x="69.12" xlink:href="#m10dcad2177" y="21.436364"/>
      </g>
     </g>
     <g id="text_15">
      <!-- $10.0$ -->
      <g transform="translate(37.840929 26.279302)scale(0.14 -0.14)">
       <use transform="scale(0.996264)" xlink:href="#CMSS17-49"/>
       <use transform="translate(46.843624 0)scale(0.996264)" xlink:href="#CMSS17-48"/>
       <use transform="translate(93.687247 0)scale(0.996264)" xlink:href="#CMSS17-46"/>
       <use transform="translate(119.711452 0)scale(0.996264)" xlink:href="#CMSS17-48"/>
      </g>
     </g>
    </g>
    <g id="text_16">
     <!-- $Q_{x}(\textsf{engine})$ -->
     <defs>
      <path d="M 48.90625 -13 
L 58.703125 -13 
L 50.796875 3.265625 
C 66.09375 13.421875 72.40625 30.734375 72.40625 43.296875 
C 72.40625 58.921875 63.09375 70.265625 49.703125 70.265625 
C 30.40625 70.265625 11.5 47.671875 11.5 24.78125 
C 11.5 9.546875 20.59375 -2 34.296875 -2 
C 37.796875 -2 40.703125 -1.203125 43.203125 -0.40625 
z
M 43 18.90625 
L 34.40625 18.90625 
L 40.703125 5.0625 
C 40.09375 4.875 37.90625 4.265625 35.703125 4.265625 
C 25.796875 4.265625 19.703125 13.03125 19.703125 24.875 
C 19.703125 44.28125 33.5 64 48.296875 64 
C 57.90625 64 64.203125 55.53125 64.203125 43.1875 
C 64.203125 35.421875 61.203125 18.703125 48.09375 8.84375 
L 48 8.84375 
z
" id="CMSSI17-81"/>
      <path d="M 40.90625 29.328125 
C 40.90625 35.671875 39.40625 44 28.09375 44 
C 21.703125 44 17.5 40.71875 14.703125 37.328125 
L 14.703125 43.09375 
L 7.40625 43.09375 
L 7.40625 0 
L 15 0 
L 15 24.359375 
C 15 30.6875 17.40625 37.9375 24.203125 37.9375 
C 33 37.9375 33.296875 32 33.296875 28.578125 
L 33.296875 0 
L 40.90625 0 
z
" id="CMSS17-110"/>
      <path d="M 44.5 43.875 
C 38.796875 43.875 33.90625 42.78125 29.90625 40.890625 
C 26.59375 43.390625 23.203125 43.875 20.90625 43.875 
C 12.203125 43.875 5.59375 36.703125 5.59375 28.34375 
C 5.59375 22.9375 8.59375 18.859375 8.796875 18.671875 
C 7 16.171875 6 13.484375 6 10.5 
C 6 7 7.40625 4.515625 8.5 3.125 
C 3.296875 -0.046875 2.59375 -4.90625 2.59375 -6.796875 
C 2.59375 -14.03125 11.703125 -20 23.40625 -20 
C 35.203125 -20 44.296875 -14.03125 44.296875 -6.6875 
C 44.296875 7 29 7 24.796875 7 
L 16.703125 7 
C 15.203125 7 11.203125 7 11.203125 12.359375 
C 11.203125 14.390625 12.09375 15.6875 12.203125 15.78125 
C 13.703125 14.6875 16.796875 13 20.90625 13 
C 29.203125 13 36.09375 19.96875 36.09375 28.546875 
C 36.09375 33.3125 33.90625 36.796875 33 38 
L 33.296875 38 
C 33.59375 38 37.796875 38 39.296875 38 
C 42.5 38 42.796875 37.953125 45.59375 37.796875 
z
M 20.90625 18.46875 
C 17.5 18.46875 12.703125 20.546875 12.703125 28.484375 
C 12.703125 37.109375 18.203125 38.5 20.796875 38.5 
C 24.203125 38.5 29 36.421875 29 28.484375 
C 29 19.859375 23.5 18.46875 20.90625 18.46875 
z
M 24.703125 -0.15625 
C 27.09375 -0.15625 37.203125 -0.15625 37.203125 -6.90625 
C 37.203125 -11.15625 31 -14.515625 23.5 -14.515625 
C 15.90625 -14.515625 9.703125 -11.25 9.703125 -6.796875 
C 9.703125 -6.296875 9.703125 -0.15625 16.59375 -0.15625 
z
" id="CMSS17-103"/>
      <path d="M 15.296875 65.359375 
L 6.90625 65.359375 
L 6.90625 57 
L 15.296875 57 
z
M 14.796875 42.796875 
L 7.40625 42.796875 
L 7.40625 0 
L 14.796875 0 
z
" id="CMSS17-105"/>
     </defs>
     <g transform="translate(19.893218 199.640543)rotate(-90)scale(0.16 -0.16)">
      <use transform="translate(0 14.943915)scale(0.996264)" xlink:href="#CMSSI17-81"/>
      <use transform="translate(69.024271 0)scale(0.697382)" xlink:href="#CMSSI17-120"/>
      <use transform="translate(105.821462 14.943915)scale(0.996264)" xlink:href="#CMSS17-40"/>
      <use transform="translate(142.255376 14.943915)scale(0.996264)" xlink:href="#CMSS17-101"/>
      <use transform="translate(183.894198 14.943915)scale(0.996264)" xlink:href="#CMSS17-110"/>
      <use transform="translate(232.099141 14.943915)scale(0.996264)" xlink:href="#CMSS17-103"/>
      <use transform="translate(278.942765 14.943915)scale(0.996264)" xlink:href="#CMSS17-105"/>
      <use transform="translate(301.123488 14.943915)scale(0.996264)" xlink:href="#CMSS17-110"/>
      <use transform="translate(349.328431 14.943915)scale(0.996264)" xlink:href="#CMSS17-101"/>
      <use transform="translate(390.967253 14.943915)scale(0.996264)" xlink:href="#CMSS17-41"/>
     </g>
    </g>
   </g>
   <g id="line2d_29">
    <path clip-path="url(#p6a6c20fd53)" d="M 84.65834 306.163636 
L 84.661498 303.287603 
L 84.665364 300.41157 
L 84.670095 297.535537 
L 84.675885 294.659504 
L 84.68297 291.783471 
L 84.691642 288.907438 
L 84.702254 286.031405 
L 84.715241 283.155372 
L 84.731133 280.279339 
L 84.750582 277.403306 
L 84.774381 274.527273 
L 84.803503 271.65124 
L 84.839138 268.775207 
L 84.882739 265.899174 
L 84.936084 263.02314 
L 85.001347 260.147107 
L 85.081183 257.271074 
L 85.178837 254.395041 
L 85.298269 251.519008 
L 85.444313 248.642975 
L 85.622866 245.766942 
L 85.841112 242.890909 
L 86.1078 240.014876 
L 86.433566 237.138843 
L 86.831331 234.26281 
L 87.316753 231.386777 
L 87.908773 228.510744 
L 88.630242 225.634711 
L 89.508634 222.758678 
L 90.576854 219.882645 
L 91.874111 217.006612 
L 93.446841 214.130579 
L 95.349626 211.254545 
L 97.646011 208.378512 
L 100.409109 205.502479 
L 103.721794 202.626446 
L 107.676235 199.750413 
L 112.372448 196.87438 
L 117.915504 193.998347 
L 124.410983 191.122314 
L 131.958366 188.246281 
L 140.642218 185.370248 
L 150.521379 182.494215 
L 161.616906 179.618182 
L 173.900178 176.742149 
L 187.283175 173.866116 
L 201.613339 170.990083 
L 216.675196 168.11405 
L 232.200046 165.238017 
L 247.883432 162.361983 
L 263.408282 159.48595 
L 278.470139 156.609917 
L 292.800303 153.733884 
L 306.183301 150.857851 
L 318.466572 147.981818 
L 329.5621 145.105785 
L 339.44126 142.229752 
L 348.125112 139.353719 
L 355.672495 136.477686 
L 362.167974 133.601653 
L 367.71103 130.72562 
L 372.407243 127.849587 
L 376.361684 124.973554 
L 379.674369 122.097521 
L 382.437468 119.221488 
L 384.733853 116.345455 
L 386.636637 113.469421 
L 388.209368 110.593388 
L 389.506624 107.717355 
L 390.574844 104.841322 
L 391.453236 101.965289 
L 392.174705 99.089256 
L 392.766726 96.213223 
L 393.252147 93.33719 
L 393.649912 90.461157 
L 393.975679 87.585124 
L 394.242366 84.709091 
L 394.460612 81.833058 
L 394.639165 78.957025 
L 394.785209 76.080992 
L 394.904641 73.204959 
L 395.002295 70.328926 
L 395.082131 67.452893 
L 395.147394 64.57686 
L 395.20074 61.700826 
L 395.24434 58.824793 
L 395.279975 55.94876 
L 395.309097 53.072727 
L 395.332896 50.196694 
L 395.352345 47.320661 
L 395.368238 44.444628 
L 395.381225 41.568595 
L 395.391837 38.692562 
L 395.400508 35.816529 
L 395.407594 32.940496 
L 395.413383 30.064463 
L 395.418114 27.18843 
L 395.42198 24.312397 
L 395.425138 21.436364 
" style="fill:none;stroke:#1f77b4;stroke-linecap:square;stroke-width:1.5;"/>
   </g>
   <g id="patch_3">
    <path d="M 69.12 320.4 
L 69.12 7.2 
" style="fill:none;stroke:#000000;stroke-linecap:square;stroke-linejoin:miter;stroke-width:0.8;"/>
   </g>
   <g id="patch_4">
    <path d="M 410.963478 320.4 
L 410.963478 7.2 
" style="fill:none;stroke:#000000;stroke-linecap:square;stroke-linejoin:miter;stroke-width:0.8;"/>
   </g>
   <g id="patch_5">
    <path d="M 69.12 320.4 
L 410.963478 320.4 
" style="fill:none;stroke:#000000;stroke-linecap:square;stroke-linejoin:miter;stroke-width:0.8;"/>
   </g>
   <g id="patch_6">
    <path d="M 69.12 7.2 
L 410.963478 7.2 
" style="fill:none;stroke:#000000;stroke-linecap:square;stroke-linejoin:miter;stroke-width:0.8;"/>
   </g>
  </g>
  <g id="axes_2">
   <g id="patch_7">
    <path d="M 513.516522 320.4 
L 855.36 320.4 
L 855.36 7.2 
L 513.516522 7.2 
z
" style="fill:#ffffff;"/>
   </g>
   <g id="matplotlib.axis_3">
    <g id="xtick_6">
     <g id="line2d_30">
      <path clip-path="url(#p16f8c8891a)" d="M 529.040752 320.4 
L 529.040752 7.2 
" style="fill:none;stroke:#b0b0b0;stroke-dasharray:0.5,0.825;stroke-dashoffset:0;stroke-width:0.5;"/>
     </g>
     <g id="line2d_31">
      <g>
       <use style="stroke:#000000;stroke-width:0.8;" x="529.040752" xlink:href="#m8796431c9a" y="320.4"/>
      </g>
     </g>
     <g id="text_17">
      <!-- 0.01 -->
      <g transform="translate(516.901217 337.085876)scale(0.14 -0.14)">
       <use transform="scale(0.996264)" xlink:href="#CMSS17-48"/>
       <use transform="translate(46.843624 0)scale(0.996264)" xlink:href="#CMSS17-46"/>
       <use transform="translate(72.867828 0)scale(0.996264)" xlink:href="#CMSS17-48"/>
       <use transform="translate(119.711452 0)scale(0.996264)" xlink:href="#CMSS17-49"/>
      </g>
     </g>
    </g>
    <g id="xtick_7">
     <g id="line2d_32">
      <path clip-path="url(#p16f8c8891a)" d="M 606.739507 320.4 
L 606.739507 7.2 
" style="fill:none;stroke:#b0b0b0;stroke-dasharray:0.5,0.825;stroke-dashoffset:0;stroke-width:0.5;"/>
     </g>
     <g id="line2d_33">
      <g>
       <use style="stroke:#000000;stroke-width:0.8;" x="606.739507" xlink:href="#m8796431c9a" y="320.4"/>
      </g>
     </g>
     <g id="text_18">
      <!-- 0.1 -->
      <g transform="translate(598.014216 337.085876)scale(0.14 -0.14)">
       <use transform="scale(0.996264)" xlink:href="#CMSS17-48"/>
       <use transform="translate(46.843624 0)scale(0.996264)" xlink:href="#CMSS17-46"/>
       <use transform="translate(72.867828 0)scale(0.996264)" xlink:href="#CMSS17-49"/>
      </g>
     </g>
    </g>
    <g id="xtick_8">
     <g id="line2d_34">
      <path clip-path="url(#p16f8c8891a)" d="M 684.438261 320.4 
L 684.438261 7.2 
" style="fill:none;stroke:#b0b0b0;stroke-dasharray:0.5,0.825;stroke-dashoffset:0;stroke-width:0.5;"/>
     </g>
     <g id="line2d_35">
      <g>
       <use style="stroke:#000000;stroke-width:0.8;" x="684.438261" xlink:href="#m8796431c9a" y="320.4"/>
      </g>
     </g>
     <g id="text_19">
      <!-- 1 -->
      <g transform="translate(681.024017 337.085876)scale(0.14 -0.14)">
       <use transform="scale(0.996264)" xlink:href="#CMSS17-49"/>
      </g>
     </g>
    </g>
    <g id="xtick_9">
     <g id="line2d_36">
      <path clip-path="url(#p16f8c8891a)" d="M 762.137015 320.4 
L 762.137015 7.2 
" style="fill:none;stroke:#b0b0b0;stroke-dasharray:0.5,0.825;stroke-dashoffset:0;stroke-width:0.5;"/>
     </g>
     <g id="line2d_37">
      <g>
       <use style="stroke:#000000;stroke-width:0.8;" x="762.137015" xlink:href="#m8796431c9a" y="320.4"/>
      </g>
     </g>
     <g id="text_20">
      <!-- 10 -->
      <g transform="translate(755.308527 337.085876)scale(0.14 -0.14)">
       <use transform="scale(0.996264)" xlink:href="#CMSS17-49"/>
       <use transform="translate(46.843624 0)scale(0.996264)" xlink:href="#CMSS17-48"/>
      </g>
     </g>
    </g>
    <g id="xtick_10">
     <g id="line2d_38">
      <path clip-path="url(#p16f8c8891a)" d="M 839.83577 320.4 
L 839.83577 7.2 
" style="fill:none;stroke:#b0b0b0;stroke-dasharray:0.5,0.825;stroke-dashoffset:0;stroke-width:0.5;"/>
     </g>
     <g id="line2d_39">
      <g>
       <use style="stroke:#000000;stroke-width:0.8;" x="839.83577" xlink:href="#m8796431c9a" y="320.4"/>
      </g>
     </g>
     <g id="text_21">
      <!-- 100 -->
      <g transform="translate(829.593037 337.085876)scale(0.14 -0.14)">
       <use transform="scale(0.996264)" xlink:href="#CMSS17-49"/>
       <use transform="translate(46.843624 0)scale(0.996264)" xlink:href="#CMSS17-48"/>
       <use transform="translate(93.687247 0)scale(0.996264)" xlink:href="#CMSS17-48"/>
      </g>
     </g>
    </g>
    <g id="xtick_11">
     <g id="line2d_40">
      <defs>
       <path d="M 0 0 
L 0 2 
" id="m7725688e60" style="stroke:#000000;stroke-width:0.6;"/>
      </defs>
      <g>
       <use style="stroke:#000000;stroke-width:0.6;" x="517.005063" xlink:href="#m7725688e60" y="320.4"/>
      </g>
     </g>
    </g>
    <g id="xtick_12">
     <g id="line2d_41">
      <g>
       <use style="stroke:#000000;stroke-width:0.6;" x="521.510965" xlink:href="#m7725688e60" y="320.4"/>
      </g>
     </g>
    </g>
    <g id="xtick_13">
     <g id="line2d_42">
      <g>
       <use style="stroke:#000000;stroke-width:0.6;" x="525.485452" xlink:href="#m7725688e60" y="320.4"/>
      </g>
     </g>
    </g>
    <g id="xtick_14">
     <g id="line2d_43">
      <g>
       <use style="stroke:#000000;stroke-width:0.6;" x="552.430408" xlink:href="#m7725688e60" y="320.4"/>
      </g>
     </g>
    </g>
    <g id="xtick_15">
     <g id="line2d_44">
      <g>
       <use style="stroke:#000000;stroke-width:0.6;" x="566.112479" xlink:href="#m7725688e60" y="320.4"/>
      </g>
     </g>
    </g>
    <g id="xtick_16">
     <g id="line2d_45">
      <g>
       <use style="stroke:#000000;stroke-width:0.6;" x="575.820064" xlink:href="#m7725688e60" y="320.4"/>
      </g>
     </g>
    </g>
    <g id="xtick_17">
     <g id="line2d_46">
      <g>
       <use style="stroke:#000000;stroke-width:0.6;" x="583.349851" xlink:href="#m7725688e60" y="320.4"/>
      </g>
     </g>
    </g>
    <g id="xtick_18">
     <g id="line2d_47">
      <g>
       <use style="stroke:#000000;stroke-width:0.6;" x="589.502135" xlink:href="#m7725688e60" y="320.4"/>
      </g>
     </g>
    </g>
    <g id="xtick_19">
     <g id="line2d_48">
      <g>
       <use style="stroke:#000000;stroke-width:0.6;" x="594.703817" xlink:href="#m7725688e60" y="320.4"/>
      </g>
     </g>
    </g>
    <g id="xtick_20">
     <g id="line2d_49">
      <g>
       <use style="stroke:#000000;stroke-width:0.6;" x="599.209719" xlink:href="#m7725688e60" y="320.4"/>
      </g>
     </g>
    </g>
    <g id="xtick_21">
     <g id="line2d_50">
      <g>
       <use style="stroke:#000000;stroke-width:0.6;" x="603.184207" xlink:href="#m7725688e60" y="320.4"/>
      </g>
     </g>
    </g>
    <g id="xtick_22">
     <g id="line2d_51">
      <g>
       <use style="stroke:#000000;stroke-width:0.6;" x="630.129162" xlink:href="#m7725688e60" y="320.4"/>
      </g>
     </g>
    </g>
    <g id="xtick_23">
     <g id="line2d_52">
      <g>
       <use style="stroke:#000000;stroke-width:0.6;" x="643.811234" xlink:href="#m7725688e60" y="320.4"/>
      </g>
     </g>
    </g>
    <g id="xtick_24">
     <g id="line2d_53">
      <g>
       <use style="stroke:#000000;stroke-width:0.6;" x="653.518818" xlink:href="#m7725688e60" y="320.4"/>
      </g>
     </g>
    </g>
    <g id="xtick_25">
     <g id="line2d_54">
      <g>
       <use style="stroke:#000000;stroke-width:0.6;" x="661.048605" xlink:href="#m7725688e60" y="320.4"/>
      </g>
     </g>
    </g>
    <g id="xtick_26">
     <g id="line2d_55">
      <g>
       <use style="stroke:#000000;stroke-width:0.6;" x="667.200889" xlink:href="#m7725688e60" y="320.4"/>
      </g>
     </g>
    </g>
    <g id="xtick_27">
     <g id="line2d_56">
      <g>
       <use style="stroke:#000000;stroke-width:0.6;" x="672.402572" xlink:href="#m7725688e60" y="320.4"/>
      </g>
     </g>
    </g>
    <g id="xtick_28">
     <g id="line2d_57">
      <g>
       <use style="stroke:#000000;stroke-width:0.6;" x="676.908474" xlink:href="#m7725688e60" y="320.4"/>
      </g>
     </g>
    </g>
    <g id="xtick_29">
     <g id="line2d_58">
      <g>
       <use style="stroke:#000000;stroke-width:0.6;" x="680.882961" xlink:href="#m7725688e60" y="320.4"/>
      </g>
     </g>
    </g>
    <g id="xtick_30">
     <g id="line2d_59">
      <g>
       <use style="stroke:#000000;stroke-width:0.6;" x="707.827917" xlink:href="#m7725688e60" y="320.4"/>
      </g>
     </g>
    </g>
    <g id="xtick_31">
     <g id="line2d_60">
      <g>
       <use style="stroke:#000000;stroke-width:0.6;" x="721.509988" xlink:href="#m7725688e60" y="320.4"/>
      </g>
     </g>
    </g>
    <g id="xtick_32">
     <g id="line2d_61">
      <g>
       <use style="stroke:#000000;stroke-width:0.6;" x="731.217572" xlink:href="#m7725688e60" y="320.4"/>
      </g>
     </g>
    </g>
    <g id="xtick_33">
     <g id="line2d_62">
      <g>
       <use style="stroke:#000000;stroke-width:0.6;" x="738.74736" xlink:href="#m7725688e60" y="320.4"/>
      </g>
     </g>
    </g>
    <g id="xtick_34">
     <g id="line2d_63">
      <g>
       <use style="stroke:#000000;stroke-width:0.6;" x="744.899644" xlink:href="#m7725688e60" y="320.4"/>
      </g>
     </g>
    </g>
    <g id="xtick_35">
     <g id="line2d_64">
      <g>
       <use style="stroke:#000000;stroke-width:0.6;" x="750.101326" xlink:href="#m7725688e60" y="320.4"/>
      </g>
     </g>
    </g>
    <g id="xtick_36">
     <g id="line2d_65">
      <g>
       <use style="stroke:#000000;stroke-width:0.6;" x="754.607228" xlink:href="#m7725688e60" y="320.4"/>
      </g>
     </g>
    </g>
    <g id="xtick_37">
     <g id="line2d_66">
      <g>
       <use style="stroke:#000000;stroke-width:0.6;" x="758.581715" xlink:href="#m7725688e60" y="320.4"/>
      </g>
     </g>
    </g>
    <g id="xtick_38">
     <g id="line2d_67">
      <g>
       <use style="stroke:#000000;stroke-width:0.6;" x="785.526671" xlink:href="#m7725688e60" y="320.4"/>
      </g>
     </g>
    </g>
    <g id="xtick_39">
     <g id="line2d_68">
      <g>
       <use style="stroke:#000000;stroke-width:0.6;" x="799.208742" xlink:href="#m7725688e60" y="320.4"/>
      </g>
     </g>
    </g>
    <g id="xtick_40">
     <g id="line2d_69">
      <g>
       <use style="stroke:#000000;stroke-width:0.6;" x="808.916327" xlink:href="#m7725688e60" y="320.4"/>
      </g>
     </g>
    </g>
    <g id="xtick_41">
     <g id="line2d_70">
      <g>
       <use style="stroke:#000000;stroke-width:0.6;" x="816.446114" xlink:href="#m7725688e60" y="320.4"/>
      </g>
     </g>
    </g>
    <g id="xtick_42">
     <g id="line2d_71">
      <g>
       <use style="stroke:#000000;stroke-width:0.6;" x="822.598398" xlink:href="#m7725688e60" y="320.4"/>
      </g>
     </g>
    </g>
    <g id="xtick_43">
     <g id="line2d_72">
      <g>
       <use style="stroke:#000000;stroke-width:0.6;" x="827.80008" xlink:href="#m7725688e60" y="320.4"/>
      </g>
     </g>
    </g>
    <g id="xtick_44">
     <g id="line2d_73">
      <g>
       <use style="stroke:#000000;stroke-width:0.6;" x="832.305982" xlink:href="#m7725688e60" y="320.4"/>
      </g>
     </g>
    </g>
    <g id="xtick_45">
     <g id="line2d_74">
      <g>
       <use style="stroke:#000000;stroke-width:0.6;" x="836.280469" xlink:href="#m7725688e60" y="320.4"/>
      </g>
     </g>
    </g>
    <g id="text_22">
     <!-- $q_\textsf{aspect}(\textsf{model})$ -->
     <defs>
      <path d="M 37.59375 27.984375 
C 37.59375 37.375 30.90625 43.875 21.90625 43.875 
C 17.5 43.875 12.703125 43.078125 7.203125 39.890625 
L 7.796875 33.359375 
C 10.296875 35.125 14.59375 38 21.796875 38 
C 26.90625 38 30 34.0625 30 27.84375 
L 30 24 
C 14 24 4 19.34375 4 11.34375 
C 4 7.203125 6.5 -1 14.796875 -1 
C 16.296875 -1 24.40625 -1 30.203125 3.390625 
L 30.203125 -0.296875 
L 37.59375 -0.296875 
z
M 30 12.75 
C 30 10.953125 30 8.5625 27 6.78125 
C 24.40625 5.078125 21.09375 5.078125 19.703125 5.078125 
C 14.703125 5.078125 11.296875 7.984375 11.296875 11.625 
C 11.296875 18.921875 26.90625 18.921875 30 18.921875 
z
" id="CMSS17-97"/>
      <path d="M 32.203125 41.046875 
C 26.296875 43.859375 21.703125 43.859375 18.703125 43.859375 
C 11.59375 43.859375 3.09375 41.375 3.09375 31.296875 
C 3.09375 21.234375 14.09375 19.03125 17.09375 18.421875 
C 21.703125 17.53125 26.796875 16.53125 26.796875 11.5625 
C 26.796875 5.265625 19.59375 5.265625 18.296875 5.265625 
C 14.296875 5.265625 8.796875 6.359375 3.796875 9.96875 
L 2.59375 3.28125 
C 8.296875 0 13.796875 -1 18.40625 -1 
C 30.703125 -1 33.796875 6.5 33.796875 12.203125 
C 33.796875 17.09375 31 20.390625 29.09375 21.890625 
C 25.796875 24.5 24.59375 24.796875 16.40625 26.5 
C 15 26.703125 10.09375 27.796875 10.09375 32.28125 
C 10.09375 38 16.40625 38 17.796875 38 
C 24.296875 38 28.296875 35.984375 31 34.5 
z
" id="CMSS17-115"/>
      <path d="M 15.09375 5.203125 
C 18.40625 2.015625 22.90625 -0.078125 27.703125 -0.078125 
C 37 -0.078125 45 9.421875 45 22.0625 
C 45 33.734375 39 44 30.40625 44 
C 25.40625 44 19.40625 42.21875 14.90625 38.625 
L 14.90625 43.203125 
L 7.5 43.203125 
L 7.5 -19 
L 15.09375 -19 
z
M 15.09375 32.8125 
C 15.90625 34 19.296875 37.734375 24.796875 37.734375 
C 31.796875 37.734375 37.40625 30.625 37.40625 22.0625 
C 37.40625 12.296875 30.59375 6 23.90625 6 
C 21.90625 6 19.796875 6.484375 17.796875 8.171875 
C 15.09375 10.53125 15.09375 12 15.09375 13.390625 
z
" id="CMSS17-112"/>
      <path d="M 38.5 39.703125 
C 38.5 40.390625 33.90625 42.40625 32.703125 42.796875 
C 29.40625 44 25.203125 44 24.09375 44 
C 11.09375 44 3.296875 32.703125 3.296875 21.296875 
C 3.296875 9.296875 12 -1 23.703125 -1 
C 30.40625 -1 35.203125 1.1875 39.09375 3.78125 
L 38.5 10.375 
C 34.203125 7.078125 29.203125 5.265625 23.796875 5.265625 
C 16 5.265625 10.90625 12.09375 10.90625 21.390625 
C 10.90625 28.609375 14.203125 37.71875 24.203125 37.71875 
C 29.703125 37.71875 32.796875 36.609375 37.40625 33.515625 
z
" id="CMSS17-99"/>
      <path d="M 16.703125 37 
L 29.703125 37 
L 29.703125 42.765625 
L 16.703125 42.765625 
L 16.703125 55 
L 9.59375 55 
L 9.59375 42.765625 
L 1.703125 42.765625 
L 1.703125 37 
L 9.40625 37 
L 9.40625 11.703125 
C 9.40625 6 10.703125 -1 17.296875 -1 
C 22.296875 -1 26.90625 0.390625 31.296875 2.6875 
L 29.703125 8.5625 
C 27.296875 6.46875 24.40625 5.265625 21.296875 5.265625 
C 16.90625 5.265625 16.703125 10.875 16.703125 13.375 
z
" id="CMSS17-116"/>
     </defs>
     <g transform="translate(639.687376 357.214253)scale(0.16 -0.16)">
      <use transform="translate(0 14.943915)scale(0.996264)" xlink:href="#CMSSI17-113"/>
      <use transform="translate(48.204943 0)scale(0.697382)" xlink:href="#CMSS17-97"/>
      <use transform="translate(79.650149 0)scale(0.697382)" xlink:href="#CMSS17-115"/>
      <use transform="translate(104.789519 0)scale(0.697382)" xlink:href="#CMSS17-112"/>
      <use transform="translate(140.35453 0)scale(0.697382)" xlink:href="#CMSS17-101"/>
      <use transform="translate(169.501576 0)scale(0.697382)" xlink:href="#CMSS17-99"/>
      <use transform="translate(198.648622 0)scale(0.697382)" xlink:href="#CMSS17-116"/>
      <use transform="translate(222.828745 14.943915)scale(0.996264)" xlink:href="#CMSS17-40"/>
      <use transform="translate(259.262659 14.943915)scale(0.996264)" xlink:href="#CMSS17-109"/>
      <use transform="translate(333.491913 14.943915)scale(0.996264)" xlink:href="#CMSS17-111"/>
      <use transform="translate(382.937976 14.943915)scale(0.996264)" xlink:href="#CMSS17-100"/>
      <use transform="translate(431.142919 14.943915)scale(0.996264)" xlink:href="#CMSS17-101"/>
      <use transform="translate(472.781741 14.943915)scale(0.996264)" xlink:href="#CMSS17-108"/>
      <use transform="translate(494.962464 14.943915)scale(0.996264)" xlink:href="#CMSS17-41"/>
     </g>
    </g>
   </g>
   <g id="matplotlib.axis_4">
    <g id="ytick_10">
     <g id="line2d_75">
      <path clip-path="url(#p16f8c8891a)" d="M 513.516522 306.163636 
L 855.36 306.163636 
" style="fill:none;stroke:#b0b0b0;stroke-dasharray:0.5,0.825;stroke-dashoffset:0;stroke-width:0.5;"/>
     </g>
     <g id="line2d_76">
      <g>
       <use style="stroke:#000000;stroke-width:0.8;" x="513.516522" xlink:href="#m10dcad2177" y="306.163636"/>
      </g>
     </g>
     <g id="text_23">
      <!-- $-10.0$ -->
      <g transform="translate(471.389216 311.006575)scale(0.14 -0.14)">
       <use transform="scale(0.996264)" xlink:href="#CMSY10-0"/>
       <use transform="translate(77.487468 0)scale(0.996264)" xlink:href="#CMSS17-49"/>
       <use transform="translate(124.331091 0)scale(0.996264)" xlink:href="#CMSS17-48"/>
       <use transform="translate(171.174715 0)scale(0.996264)" xlink:href="#CMSS17-46"/>
       <use transform="translate(197.19892 0)scale(0.996264)" xlink:href="#CMSS17-48"/>
      </g>
     </g>
    </g>
    <g id="ytick_11">
     <g id="line2d_77">
      <path clip-path="url(#p16f8c8891a)" d="M 513.516522 270.572727 
L 855.36 270.572727 
" style="fill:none;stroke:#b0b0b0;stroke-dasharray:0.5,0.825;stroke-dashoffset:0;stroke-width:0.5;"/>
     </g>
     <g id="line2d_78">
      <g>
       <use style="stroke:#000000;stroke-width:0.8;" x="513.516522" xlink:href="#m10dcad2177" y="270.572727"/>
      </g>
     </g>
     <g id="text_24">
      <!-- $-7.5$ -->
      <g transform="translate(478.217705 275.415665)scale(0.14 -0.14)">
       <use transform="scale(0.996264)" xlink:href="#CMSY10-0"/>
       <use transform="translate(77.487468 0)scale(0.996264)" xlink:href="#CMSS17-55"/>
       <use transform="translate(124.331091 0)scale(0.996264)" xlink:href="#CMSS17-46"/>
       <use transform="translate(150.355296 0)scale(0.996264)" xlink:href="#CMSS17-53"/>
      </g>
     </g>
    </g>
    <g id="ytick_12">
     <g id="line2d_79">
      <path clip-path="url(#p16f8c8891a)" d="M 513.516522 234.981818 
L 855.36 234.981818 
" style="fill:none;stroke:#b0b0b0;stroke-dasharray:0.5,0.825;stroke-dashoffset:0;stroke-width:0.5;"/>
     </g>
     <g id="line2d_80">
      <g>
       <use style="stroke:#000000;stroke-width:0.8;" x="513.516522" xlink:href="#m10dcad2177" y="234.981818"/>
      </g>
     </g>
     <g id="text_25">
      <!-- $-5.0$ -->
      <g transform="translate(478.217705 239.824756)scale(0.14 -0.14)">
       <use transform="scale(0.996264)" xlink:href="#CMSY10-0"/>
       <use transform="translate(77.487468 0)scale(0.996264)" xlink:href="#CMSS17-53"/>
       <use transform="translate(124.331091 0)scale(0.996264)" xlink:href="#CMSS17-46"/>
       <use transform="translate(150.355296 0)scale(0.996264)" xlink:href="#CMSS17-48"/>
      </g>
     </g>
    </g>
    <g id="ytick_13">
     <g id="line2d_81">
      <path clip-path="url(#p16f8c8891a)" d="M 513.516522 199.390909 
L 855.36 199.390909 
" style="fill:none;stroke:#b0b0b0;stroke-dasharray:0.5,0.825;stroke-dashoffset:0;stroke-width:0.5;"/>
     </g>
     <g id="line2d_82">
      <g>
       <use style="stroke:#000000;stroke-width:0.8;" x="513.516522" xlink:href="#m10dcad2177" y="199.390909"/>
      </g>
     </g>
     <g id="text_26">
      <!-- $-2.5$ -->
      <g transform="translate(478.217705 204.233847)scale(0.14 -0.14)">
       <use transform="scale(0.996264)" xlink:href="#CMSY10-0"/>
       <use transform="translate(77.487468 0)scale(0.996264)" xlink:href="#CMSS17-50"/>
       <use transform="translate(124.331091 0)scale(0.996264)" xlink:href="#CMSS17-46"/>
       <use transform="translate(150.355296 0)scale(0.996264)" xlink:href="#CMSS17-53"/>
      </g>
     </g>
    </g>
    <g id="ytick_14">
     <g id="line2d_83">
      <path clip-path="url(#p16f8c8891a)" d="M 513.516522 163.8 
L 855.36 163.8 
" style="fill:none;stroke:#b0b0b0;stroke-dasharray:0.5,0.825;stroke-dashoffset:0;stroke-width:0.5;"/>
     </g>
     <g id="line2d_84">
      <g>
       <use style="stroke:#000000;stroke-width:0.8;" x="513.516522" xlink:href="#m10dcad2177" y="163.8"/>
      </g>
     </g>
     <g id="text_27">
      <!-- $0.0$ -->
      <g transform="translate(489.06594 168.642938)scale(0.14 -0.14)">
       <use transform="scale(0.996264)" xlink:href="#CMSS17-48"/>
       <use transform="translate(46.843624 0)scale(0.996264)" xlink:href="#CMSS17-46"/>
       <use transform="translate(72.867828 0)scale(0.996264)" xlink:href="#CMSS17-48"/>
      </g>
     </g>
    </g>
    <g id="ytick_15">
     <g id="line2d_85">
      <path clip-path="url(#p16f8c8891a)" d="M 513.516522 128.209091 
L 855.36 128.209091 
" style="fill:none;stroke:#b0b0b0;stroke-dasharray:0.5,0.825;stroke-dashoffset:0;stroke-width:0.5;"/>
     </g>
     <g id="line2d_86">
      <g>
       <use style="stroke:#000000;stroke-width:0.8;" x="513.516522" xlink:href="#m10dcad2177" y="128.209091"/>
      </g>
     </g>
     <g id="text_28">
      <!-- $2.5$ -->
      <g transform="translate(489.06594 133.052029)scale(0.14 -0.14)">
       <use transform="scale(0.996264)" xlink:href="#CMSS17-50"/>
       <use transform="translate(46.843624 0)scale(0.996264)" xlink:href="#CMSS17-46"/>
       <use transform="translate(72.867828 0)scale(0.996264)" xlink:href="#CMSS17-53"/>
      </g>
     </g>
    </g>
    <g id="ytick_16">
     <g id="line2d_87">
      <path clip-path="url(#p16f8c8891a)" d="M 513.516522 92.618182 
L 855.36 92.618182 
" style="fill:none;stroke:#b0b0b0;stroke-dasharray:0.5,0.825;stroke-dashoffset:0;stroke-width:0.5;"/>
     </g>
     <g id="line2d_88">
      <g>
       <use style="stroke:#000000;stroke-width:0.8;" x="513.516522" xlink:href="#m10dcad2177" y="92.618182"/>
      </g>
     </g>
     <g id="text_29">
      <!-- $5.0$ -->
      <g transform="translate(489.06594 97.46112)scale(0.14 -0.14)">
       <use transform="scale(0.996264)" xlink:href="#CMSS17-53"/>
       <use transform="translate(46.843624 0)scale(0.996264)" xlink:href="#CMSS17-46"/>
       <use transform="translate(72.867828 0)scale(0.996264)" xlink:href="#CMSS17-48"/>
      </g>
     </g>
    </g>
    <g id="ytick_17">
     <g id="line2d_89">
      <path clip-path="url(#p16f8c8891a)" d="M 513.516522 57.027273 
L 855.36 57.027273 
" style="fill:none;stroke:#b0b0b0;stroke-dasharray:0.5,0.825;stroke-dashoffset:0;stroke-width:0.5;"/>
     </g>
     <g id="line2d_90">
      <g>
       <use style="stroke:#000000;stroke-width:0.8;" x="513.516522" xlink:href="#m10dcad2177" y="57.027273"/>
      </g>
     </g>
     <g id="text_30">
      <!-- $7.5$ -->
      <g transform="translate(489.06594 61.870211)scale(0.14 -0.14)">
       <use transform="scale(0.996264)" xlink:href="#CMSS17-55"/>
       <use transform="translate(46.843624 0)scale(0.996264)" xlink:href="#CMSS17-46"/>
       <use transform="translate(72.867828 0)scale(0.996264)" xlink:href="#CMSS17-53"/>
      </g>
     </g>
    </g>
    <g id="ytick_18">
     <g id="line2d_91">
      <path clip-path="url(#p16f8c8891a)" d="M 513.516522 21.436364 
L 855.36 21.436364 
" style="fill:none;stroke:#b0b0b0;stroke-dasharray:0.5,0.825;stroke-dashoffset:0;stroke-width:0.5;"/>
     </g>
     <g id="line2d_92">
      <g>
       <use style="stroke:#000000;stroke-width:0.8;" x="513.516522" xlink:href="#m10dcad2177" y="21.436364"/>
      </g>
     </g>
     <g id="text_31">
      <!-- $10.0$ -->
      <g transform="translate(482.237451 26.279302)scale(0.14 -0.14)">
       <use transform="scale(0.996264)" xlink:href="#CMSS17-49"/>
       <use transform="translate(46.843624 0)scale(0.996264)" xlink:href="#CMSS17-48"/>
       <use transform="translate(93.687247 0)scale(0.996264)" xlink:href="#CMSS17-46"/>
       <use transform="translate(119.711452 0)scale(0.996264)" xlink:href="#CMSS17-48"/>
      </g>
     </g>
    </g>
    <g id="text_32">
     <!-- $Q_\textsf{aspect}(\textsf{engine})$ -->
     <g transform="translate(464.28974 211.387439)rotate(-90)scale(0.16 -0.16)">
      <use transform="translate(0 14.943915)scale(0.996264)" xlink:href="#CMSSI17-81"/>
      <use transform="translate(69.024271 0)scale(0.697382)" xlink:href="#CMSS17-97"/>
      <use transform="translate(100.469477 0)scale(0.697382)" xlink:href="#CMSS17-115"/>
      <use transform="translate(125.608847 0)scale(0.697382)" xlink:href="#CMSS17-112"/>
      <use transform="translate(161.173857 0)scale(0.697382)" xlink:href="#CMSS17-101"/>
      <use transform="translate(190.320904 0)scale(0.697382)" xlink:href="#CMSS17-99"/>
      <use transform="translate(219.46795 0)scale(0.697382)" xlink:href="#CMSS17-116"/>
      <use transform="translate(243.648072 14.943915)scale(0.996264)" xlink:href="#CMSS17-40"/>
      <use transform="translate(280.081986 14.943915)scale(0.996264)" xlink:href="#CMSS17-101"/>
      <use transform="translate(321.720808 14.943915)scale(0.996264)" xlink:href="#CMSS17-110"/>
      <use transform="translate(369.925751 14.943915)scale(0.996264)" xlink:href="#CMSS17-103"/>
      <use transform="translate(416.769375 14.943915)scale(0.996264)" xlink:href="#CMSS17-105"/>
      <use transform="translate(438.950098 14.943915)scale(0.996264)" xlink:href="#CMSS17-110"/>
      <use transform="translate(487.155041 14.943915)scale(0.996264)" xlink:href="#CMSS17-101"/>
      <use transform="translate(528.793863 14.943915)scale(0.996264)" xlink:href="#CMSS17-41"/>
     </g>
    </g>
   </g>
   <g id="line2d_93">
    <path clip-path="url(#p16f8c8891a)" d="M 529.054862 306.163636 
L 529.05802 303.287603 
L 529.061886 300.41157 
L 529.066617 297.535537 
L 529.072406 294.659504 
L 529.079492 291.783471 
L 529.088163 288.907438 
L 529.098775 286.031405 
L 529.111762 283.155372 
L 529.127655 280.279339 
L 529.147104 277.403306 
L 529.170903 274.527273 
L 529.200025 271.65124 
L 529.23566 268.775207 
L 529.27926 265.899174 
L 529.332606 263.02314 
L 529.397869 260.147107 
L 529.477705 257.271074 
L 529.575359 254.395041 
L 529.694791 251.519008 
L 529.840835 248.642975 
L 530.019388 245.766942 
L 530.237634 242.890909 
L 530.504321 240.014876 
L 530.830088 237.138843 
L 531.227853 234.26281 
L 531.713274 231.386777 
L 532.305295 228.510744 
L 533.026764 225.634711 
L 533.905156 222.758678 
L 534.973376 219.882645 
L 536.270632 217.006612 
L 537.843363 214.130579 
L 539.746147 211.254545 
L 542.042532 208.378512 
L 544.805631 205.502479 
L 548.118316 202.626446 
L 552.072757 199.750413 
L 556.76897 196.87438 
L 562.312026 193.998347 
L 568.807505 191.122314 
L 576.354888 188.246281 
L 585.03874 185.370248 
L 594.9179 182.494215 
L 606.013428 179.618182 
L 618.296699 176.742149 
L 631.679697 173.866116 
L 646.009861 170.990083 
L 661.071718 168.11405 
L 676.596568 165.238017 
L 692.279954 162.361983 
L 707.804804 159.48595 
L 722.866661 156.609917 
L 737.196825 153.733884 
L 750.579822 150.857851 
L 762.863094 147.981818 
L 773.958621 145.105785 
L 783.837782 142.229752 
L 792.521634 139.353719 
L 800.069017 136.477686 
L 806.564496 133.601653 
L 812.107552 130.72562 
L 816.803765 127.849587 
L 820.758206 124.973554 
L 824.070891 122.097521 
L 826.833989 119.221488 
L 829.130374 116.345455 
L 831.033159 113.469421 
L 832.605889 110.593388 
L 833.903146 107.717355 
L 834.971366 104.841322 
L 835.849758 101.965289 
L 836.571227 99.089256 
L 837.163247 96.213223 
L 837.648669 93.33719 
L 838.046434 90.461157 
L 838.3722 87.585124 
L 838.638888 84.709091 
L 838.857134 81.833058 
L 839.035687 78.957025 
L 839.181731 76.080992 
L 839.301163 73.204959 
L 839.398817 70.328926 
L 839.478653 67.452893 
L 839.543916 64.57686 
L 839.597261 61.700826 
L 839.640862 58.824793 
L 839.676497 55.94876 
L 839.705619 53.072727 
L 839.729418 50.196694 
L 839.748867 47.320661 
L 839.764759 44.444628 
L 839.777746 41.568595 
L 839.788358 38.692562 
L 839.79703 35.816529 
L 839.804115 32.940496 
L 839.809905 30.064463 
L 839.814636 27.18843 
L 839.818502 24.312397 
L 839.82166 21.436364 
" style="fill:none;stroke:#1f77b4;stroke-linecap:square;stroke-width:1.5;"/>
   </g>
   <g id="patch_8">
    <path d="M 513.516522 320.4 
L 513.516522 7.2 
" style="fill:none;stroke:#000000;stroke-linecap:square;stroke-linejoin:miter;stroke-width:0.8;"/>
   </g>
   <g id="patch_9">
    <path d="M 855.36 320.4 
L 855.36 7.2 
" style="fill:none;stroke:#000000;stroke-linecap:square;stroke-linejoin:miter;stroke-width:0.8;"/>
   </g>
   <g id="patch_10">
    <path d="M 513.516522 320.4 
L 855.36 320.4 
" style="fill:none;stroke:#000000;stroke-linecap:square;stroke-linejoin:miter;stroke-width:0.8;"/>
   </g>
   <g id="patch_11">
    <path d="M 513.516522 7.2 
L 855.36 7.2 
" style="fill:none;stroke:#000000;stroke-linecap:square;stroke-linejoin:miter;stroke-width:0.8;"/>
   </g>
  </g>
 </g>
 <defs>
  <clipPath id="p6a6c20fd53">
   <rect height="313.2" width="341.843478" x="69.12" y="7.2"/>
  </clipPath>
  <clipPath id="p16f8c8891a">
   <rect height="313.2" width="341.843478" x="513.516522" y="7.2"/>
  </clipPath>
 </defs>
</svg>
