<?xml version="1.0" encoding="UTF-8"?>
<svg version="1.1" viewBox="0 0 812 533.33" xml:space="preserve" xmlns="http://www.w3.org/2000/svg"><defs><clipPath id="clipPath20"><path d="m0 400v-400h609v400z"/></clipPath><clipPath id="clipPath28"><path d="m49 392h554v-352h-554z"/></clipPath><clipPath id="clipPath36"><path d="m0 400v-400h609v400z"/></clipPath><clipPath id="clipPath44"><path d="m49 392v-352h554v352z"/></clipPath><clipPath id="clipPath50"><path d="m49 392h554v-352h-554z"/></clipPath><clipPath id="clipPath468"><path d="m0 400v-400h609v400z"/></clipPath></defs><g transform="matrix(1.3333 0 0 -1.3333 0 533.33)"><g clip-path="url(#clipPath20)"><g clip-path="url(#clipPath28)"><g clip-path="url(#clipPath36)"><g clip-path="url(#clipPath44)"><g clip-path="url(#clipPath50)"><path d="m49 392h554v-352h-554z" fill="#fff"/><path d="m-2.1475e9 400v-360" fill="none" stroke="#0000f0" stroke-linecap="square" stroke-miterlimit="10" stroke-opacity=".50196" stroke-width="2"/><path d="m62 40v144" fill="none" stroke="#0000f0" stroke-linecap="square" stroke-miterlimit="10" stroke-opacity=".50196" stroke-width="2"/><path d="m62 184h13v-145h-13z" fill="#0000f0" fill-opacity=".25098"/><path d="m62 184h13" fill="none" stroke="#0000f0" stroke-linecap="square" stroke-miterlimit="10" stroke-opacity=".50196" stroke-width="2"/><path d="m75 184v-95" fill="none" stroke="#0000f0" stroke-linecap="square" stroke-miterlimit="10" stroke-opacity=".50196" stroke-width="2"/><path d="m75 89h13v-50h-13z" fill="#0000f0" fill-opacity=".25098"/><path d="m75 89h13" fill="none" stroke="#0000f0" stroke-linecap="square" stroke-miterlimit="10" stroke-opacity=".50196" stroke-width="2"/><path d="m88 89v22" fill="none" stroke="#0000f0" stroke-linecap="square" stroke-miterlimit="10" stroke-opacity=".50196" stroke-width="2"/><path d="m88 111h13v-72h-13z" fill="#0000f0" fill-opacity=".25098"/><path d="m88 111h13" fill="none" stroke="#0000f0" stroke-linecap="square" stroke-miterlimit="10" stroke-opacity=".50196" stroke-width="2"/><path d="m101 111v-30" fill="none" stroke="#0000f0" stroke-linecap="square" stroke-miterlimit="10" stroke-opacity=".50196" stroke-width="2"/><path d="m101 81h13v-42h-13z" fill="#0000f0" fill-opacity=".25098"/><path d="m101 81h13" fill="none" stroke="#0000f0" stroke-linecap="square" stroke-miterlimit="10" stroke-opacity=".50196" stroke-width="2"/><path d="m114 81v22" fill="none" stroke="#0000f0" stroke-linecap="square" stroke-miterlimit="10" stroke-opacity=".50196" stroke-width="2"/><path d="m114 103h14v-64h-14z" fill="#0000f0" fill-opacity=".25098"/><path d="m114 103h14" fill="none" stroke="#0000f0" stroke-linecap="square" stroke-miterlimit="10" stroke-opacity=".50196" stroke-width="2"/><path d="m128 103v-6" fill="none" stroke="#0000f0" stroke-linecap="square" stroke-miterlimit="10" stroke-opacity=".50196" stroke-width="2"/><path d="m128 97h13v-58h-13z" fill="#0000f0" fill-opacity=".25098"/><path d="m128 97h13" fill="none" stroke="#0000f0" stroke-linecap="square" stroke-miterlimit="10" stroke-opacity=".50196" stroke-width="2"/><path d="m141 97v-5" fill="none" stroke="#0000f0" stroke-linecap="square" stroke-miterlimit="10" stroke-opacity=".50196" stroke-width="2"/><path d="m141 92h13v-53h-13z" fill="#0000f0" fill-opacity=".25098"/><path d="m141 92h13" fill="none" stroke="#0000f0" stroke-linecap="square" stroke-miterlimit="10" stroke-opacity=".50196" stroke-width="2"/><path d="m154 92v19" fill="none" stroke="#0000f0" stroke-linecap="square" stroke-miterlimit="10" stroke-opacity=".50196" stroke-width="2"/><path d="m154 111h13v-72h-13z" fill="#0000f0" fill-opacity=".25098"/><path d="m154 111h13" fill="none" stroke="#0000f0" stroke-linecap="square" stroke-miterlimit="10" stroke-opacity=".50196" stroke-width="2"/><path d="m167 111v22" fill="none" stroke="#0000f0" stroke-linecap="square" stroke-miterlimit="10" stroke-opacity=".50196" stroke-width="2"/><path d="m167 133h13v-94h-13z" fill="#0000f0" fill-opacity=".25098"/><path d="m167 133h13" fill="none" stroke="#0000f0" stroke-linecap="square" stroke-miterlimit="10" stroke-opacity=".50196" stroke-width="2"/><path d="m180 133v-6" fill="none" stroke="#0000f0" stroke-linecap="square" stroke-miterlimit="10" stroke-opacity=".50196" stroke-width="2"/><path d="m180 127h14v-88h-14z" fill="#0000f0" fill-opacity=".25098"/><path d="m180 127h14" fill="none" stroke="#0000f0" stroke-linecap="square" stroke-miterlimit="10" stroke-opacity=".50196" stroke-width="2"/><path d="m194 127v-51" fill="none" stroke="#0000f0" stroke-linecap="square" stroke-miterlimit="10" stroke-opacity=".50196" stroke-width="2"/><path d="m194 76h13v-37h-13z" fill="#0000f0" fill-opacity=".25098"/><path d="m194 76h13" fill="none" stroke="#0000f0" stroke-linecap="square" stroke-miterlimit="10" stroke-opacity=".50196" stroke-width="2"/><path d="m207 76v-14" fill="none" stroke="#0000f0" stroke-linecap="square" stroke-miterlimit="10" stroke-opacity=".50196" stroke-width="2"/><path d="m207 62h13v-23h-13z" fill="#0000f0" fill-opacity=".25098"/><path d="m207 62h13" fill="none" stroke="#0000f0" stroke-linecap="square" stroke-miterlimit="10" stroke-opacity=".50196" stroke-width="2"/><path d="m220 62v-8" fill="none" stroke="#0000f0" stroke-linecap="square" stroke-miterlimit="10" stroke-opacity=".50196" stroke-width="2"/><path d="m220 54h13v-15h-13z" fill="#0000f0" fill-opacity=".25098"/><path d="m220 54h13" fill="none" stroke="#0000f0" stroke-linecap="square" stroke-miterlimit="10" stroke-opacity=".50196" stroke-width="2"/><path d="m233 54v5" fill="none" stroke="#0000f0" stroke-linecap="square" stroke-miterlimit="10" stroke-opacity=".50196" stroke-width="2"/><path d="m233 59h13v-20h-13z" fill="#0000f0" fill-opacity=".25098"/><path d="m233 59h13" fill="none" stroke="#0000f0" stroke-linecap="square" stroke-miterlimit="10" stroke-opacity=".50196" stroke-width="2"/><path d="m246 59v11" fill="none" stroke="#0000f0" stroke-linecap="square" stroke-miterlimit="10" stroke-opacity=".50196" stroke-width="2"/><path d="m246 70h14v-31h-14z" fill="#0000f0" fill-opacity=".25098"/><path d="m246 70h14" fill="none" stroke="#0000f0" stroke-linecap="square" stroke-miterlimit="10" stroke-opacity=".50196" stroke-width="2"/><path d="m260 70v-16" fill="none" stroke="#0000f0" stroke-linecap="square" stroke-miterlimit="10" stroke-opacity=".50196" stroke-width="2"/><path d="m260 54h13v-15h-13z" fill="#0000f0" fill-opacity=".25098"/><path d="m260 54h13" fill="none" stroke="#0000f0" stroke-linecap="square" stroke-miterlimit="10" stroke-opacity=".50196" stroke-width="2"/><path d="m273 54v-11" fill="none" stroke="#0000f0" stroke-linecap="square" stroke-miterlimit="10" stroke-opacity=".50196" stroke-width="2"/><path d="m273 43h13v-4h-13z" fill="#0000f0" fill-opacity=".25098"/><path d="m273 43h13" fill="none" stroke="#0000f0" stroke-linecap="square" stroke-miterlimit="10" stroke-opacity=".50196" stroke-width="2"/><path d="m286 43v8" fill="none" stroke="#0000f0" stroke-linecap="square" stroke-miterlimit="10" stroke-opacity=".50196" stroke-width="2"/><path d="m286 51h13v-12h-13z" fill="#0000f0" fill-opacity=".25098"/><path d="m286 51h13" fill="none" stroke="#0000f0" stroke-linecap="square" stroke-miterlimit="10" stroke-opacity=".50196" stroke-width="2"/><path d="m299 51v6" fill="none" stroke="#0000f0" stroke-linecap="square" stroke-miterlimit="10" stroke-opacity=".50196" stroke-width="2"/><path d="m299 57h13v-18h-13z" fill="#0000f0" fill-opacity=".25098"/><path d="m299 57h13" fill="none" stroke="#0000f0" stroke-linecap="square" stroke-miterlimit="10" stroke-opacity=".50196" stroke-width="2"/><path d="m312 57v-3" fill="none" stroke="#0000f0" stroke-linecap="square" stroke-miterlimit="10" stroke-opacity=".50196" stroke-width="2"/><path d="m312 54h14v-15h-14z" fill="#0000f0" fill-opacity=".25098"/><path d="m312 54h14" fill="none" stroke="#0000f0" stroke-linecap="square" stroke-miterlimit="10" stroke-opacity=".50196" stroke-width="2"/><path d="m326 54v0" fill="none" stroke="#0000f0" stroke-linecap="square" stroke-miterlimit="10" stroke-opacity=".50196" stroke-width="2"/><path d="m326 54h13v-15h-13z" fill="#0000f0" fill-opacity=".25098"/><path d="m326 54h13" fill="none" stroke="#0000f0" stroke-linecap="square" stroke-miterlimit="10" stroke-opacity=".50196" stroke-width="2"/><path d="m339 54v0" fill="none" stroke="#0000f0" stroke-linecap="square" stroke-miterlimit="10" stroke-opacity=".50196" stroke-width="2"/><path d="m339 54h13v-15h-13z" fill="#0000f0" fill-opacity=".25098"/><path d="m339 54h13" fill="none" stroke="#0000f0" stroke-linecap="square" stroke-miterlimit="10" stroke-opacity=".50196" stroke-width="2"/><path d="m352 54v0" fill="none" stroke="#0000f0" stroke-linecap="square" stroke-miterlimit="10" stroke-opacity=".50196" stroke-width="2"/><path d="m352 54h13v-15h-13z" fill="#0000f0" fill-opacity=".25098"/><path d="m352 54h13" fill="none" stroke="#0000f0" stroke-linecap="square" stroke-miterlimit="10" stroke-opacity=".50196" stroke-width="2"/><path d="m365 54v3" fill="none" stroke="#0000f0" stroke-linecap="square" stroke-miterlimit="10" stroke-opacity=".50196" stroke-width="2"/><path d="m365 57h13v-18h-13z" fill="#0000f0" fill-opacity=".25098"/><g fill="none" stroke="#0000f0" stroke-linecap="square" stroke-miterlimit="10" stroke-opacity=".50196" stroke-width="2"><path d="m365 57h13"/><path d="m378 57v-17"/><path d="m391 40v9"/></g><path d="m391 49h14v-10h-14z" fill="#0000f0" fill-opacity=".25098"/><path d="m391 49h14" fill="none" stroke="#0000f0" stroke-linecap="square" stroke-miterlimit="10" stroke-opacity=".50196" stroke-width="2"/><path d="m405 49v-3" fill="none" stroke="#0000f0" stroke-linecap="square" stroke-miterlimit="10" stroke-opacity=".50196" stroke-width="2"/><path d="m405 46h13v-7h-13z" fill="#0000f0" fill-opacity=".25098"/><path d="m405 46h13" fill="none" stroke="#0000f0" stroke-linecap="square" stroke-miterlimit="10" stroke-opacity=".50196" stroke-width="2"/><path d="m418 46v8" fill="none" stroke="#0000f0" stroke-linecap="square" stroke-miterlimit="10" stroke-opacity=".50196" stroke-width="2"/><path d="m418 54h13v-15h-13z" fill="#0000f0" fill-opacity=".25098"/><path d="m418 54h13" fill="none" stroke="#0000f0" stroke-linecap="square" stroke-miterlimit="10" stroke-opacity=".50196" stroke-width="2"/><path d="m431 54v-8" fill="none" stroke="#0000f0" stroke-linecap="square" stroke-miterlimit="10" stroke-opacity=".50196" stroke-width="2"/><path d="m431 46h13v-7h-13z" fill="#0000f0" fill-opacity=".25098"/><g fill="none" stroke="#0000f0" stroke-linecap="square" stroke-miterlimit="10" stroke-opacity=".50196" stroke-width="2"><path d="m431 46h13"/><path d="m444 46v-6"/><path d="m471 40v17"/></g><path d="m471 57h13v-18h-13z" fill="#0000f0" fill-opacity=".25098"/><path d="m471 57h13" fill="none" stroke="#0000f0" stroke-linecap="square" stroke-miterlimit="10" stroke-opacity=".50196" stroke-width="2"/><path d="m484 57v-11" fill="none" stroke="#0000f0" stroke-linecap="square" stroke-miterlimit="10" stroke-opacity=".50196" stroke-width="2"/><path d="m484 46h13v-7h-13z" fill="#0000f0" fill-opacity=".25098"/><path d="m484 46h13" fill="none" stroke="#0000f0" stroke-linecap="square" stroke-miterlimit="10" stroke-opacity=".50196" stroke-width="2"/><path d="m497 46v3" fill="none" stroke="#0000f0" stroke-linecap="square" stroke-miterlimit="10" stroke-opacity=".50196" stroke-width="2"/><path d="m497 49h13v-10h-13z" fill="#0000f0" fill-opacity=".25098"/><path d="m497 49h13" fill="none" stroke="#0000f0" stroke-linecap="square" stroke-miterlimit="10" stroke-opacity=".50196" stroke-width="2"/><path d="m510 49v8" fill="none" stroke="#0000f0" stroke-linecap="square" stroke-miterlimit="10" stroke-opacity=".50196" stroke-width="2"/><path d="m510 57h13v-18h-13z" fill="#0000f0" fill-opacity=".25098"/><path d="m510 57h13" fill="none" stroke="#0000f0" stroke-linecap="square" stroke-miterlimit="10" stroke-opacity=".50196" stroke-width="2"/><path d="m523 57v11" fill="none" stroke="#0000f0" stroke-linecap="square" stroke-miterlimit="10" stroke-opacity=".50196" stroke-width="2"/><path d="m523 68h14v-29h-14z" fill="#0000f0" fill-opacity=".25098"/><path d="m523 68h14" fill="none" stroke="#0000f0" stroke-linecap="square" stroke-miterlimit="10" stroke-opacity=".50196" stroke-width="2"/><path d="m537 68v5" fill="none" stroke="#0000f0" stroke-linecap="square" stroke-miterlimit="10" stroke-opacity=".50196" stroke-width="2"/><path d="m537 73h13v-34h-13z" fill="#0000f0" fill-opacity=".25098"/><path d="m537 73h13" fill="none" stroke="#0000f0" stroke-linecap="square" stroke-miterlimit="10" stroke-opacity=".50196" stroke-width="2"/><path d="m550 73v27" fill="none" stroke="#0000f0" stroke-linecap="square" stroke-miterlimit="10" stroke-opacity=".50196" stroke-width="2"/><path d="m550 100h13v-61h-13z" fill="#0000f0" fill-opacity=".25098"/><path d="m550 100h13" fill="none" stroke="#0000f0" stroke-linecap="square" stroke-miterlimit="10" stroke-opacity=".50196" stroke-width="2"/><path d="m563 100v263" fill="none" stroke="#0000f0" stroke-linecap="square" stroke-miterlimit="10" stroke-opacity=".50196" stroke-width="2"/><path d="m563 363h13v-324h-13z" fill="#0000f0" fill-opacity=".25098"/><path d="m563 363h13" fill="none" stroke="#0000f0" stroke-linecap="square" stroke-miterlimit="10" stroke-opacity=".50196" stroke-width="2"/><path d="m576 363v-111" fill="none" stroke="#0000f0" stroke-linecap="square" stroke-miterlimit="10" stroke-opacity=".50196" stroke-width="2"/><path d="m576 252h13v-213h-13z" fill="#0000f0" fill-opacity=".25098"/><g fill="none" stroke-linecap="square" stroke-miterlimit="10" stroke-width="2"><path d="m576 252h13" stroke="#0000f0" stroke-opacity=".50196"/><path d="m589 252v-212" stroke="#0000f0" stroke-opacity=".50196"/><path d="m-2.1475e9 400v-360" stroke="#00b200" stroke-opacity=".49804"/><path d="m62 40v285" stroke="#00b200" stroke-opacity=".49804"/></g><path d="m62 325h13v-286h-13z" fill="#00b200" fill-opacity=".25098"/><path d="m62 325h13" fill="none" stroke="#00b200" stroke-linecap="square" stroke-miterlimit="10" stroke-opacity=".49804" stroke-width="2"/><path d="m75 325v-146" fill="none" stroke="#00b200" stroke-linecap="square" stroke-miterlimit="10" stroke-opacity=".49804" stroke-width="2"/><path d="m75 179h13v-140h-13z" fill="#00b200" fill-opacity=".25098"/><path d="m75 179h13" fill="none" stroke="#00b200" stroke-linecap="square" stroke-miterlimit="10" stroke-opacity=".49804" stroke-width="2"/><path d="m88 179v-19" fill="none" stroke="#00b200" stroke-linecap="square" stroke-miterlimit="10" stroke-opacity=".49804" stroke-width="2"/><path d="m88 160h13v-121h-13z" fill="#00b200" fill-opacity=".25098"/><path d="m88 160h13" fill="none" stroke="#00b200" stroke-linecap="square" stroke-miterlimit="10" stroke-opacity=".49804" stroke-width="2"/><path d="m101 160v-6" fill="none" stroke="#00b200" stroke-linecap="square" stroke-miterlimit="10" stroke-opacity=".49804" stroke-width="2"/><path d="m101 154h13v-115h-13z" fill="#00b200" fill-opacity=".25098"/><path d="m101 154h13" fill="none" stroke="#00b200" stroke-linecap="square" stroke-miterlimit="10" stroke-opacity=".49804" stroke-width="2"/><path d="m114 154v-5" fill="none" stroke="#00b200" stroke-linecap="square" stroke-miterlimit="10" stroke-opacity=".49804" stroke-width="2"/><path d="m114 149h14v-110h-14z" fill="#00b200" fill-opacity=".25098"/><path d="m114 149h14" fill="none" stroke="#00b200" stroke-linecap="square" stroke-miterlimit="10" stroke-opacity=".49804" stroke-width="2"/><path d="m128 149v-14" fill="none" stroke="#00b200" stroke-linecap="square" stroke-miterlimit="10" stroke-opacity=".49804" stroke-width="2"/><path d="m128 135h13v-96h-13z" fill="#00b200" fill-opacity=".25098"/><path d="m128 135h13" fill="none" stroke="#00b200" stroke-linecap="square" stroke-miterlimit="10" stroke-opacity=".49804" stroke-width="2"/><path d="m141 135v22" fill="none" stroke="#00b200" stroke-linecap="square" stroke-miterlimit="10" stroke-opacity=".49804" stroke-width="2"/><path d="m141 157h13v-118h-13z" fill="#00b200" fill-opacity=".25098"/><path d="m141 157h13" fill="none" stroke="#00b200" stroke-linecap="square" stroke-miterlimit="10" stroke-opacity=".49804" stroke-width="2"/><path d="m154 157v-8" fill="none" stroke="#00b200" stroke-linecap="square" stroke-miterlimit="10" stroke-opacity=".49804" stroke-width="2"/><path d="m154 149h13v-110h-13z" fill="#00b200" fill-opacity=".25098"/><path d="m154 149h13" fill="none" stroke="#00b200" stroke-linecap="square" stroke-miterlimit="10" stroke-opacity=".49804" stroke-width="2"/><path d="m167 149v27" fill="none" stroke="#00b200" stroke-linecap="square" stroke-miterlimit="10" stroke-opacity=".49804" stroke-width="2"/><path d="m167 176h13v-137h-13z" fill="#00b200" fill-opacity=".25098"/><path d="m167 176h13" fill="none" stroke="#00b200" stroke-linecap="square" stroke-miterlimit="10" stroke-opacity=".49804" stroke-width="2"/><path d="m180 176v-22" fill="none" stroke="#00b200" stroke-linecap="square" stroke-miterlimit="10" stroke-opacity=".49804" stroke-width="2"/><path d="m180 154h14v-115h-14z" fill="#00b200" fill-opacity=".25098"/><path d="m180 154h14" fill="none" stroke="#00b200" stroke-linecap="square" stroke-miterlimit="10" stroke-opacity=".49804" stroke-width="2"/><path d="m194 154v-51" fill="none" stroke="#00b200" stroke-linecap="square" stroke-miterlimit="10" stroke-opacity=".49804" stroke-width="2"/><path d="m194 103h13v-64h-13z" fill="#00b200" fill-opacity=".25098"/><path d="m194 103h13" fill="none" stroke="#00b200" stroke-linecap="square" stroke-miterlimit="10" stroke-opacity=".49804" stroke-width="2"/><path d="m207 103v0" fill="none" stroke="#00b200" stroke-linecap="square" stroke-miterlimit="10" stroke-opacity=".49804" stroke-width="2"/><path d="m207 103h13v-64h-13z" fill="#00b200" fill-opacity=".25098"/><path d="m207 103h13" fill="none" stroke="#00b200" stroke-linecap="square" stroke-miterlimit="10" stroke-opacity=".49804" stroke-width="2"/><path d="m220 103v-11" fill="none" stroke="#00b200" stroke-linecap="square" stroke-miterlimit="10" stroke-opacity=".49804" stroke-width="2"/><path d="m220 92h13v-53h-13z" fill="#00b200" fill-opacity=".25098"/><path d="m220 92h13" fill="none" stroke="#00b200" stroke-linecap="square" stroke-miterlimit="10" stroke-opacity=".49804" stroke-width="2"/><path d="m233 92v-14" fill="none" stroke="#00b200" stroke-linecap="square" stroke-miterlimit="10" stroke-opacity=".49804" stroke-width="2"/><path d="m233 78h13v-39h-13z" fill="#00b200" fill-opacity=".25098"/><path d="m233 78h13" fill="none" stroke="#00b200" stroke-linecap="square" stroke-miterlimit="10" stroke-opacity=".49804" stroke-width="2"/><path d="m246 78v3" fill="none" stroke="#00b200" stroke-linecap="square" stroke-miterlimit="10" stroke-opacity=".49804" stroke-width="2"/><path d="m246 81h14v-42h-14z" fill="#00b200" fill-opacity=".25098"/><path d="m246 81h14" fill="none" stroke="#00b200" stroke-linecap="square" stroke-miterlimit="10" stroke-opacity=".49804" stroke-width="2"/><path d="m260 81v-27" fill="none" stroke="#00b200" stroke-linecap="square" stroke-miterlimit="10" stroke-opacity=".49804" stroke-width="2"/><path d="m260 54h13v-15h-13z" fill="#00b200" fill-opacity=".25098"/><path d="m260 54h13" fill="none" stroke="#00b200" stroke-linecap="square" stroke-miterlimit="10" stroke-opacity=".49804" stroke-width="2"/><path d="m273 54v0" fill="none" stroke="#00b200" stroke-linecap="square" stroke-miterlimit="10" stroke-opacity=".49804" stroke-width="2"/><path d="m273 54h13v-15h-13z" fill="#00b200" fill-opacity=".25098"/><path d="m273 54h13" fill="none" stroke="#00b200" stroke-linecap="square" stroke-miterlimit="10" stroke-opacity=".49804" stroke-width="2"/><path d="m286 54v8" fill="none" stroke="#00b200" stroke-linecap="square" stroke-miterlimit="10" stroke-opacity=".49804" stroke-width="2"/><path d="m286 62h13v-23h-13z" fill="#00b200" fill-opacity=".25098"/><path d="m286 62h13" fill="none" stroke="#00b200" stroke-linecap="square" stroke-miterlimit="10" stroke-opacity=".49804" stroke-width="2"/><path d="m299 62v-13" fill="none" stroke="#00b200" stroke-linecap="square" stroke-miterlimit="10" stroke-opacity=".49804" stroke-width="2"/><path d="m299 49h13v-10h-13z" fill="#00b200" fill-opacity=".25098"/><path d="m299 49h13" fill="none" stroke="#00b200" stroke-linecap="square" stroke-miterlimit="10" stroke-opacity=".49804" stroke-width="2"/><path d="m312 49v-3" fill="none" stroke="#00b200" stroke-linecap="square" stroke-miterlimit="10" stroke-opacity=".49804" stroke-width="2"/><path d="m312 46h14v-7h-14z" fill="#00b200" fill-opacity=".25098"/><path d="m312 46h14" fill="none" stroke="#00b200" stroke-linecap="square" stroke-miterlimit="10" stroke-opacity=".49804" stroke-width="2"/><path d="m326 46v5" fill="none" stroke="#00b200" stroke-linecap="square" stroke-miterlimit="10" stroke-opacity=".49804" stroke-width="2"/><path d="m326 51h13v-12h-13z" fill="#00b200" fill-opacity=".25098"/><path d="m326 51h13" fill="none" stroke="#00b200" stroke-linecap="square" stroke-miterlimit="10" stroke-opacity=".49804" stroke-width="2"/><path d="m339 51v-8" fill="none" stroke="#00b200" stroke-linecap="square" stroke-miterlimit="10" stroke-opacity=".49804" stroke-width="2"/><path d="m339 43h13v-4h-13z" fill="#00b200" fill-opacity=".25098"/><path d="m339 43h13" fill="none" stroke="#00b200" stroke-linecap="square" stroke-miterlimit="10" stroke-opacity=".49804" stroke-width="2"/><path d="m352 43v0" fill="none" stroke="#00b200" stroke-linecap="square" stroke-miterlimit="10" stroke-opacity=".49804" stroke-width="2"/><path d="m352 43h13v-4h-13z" fill="#00b200" fill-opacity=".25098"/><path d="m352 43h13" fill="none" stroke="#00b200" stroke-linecap="square" stroke-miterlimit="10" stroke-opacity=".49804" stroke-width="2"/><path d="m365 43v3" fill="none" stroke="#00b200" stroke-linecap="square" stroke-miterlimit="10" stroke-opacity=".49804" stroke-width="2"/><path d="m365 46h13v-7h-13z" fill="#00b200" fill-opacity=".25098"/><g fill="none" stroke="#00b200" stroke-linecap="square" stroke-miterlimit="10" stroke-opacity=".49804" stroke-width="2"><path d="m365 46h13"/><path d="m378 46v-6"/><path d="m391 40v6"/></g><path d="m391 46h14v-7h-14z" fill="#00b200" fill-opacity=".25098"/><path d="m391 46h14" fill="none" stroke="#00b200" stroke-linecap="square" stroke-miterlimit="10" stroke-opacity=".49804" stroke-width="2"/><path d="m405 46v-3" fill="none" stroke="#00b200" stroke-linecap="square" stroke-miterlimit="10" stroke-opacity=".49804" stroke-width="2"/><path d="m405 43h13v-4h-13z" fill="#00b200" fill-opacity=".25098"/><g fill="none" stroke="#00b200" stroke-linecap="square" stroke-miterlimit="10" stroke-opacity=".49804" stroke-width="2"><path d="m405 43h13"/><path d="m418 43v-3"/><path d="m431 40v3"/></g><path d="m431 43h13v-4h-13z" fill="#00b200" fill-opacity=".25098"/><g fill="none" stroke="#00b200" stroke-linecap="square" stroke-miterlimit="10" stroke-opacity=".49804" stroke-width="2"><path d="m431 43h13"/><path d="m444 43v-3"/><path d="m563 40v6"/></g><path d="m563 46h13v-7h-13z" fill="#00b200" fill-opacity=".25098"/><path d="m563 46h13" fill="none" stroke="#00b200" stroke-linecap="square" stroke-miterlimit="10" stroke-opacity=".49804" stroke-width="2"/><path d="m576 46v-6" fill="none" stroke="#00b200" stroke-linecap="square" stroke-miterlimit="10" stroke-opacity=".49804" stroke-width="2"/></g></g></g></g><g clip-path="url(#clipPath468)"><path d="m49 38v4" fill="none" stroke="#000" stroke-linecap="square" stroke-miterlimit="10"/><text transform="matrix(1,0,0,-1,45,24)" fill="#000000" font-family="Helvetica" font-size="12px"><tspan x="0" y="0">0</tspan></text>
<path d="m114 38v4" fill="none" stroke="#000" stroke-linecap="square" stroke-miterlimit="10"/><text transform="matrix(1,0,0,-1,110,24)" fill="#000000" font-family="Helvetica" font-size="12px"><tspan x="0" y="0">1</tspan></text>
<path d="m180 38v4" fill="none" stroke="#000" stroke-linecap="square" stroke-miterlimit="10"/><text transform="matrix(1,0,0,-1,176,24)" fill="#000000" font-family="Helvetica" font-size="12px"><tspan x="0" y="0">2</tspan></text>
<path d="m246 38v4" fill="none" stroke="#000" stroke-linecap="square" stroke-miterlimit="10"/><text transform="matrix(1,0,0,-1,242,24)" fill="#000000" font-family="Helvetica" font-size="12px"><tspan x="0" y="0">3</tspan></text>
<path d="m312 38v4" fill="none" stroke="#000" stroke-linecap="square" stroke-miterlimit="10"/><text transform="matrix(1,0,0,-1,308,24)" fill="#000000" font-family="Helvetica" font-size="12px"><tspan x="0" y="0">4</tspan></text>
<path d="m378 38v4" fill="none" stroke="#000" stroke-linecap="square" stroke-miterlimit="10"/><text transform="matrix(1,0,0,-1,374,24)" fill="#000000" font-family="Helvetica" font-size="12px"><tspan x="0" y="0">5</tspan></text>
<path d="m444 38v4" fill="none" stroke="#000" stroke-linecap="square" stroke-miterlimit="10"/><text transform="matrix(1,0,0,-1,440,24)" fill="#000000" font-family="Helvetica" font-size="12px"><tspan x="0" y="0">6</tspan></text>
<path d="m510 38v4" fill="none" stroke="#000" stroke-linecap="square" stroke-miterlimit="10"/><text transform="matrix(1,0,0,-1,506,24)" fill="#000000" font-family="Helvetica" font-size="12px"><tspan x="0" y="0">7</tspan></text>
<path d="m576 38v4" fill="none" stroke="#000" stroke-linecap="square" stroke-miterlimit="10"/><text transform="matrix(1,0,0,-1,572,24)" fill="#000000" font-family="Helvetica" font-size="12px"><tspan x="0" y="0">8</tspan></text><g fill="none" stroke="#000" stroke-linecap="square" stroke-miterlimit="10">
<path d="m55 40v2"/><path d="m62 40v2"/><path d="m68 40v2"/><path d="m75 40v2"/><path d="m81 40v2"/><path d="m88 40v2"/><path d="m95 40v2"/><path d="m101 40v2"/><path d="m108 40v2"/><path d="m121 40v2"/><path d="m128 40v2"/><path d="m134 40v2"/><path d="m141 40v2"/><path d="m147 40v2"/><path d="m154 40v2"/><path d="m161 40v2"/><path d="m167 40v2"/><path d="m174 40v2"/><path d="m187 40v2"/><path d="m194 40v2"/><path d="m200 40v2"/><path d="m207 40v2"/><path d="m213 40v2"/><path d="m220 40v2"/><path d="m227 40v2"/><path d="m233 40v2"/><path d="m240 40v2"/><path d="m253 40v2"/><path d="m260 40v2"/><path d="m266 40v2"/><path d="m273 40v2"/><path d="m279 40v2"/><path d="m286 40v2"/><path d="m293 40v2"/><path d="m299 40v2"/><path d="m306 40v2"/><path d="m319 40v2"/><path d="m326 40v2"/><path d="m332 40v2"/><path d="m339 40v2"/><path d="m345 40v2"/><path d="m352 40v2"/><path d="m358 40v2"/><path d="m365 40v2"/><path d="m372 40v2"/><path d="m385 40v2"/><path d="m391 40v2"/><path d="m398 40v2"/><path d="m405 40v2"/><path d="m411 40v2"/><path d="m418 40v2"/><path d="m424 40v2"/><path d="m431 40v2"/><path d="m438 40v2"/><path d="m451 40v2"/><path d="m457 40v2"/><path d="m464 40v2"/><path d="m471 40v2"/><path d="m477 40v2"/><path d="m484 40v2"/><path d="m490 40v2"/><path d="m497 40v2"/><path d="m504 40v2"/><path d="m517 40v2"/><path d="m523 40v2"/><path d="m530 40v2"/><path d="m537 40v2"/><path d="m543 40v2"/><path d="m550 40v2"/><path d="m556 40v2"/><path d="m563 40v2"/><path d="m570 40v2"/><path d="m583 40v2"/><path d="m589 40v2"/><path d="m596 40v2"/><path d="m603 40v2"/></g><text transform="matrix(1,0,0,-1,289,5)" fill="#000000" font-family="Helvetica" font-size="12px"><tspan x="0 8.6966896 16.06138 20.750071 27.44276 30.79945 37.492142 41.520828 44.877522 52.24221 59.606899 66.971588" y="0">Sérsic index</tspan></text>
<path d="m47 40h4" fill="none" stroke="#000" stroke-linecap="square" stroke-miterlimit="10"/><text transform="matrix(1,0,0,-1,37,34)" fill="#000000" font-family="Helvetica" font-size="12px"><tspan x="0" y="0">0</tspan></text>
<path d="m47 95h4" fill="none" stroke="#000" stroke-linecap="square" stroke-miterlimit="10"/><text transform="matrix(1,0,0,-1,29,89)" fill="#000000" font-family="Helvetica" font-size="12px"><tspan x="0 8.6020002" y="0">20</tspan></text>
<path d="m47 149h4" fill="none" stroke="#000" stroke-linecap="square" stroke-miterlimit="10"/><text transform="matrix(1,0,0,-1,29,143)" fill="#000000" font-family="Helvetica" font-size="12px"><tspan x="0 8.6020002" y="0">40</tspan></text>
<path d="m47 203h4" fill="none" stroke="#000" stroke-linecap="square" stroke-miterlimit="10"/><text transform="matrix(1,0,0,-1,29,197)" fill="#000000" font-family="Helvetica" font-size="12px"><tspan x="0 8.6020002" y="0">60</tspan></text>
<path d="m47 257h4" fill="none" stroke="#000" stroke-linecap="square" stroke-miterlimit="10"/><text transform="matrix(1,0,0,-1,29,251)" fill="#000000" font-family="Helvetica" font-size="12px"><tspan x="0 8.6020002" y="0">80</tspan></text>
<path d="m47 311h4" fill="none" stroke="#000" stroke-linecap="square" stroke-miterlimit="10"/><text transform="matrix(1,0,0,-1,21,305)" fill="#000000" font-family="Helvetica" font-size="12px"><tspan x="0 8.1120005 16.224001" y="0">100</tspan></text>
<path d="m47 365h4" fill="none" stroke="#000" stroke-linecap="square" stroke-miterlimit="10"/><text transform="matrix(1,0,0,-1,21,359)" fill="#000000" font-family="Helvetica" font-size="12px"><tspan x="0 8.1120005 16.224001" y="0">120</tspan></text><g fill="none" stroke="#000" stroke-linecap="square" stroke-miterlimit="10">
<path d="m49 47h2"/><path d="m49 54h2"/><path d="m49 61h2"/><path d="m49 68h2"/><path d="m49 74h2"/><path d="m49 81h2"/><path d="m49 88h2"/><path d="m49 101h2"/><path d="m49 108h2"/><path d="m49 115h2"/><path d="m49 122h2"/><path d="m49 128h2"/><path d="m49 135h2"/><path d="m49 142h2"/><path d="m49 156h2"/><path d="m49 162h2"/><path d="m49 169h2"/><path d="m49 176h2"/><path d="m49 183h2"/><path d="m49 189h2"/><path d="m49 196h2"/><path d="m49 210h2"/><path d="m49 216h2"/><path d="m49 223h2"/><path d="m49 230h2"/><path d="m49 237h2"/><path d="m49 244h2"/><path d="m49 250h2"/><path d="m49 264h2"/><path d="m49 271h2"/><path d="m49 277h2"/><path d="m49 284h2"/><path d="m49 291h2"/><path d="m49 298h2"/><path d="m49 304h2"/><path d="m49 318h2"/><path d="m49 325h2"/><path d="m49 332h2"/><path d="m49 338h2"/><path d="m49 345h2"/><path d="m49 352h2"/><path d="m49 359h2"/><path d="m49 372h2"/><path d="m49 379h2"/><path d="m49 386h2"/><path d="m49 392h2"/></g><text transform="matrix(0,1,1,0,14,192)" fill="#000000" font-family="Helvetica" font-size="12px"><tspan x="0 7.902 15.804 27.030001 34.931999 42.834" y="0">number</tspan></text>
<path d="m49 392h554v-352h-554z" fill="none" stroke="#000" stroke-linecap="square" stroke-miterlimit="10"/><path d="m409 355h98v-41h-98z" fill="#fff"/><path d="m409 355h98v-41h-98z" fill="none" stroke="#000" stroke-linecap="square" stroke-miterlimit="10"/><path d="m413 350v-12" fill="none" stroke="#0000f0" stroke-linecap="square" stroke-miterlimit="10" stroke-opacity=".50196" stroke-width="2"/><path d="m413 350h8v-13h-8z" fill="#0000f0" fill-opacity=".25098"/><path d="m413 350h8" fill="none" stroke="#0000f0" stroke-linecap="square" stroke-miterlimit="10" stroke-opacity=".50196" stroke-width="2"/><path d="m421 350v-12" fill="none" stroke="#0000f0" stroke-linecap="square" stroke-miterlimit="10" stroke-opacity=".50196" stroke-width="2"/><text transform="matrix(1,0,0,-1,425,336)" fill="#000000" font-family="Helvetica" font-size="12px"><tspan x="0 9.6417303 13.28346 17.597191 25.24692 32.896648 40.546379 44.860111 49.17384 56.82357 61.797298 65.439034 73.08876" y="0">without prior</tspan></text>
<path d="m413 331v-12" fill="none" stroke="#00b200" stroke-linecap="square" stroke-miterlimit="10" stroke-opacity=".49804" stroke-width="2"/><path d="m413 331h8v-13h-8z" fill="#00b200" fill-opacity=".25098"/><path d="m413 331h8" fill="none" stroke="#00b200" stroke-linecap="square" stroke-miterlimit="10" stroke-opacity=".49804" stroke-width="2"/><path d="m421 331v-12" fill="none" stroke="#00b200" stroke-linecap="square" stroke-miterlimit="10" stroke-opacity=".49804" stroke-width="2"/><text transform="matrix(1,0,0,-1,425,317)" fill="#000000" font-family="Helvetica" font-size="12px"><tspan x="0 9.6374102 13.27482 17.58423 25.229639 29.539049 37.18446 42.15387 45.791279 53.436691" y="0">with prior</tspan></text>
</g></g></g></svg>
