<?xml version="1.0" encoding="UTF-8"?>
<svg width="1579.1" height="690.39" version="1.1" viewBox="0 0 1579.099 690.39206" xml:space="preserve" xmlns="http://www.w3.org/2000/svg"><g transform="matrix(1.3333 0 0 -1.3333 -48.488 924.29)" fill="none" stroke="#000" stroke-linejoin="round" stroke-miterlimit="10"><g><path d="m767.33 237.67"/><path d="m767.33 237.67"/><path d="m767.33 237.67"/><path d="m767.33 237.67"/><path d="m767.33 237.67"/><path d="m767.33 237.67"/><path d="m767.33 237.67"/><path d="m767.33 237.67"/><path d="m767.33 237.67"/><path d="m767.33 237.67"/><path d="m767.33 237.67"/><path d="m767.33 237.67"/><path d="m767.33 237.67"/><path d="m767.33 237.67"/></g><g transform="scale(.1)" stroke-width="10"><g><path d="m1380 2316v24l2.4 4.8v52.8l2.4 4.8v40.8l2.4 4.8v36l2.4 4.8v38.4l2.4 2.4v33.6l2.4 4.8v24l2.4 4.8v28.8l2.4 4.8v24l2.4 4.8v19.2l2.4 4.8v21.6l2.4 2.4v21.6l2.4 4.8v16.8l2.4 2.4v16.8l2.4 4.8v16.8l2.4 4.8v16.8l2.4 2.4v12l2.4 4.8v16.8l2.4 4.8v12l2.4 4.8v12l2.4 4.8v12l2.4 2.4v9.6l2.4 4.8v12l2.4 2.4v9.6l2.4 4.8v12l2.4 4.8v7.2l2.4 4.8v7.2l2.4 4.8v7.2l2.4 4.8v9.6l2.4 2.4v9.6l2.4 2.4v4.8l2.4 4.8v7.2l2.4 4.8v9.6l2.4 2.4v4.8l2.4 4.8v7.2l2.4 4.8v4.8l2.4 2.4v9.6l2.4 2.4v4.8l2.4 4.8v7.2l2.4 4.8v4.8l2.4 4.8v2.4l2.4 4.8v4.8l2.4 2.4v4.8l2.4 4.8v4.8l2.4 2.4v4.8l2.4 4.8v2.4l2.4 4.8v4.8l2.4 4.8v2.4l2.4 4.8v4.8l2.4 4.8v2.4l2.4 4.8v4.8l2.4 2.4v4.8l2.4 4.8 2.4 4.8v2.4l2.4 4.8v4.8l2.4 4.8v2.4l2.4 4.8 2.4 4.8v2.4l2.4 4.8 2.4 4.8v4.8l2.4 2.4v4.8l2.4 4.8 2.4 4.8v2.4l2.4 4.8 2.4 4.8v2.4l2.4 4.8 2.4 4.8v4.8l2.4 2.4 2.4 4.8 2.4 4.8v2.4l2.4 4.8 2.4 4.8 2.4 4.8v2.4l2.4 4.8 2.4 4.8 2.4 4.8v2.4l2.4 4.8 2.4 4.8 2.4 2.4 2.4 4.8v4.8l2.4 4.8 2.4 2.4 2.4 4.8 2.4 4.8v2.4l2.4 4.8 2.4 4.8 2.4 4.8 2.4 2.4 2.4 4.8 2.4 4.8 2.4 4.8 2.4 2.4v4.8l2.4 4.8 2.4 2.4 2.4 4.8 2.4 4.8 2.4 4.8 2.4 2.4 2.4 4.8 2.4 4.8 2.4 4.8 2.4 2.4 2.4 4.8 2.4 4.8 2.4 2.4 2.4 4.8 2.4 4.8 2.4 4.8 2.4 2.4 4.8 4.8 2.4 4.8 2.4 4.8 2.4 2.4 2.4 4.8 2.4 4.8 2.4 2.4 2.4 4.8 2.4 4.8"/><path d="m1663.2 3556.8 4.8 4.8 2.4 2.4 2.4 4.8 2.4 4.8 2.4 2.4 4.8 4.8 2.4 4.8 2.4 4.8 2.4 2.4 4.8 4.8 2.4 4.8 2.4 4.8 2.4 2.4 4.8 4.8 2.4 4.8 2.4 2.4 4.8 4.8 2.4 4.8 2.4 4.8 4.8 2.4 2.4 4.8 2.4 4.8 4.8 2.4 2.4 4.8 4.8 4.8 2.4 4.8 2.4 2.4 4.8 4.8 2.4 4.8 4.8 4.8 2.4 2.4 4.8 4.8 2.4 4.8 4.8 2.4 2.4 4.8 4.8 4.8 4.8 4.8 2.4 2.4 4.8 4.8 2.4 4.8 4.8 2.4 2.4 4.8 4.8 4.8 4.8 4.8 2.4 2.4 4.8 4.8 4.8 4.8 2.4 4.8 4.8 2.4 4.8 4.8 4.8 4.8 2.4 2.4 4.8 4.8 4.8 4.8 4.8 4.8 4.8 2.4 2.4 4.8 4.8 4.8 4.8 4.8 4.8 2.4 4.8 4.8 4.8 4.8 4.8 2.4 2.4 4.8 4.8 4.8 4.8 4.8 4.8 2.4 4.8 4.8 4.8 4.8 4.8 4.8 4.8 2.4 4.8 4.8 4.8 4.8 4.8 2.4 4.8 4.8 7.2 4.8 4.8 4.8 4.8 2.4 4.8 4.8 4.8 4.8 4.8 2.4 4.8 4.8 7.2 4.8 4.8 4.8 4.8 2.4 4.8 4.8 4.8 4.8 7.2 4.8 4.8 2.4 4.8 4.8 7.2 4.8 4.8 2.4 4.8 4.8 7.2 4.8 4.8 4.8 4.8 2.4 7.2 4.8 4.8 4.8 7.2 2.4 4.8 4.8 7.2 4.8 4.8 4.8 7.2 2.4 4.8 4.8 7.2 4.8 4.8 4.8 7.2 2.4 4.8 4.8 7.2 4.8 7.2 2.4 4.8 4.8 7.2 4.8 4.8 4.8 7.2 2.4 7.2 4.8 7.2 4.8 4.8 4.8 7.2 2.4 7.2 4.8 4.8 4.8 7.2 2.4 7.2 4.8 7.2 4.8 7.2 4.8 7.2 2.4 4.8 4.8 7.2 4.8 7.2 4.8 7.2 2.4 7.2 4.8 7.2 4.8 7.2 2.4 7.2 4.8 7.2 4.8 7.2 4.8 7.2 2.4 7.2 4.8 7.2 4.8 7.2 2.4 7.2 4.8 7.2 4.8 7.2 4.8 7.2 2.4 9.6 4.8 7.2 4.8 7.2 4.8 7.2 2.4 7.2 4.8 9.6 4.8 7.2 2.4 7.2 4.8 7.2 4.8 9.6 4.8 7.2 2.4 7.2 4.8 9.6 4.8 7.2 2.4 7.2 4.8 9.6 4.8 7.2 4.8 7.2 2.4 9.6 4.8 7.2 4.8 9.6 4.8 7.2 2.4 9.6 4.8 7.2 4.8 9.6 2.4 7.2 4.8 9.6 4.8 7.2 4.8 9.6 2.4 7.2 4.8 9.6 4.8 7.2 4.8 9.6 2.4 9.6 4.8 7.2 4.8 9.6 2.4 7.2 4.8 9.6 4.8 9.6 4.8 9.6 2.4 7.2 4.8 9.6 4.8 9.6 4.8 7.2 2.4 9.6 4.8 9.6 4.8 9.6 2.4 7.2 4.8 9.6 4.8 9.6 4.8 9.6 2.4 9.6 4.8 7.2 4.8 9.6 2.4 9.6 4.8 9.6 4.8 9.6 4.8 9.6 2.4 9.6 4.8 9.6 4.8 7.2 4.8 9.6 2.4 9.6 4.8 9.6 4.8 9.6 2.4 9.6 4.8 9.6 4.8 9.6 4.8 9.6 2.4 9.6 4.8 9.6 4.8 9.6 2.4 9.6 4.8 9.6 4.8 9.6 4.8 9.6 2.4 9.6 4.8 9.6 4.8 9.6 4.8 9.6 2.4 9.6 4.8 9.6 4.8 9.6 2.4 9.6 4.8 9.6 4.8 12 4.8 9.6 2.4 9.6 4.8 9.6 4.8 9.6 4.8 9.6 2.4 9.6 4.8 9.6 4.8 9.6 2.4 9.6 4.8 9.6 4.8 12 4.8 9.6 2.4 9.6 4.8 9.6 4.8 9.6 4.8 9.6 2.4 9.6 4.8 9.6 4.8 12 2.4 9.6 4.8 9.6 4.8 9.6 4.8 9.6 2.4 9.6 4.8 9.6 4.8 9.6 2.4 12 4.8 9.6 4.8 9.6 4.8 9.6 2.4 9.6 4.8 9.6 4.8 9.6 4.8 9.6 2.4 9.6 4.8 12 4.8 9.6 2.4 9.6 4.8 9.6 4.8 9.6 4.8 9.6 2.4 9.6 4.8 9.6 4.8 9.6 2.4 9.6 4.8 9.6 4.8 9.6 4.8 9.6 2.4 12 4.8 9.6 4.8 9.6 4.8 9.6 2.4 9.6 4.8 9.6 4.8 9.6 2.4 9.6 4.8 9.6 4.8 9.6 4.8 9.6 2.4 9.6 4.8 9.6 4.8 9.6 4.8 7.2 2.4 9.6 4.8 9.6 4.8 9.6 2.4 9.6 4.8 9.6 4.8 9.6 4.8 9.6 2.4 9.6 4.8"/><path d="m3828 4797.6 9.6 4.8 7.2 4.8 9.6 2.4 9.6 4.8 9.6 4.8 9.6 2.4 9.6 4.8 7.2 4.8 9.6 4.8 9.6 2.4 9.6 4.8 9.6 4.8 7.2 2.4 9.6 4.8 9.6 4.8 7.2 4.8 9.6 2.4 9.6 4.8 9.6 4.8 7.2 4.8 9.6 2.4 7.2 4.8 9.6 4.8 9.6 2.4 7.2 4.8 9.6 4.8 7.2 4.8 9.6 2.4 9.6 4.8 7.2 4.8 9.6 2.4 7.2 4.8 9.6 4.8 7.2 4.8 9.6 2.4 7.2 4.8 7.2 4.8 9.6 4.8 7.2 2.4 9.6 4.8 7.2 4.8 7.2 2.4 9.6 4.8 7.2 4.8 7.2 4.8 9.6 2.4 7.2 4.8 7.2 4.8 9.6 4.8 7.2 2.4 7.2 4.8 7.2 4.8 9.6 2.4 7.2 4.8 7.2 4.8 7.2 4.8 7.2 2.4 7.2 4.8 7.2 4.8 9.6 4.8 7.2 2.4 7.2 4.8 7.2 4.8 7.2 2.4 7.2 4.8 7.2 4.8 7.2 4.8 7.2 2.4 7.2 4.8 7.2 4.8 7.2 2.4 7.2 4.8 4.8 4.8 7.2 4.8 7.2 2.4 7.2 4.8 7.2 4.8 7.2 4.8 4.8 2.4 7.2 4.8 7.2 4.8 7.2 2.4 4.8 4.8 7.2 4.8 7.2 4.8 7.2 2.4 4.8 4.8 7.2 4.8 4.8 2.4 7.2 4.8 7.2 4.8 4.8 4.8 7.2 2.4 4.8 4.8 7.2 4.8 7.2 2.4 4.8 4.8 7.2 4.8 4.8 4.8 4.8 2.4 7.2 4.8 4.8 4.8 7.2 4.8 4.8 2.4 7.2 4.8 4.8 4.8 4.8 2.4 7.2 4.8 4.8 4.8 4.8 4.8 7.2 2.4 4.8 4.8 4.8 4.8 4.8 4.8 7.2 2.4 4.8 4.8 4.8 4.8 4.8 2.4 4.8 4.8 7.2 4.8 4.8 4.8 4.8 2.4 4.8 4.8 4.8 4.8 4.8 4.8 4.8 2.4 4.8 4.8 4.8 4.8 4.8 2.4 4.8 4.8 4.8 4.8 4.8 4.8 4.8 2.4 4.8 4.8 4.8 4.8 4.8 2.4 4.8 4.8 4.8 4.8 4.8 4.8 4.8 2.4 4.8 4.8 2.4 4.8 4.8 4.8 4.8 2.4 4.8 4.8 4.8 4.8 4.8 2.4 2.4 4.8 4.8 4.8 4.8 4.8 2.4 2.4 4.8 4.8 4.8 4.8 4.8 2.4 2.4 4.8 4.8 4.8 4.8 4.8 2.4 2.4 4.8 4.8 2.4 4.8 4.8 4.8 4.8 2.4 2.4 4.8 4.8 4.8 2.4 2.4 4.8 4.8 2.4 4.8 4.8 4.8 2.4 2.4 4.8 4.8 2.4 4.8 4.8 4.8 2.4 2.4 4.8 4.8 2.4 4.8 4.8 2.4 2.4 4.8 2.4 4.8 4.8 4.8 2.4 2.4 2.4 4.8 4.8 4.8 2.4 4.8 2.4 2.4 4.8 4.8 2.4 4.8 2.4 2.4 4.8 4.8 2.4 4.8 2.4 4.8 2.4 2.4 4.8 4.8 2.4 4.8 2.4 2.4 2.4 4.8 4.8 4.8 2.4 4.8 2.4 2.4 2.4 4.8 2.4 4.8 2.4 4.8 4.8 2.4 2.4 4.8 2.4 4.8 2.4 2.4 2.4 4.8 2.4 4.8 2.4 4.8 2.4 2.4 2.4 4.8 2.4 4.8 2.4 2.4 2.4 4.8 4.8 4.8 2.4 4.8 2.4 2.4 2.4 4.8 2.4 4.8 2.4 4.8v2.4l2.4 4.8 2.4 4.8 2.4 2.4 2.4 4.8 2.4 4.8 2.4 4.8 2.4 2.4 2.4 4.8 2.4 4.8 2.4 4.8 2.4 2.4 2.4 4.8v4.8l2.4 2.4 2.4 4.8 2.4 4.8 2.4 4.8 2.4 2.4v4.8l2.4 4.8 2.4 4.8 2.4 2.4 2.4 4.8 2.4 4.8v2.4l2.4 4.8 2.4 4.8 2.4 4.8v2.4l2.4 4.8 2.4 4.8 2.4 2.4v4.8l2.4 4.8 2.4 4.8v2.4l2.4 4.8 2.4 4.8 2.4 4.8v2.4l2.4 4.8 2.4 4.8v2.4l2.4 4.8 2.4 4.8v4.8l2.4 2.4v4.8l2.4 4.8 2.4 2.4v4.8l2.4 4.8 2.4 4.8v2.4l2.4 4.8v4.8l2.4 4.8 2.4 2.4v4.8l2.4 4.8v2.4l2.4 4.8v4.8l2.4 4.8v2.4l2.4 4.8v4.8l2.4 4.8 2.4 2.4v4.8l2.4 4.8v2.4l2.4 4.8v4.8l2.4 4.8v2.4l2.4 4.8v4.8l2.4 4.8v2.4"/><path d="m5205.6 6038.4v4.8l2.4 4.8v2.4l2.4 4.8v4.8l2.4 4.8v2.4l2.4 4.8v4.8l2.4 2.4v9.6l2.4 4.8v2.4l2.4 4.8v9.6l2.4 2.4v4.8l2.4 4.8v7.2l2.4 4.8v7.2l2.4 4.8v4.8l2.4 2.4v9.6l2.4 4.8v7.2l2.4 4.8v7.2l2.4 4.8v7.2l2.4 4.8v9.6l2.4 2.4v14.4l2.4 2.4v9.6l2.4 2.4v9.6l2.4 4.8v12l2.4 4.8v12l2.4 2.4v14.4l2.4 2.4v12l2.4 4.8v12l2.4 4.8v12l2.4 4.8v16.8l2.4 4.8v12l2.4 2.4v16.8l2.4 4.8v21.6l2.4 2.4v16.8l2.4 4.8v21.6l2.4 2.4v21.6l2.4 4.8v24l2.4 4.8v24l2.4 4.8v24l2.4 4.8v28.8l2.4 4.8v33.6l2.4 2.4v38.4l2.4 2.4v43.2l2.4 2.4v45.6l2.4 4.8v55.2l2.4 2.4v4.8"/></g><path d="m1068 4591.2h4550.4" stroke-dasharray="14.4, 28.8"/><g><path d="m1068 2316h4550.4v4550.4h-4550.4v-4550.4h4550.4m-4550.4 0h4550.4m-4473.6 0v60m64.8-60v60m57.6-60v60m50.4-60v60m45.6-60v122.4"/><path d="m1214.4 2210.4-16.8-4.8-12-19.2-7.2-28.8v-16.8l7.2-28.8 12-16.8 16.8-7.2h12l16.8 7.2 12 16.8 4.8 28.8v16.8l-4.8 28.8-12 19.2-16.8 4.8h-12l-12-4.8-4.8-7.2-7.2-12-4.8-28.8v-16.8l4.8-28.8 7.2-12 4.8-4.8 12-7.2m12 0 9.6 7.2 7.2 4.8 4.8 12 7.2 28.8v16.8l-7.2 28.8-4.8 12-7.2 7.2-9.6 4.8m79.2-110.4-4.8-4.8 4.8-7.2 7.2 7.2-7.2 4.8m81.6 110.4-16.8-4.8-12-19.2-4.8-28.8v-16.8l4.8-28.8 12-16.8 16.8-7.2h12l16.8 7.2 12 16.8 4.8 28.8v16.8l-4.8 28.8-12 19.2-16.8 4.8h-12l-12-4.8-4.8-7.2-7.2-12-4.8-28.8v-16.8l4.8-28.8 7.2-12 4.8-4.8 12-7.2m12 0 12 7.2 4.8 4.8 4.8 12 7.2 28.8v16.8l-7.2 28.8-4.8 12-4.8 7.2-12 4.8m86.4-24 12 7.2 16.8 16.8v-122.4m-4.8 117.6v-117.6m-24 0h52.8"/><path d="m1660.8 2316v60m175.2-60v60m124.8-60v60m93.6-60v60m79.2-60v60m67.2-60v60m57.6-60v60m50.4-60v60m45.6-60v122.4"/><path d="m2260.8 2210.4-16.8-4.8-12-19.2"/><path d="m2232 2186.4-4.8-28.8v-16.8l4.8-28.8 12-16.8 16.8-7.2h12l16.8 7.2 12 16.8 4.8 28.8v16.8l-4.8 28.8-12 19.2-16.8 4.8h-12l-12-4.8-4.8-7.2-7.2-12-4.8-28.8v-16.8l4.8-28.8 7.2-12 4.8-4.8 12-7.2m12 0 12 7.2 4.8 4.8 7.2 12 4.8 28.8v16.8l-4.8 28.8-7.2 12-4.8 7.2-12 4.8m81.6-110.4-7.2-4.8 7.2-7.2 4.8 7.2-4.8 4.8m62.4 86.4 12 7.2 16.8 16.8v-122.4m-4.8 117.6v-117.6m-24 0h52.8"/><path d="m2652 2316v60m172.8-60v60m124.8-60v60m96-60v60m76.8-60v60m67.2-60v60m57.6-60v60m50.4-60v60m45.6-60v122.4"/><path d="m3319.2 2186.4 12 7.2 16.8 16.8v-122.4m-4.8 117.6v-117.6m-24 0h52.8"/><path d="m3640.8 2316v60m175.2-60v60m122.4-60v60m96-60v60m79.2-60v60m64.8-60v60m57.6-60v60m50.4-60v60m45.6-60v122.4"/><path d="m4250.4 2186.4 12 7.2 16.8 16.8v-122.4m-4.8 117.6v-117.6m-24 0h52.8m81.6 122.4-16.8-4.8-12-19.2-7.2-28.8v-16.8l7.2-28.8 12-16.8 16.8-7.2h12l16.8 7.2 12 16.8 4.8 28.8v16.8l-4.8 28.8-12 19.2-16.8 4.8h-12l-12-4.8-4.8-7.2-7.2-12-4.8-28.8v-16.8l4.8-28.8 7.2-12 4.8-4.8 12-7.2m12 0 9.6 7.2 7.2 4.8 4.8 12 7.2 28.8v16.8l-7.2 28.8-4.8 12-7.2 7.2-9.6 4.8"/><path d="m4629.6 2316v60m175.2-60v60m122.4-60v60m96-60v60m79.2-60v60m67.2-60v60m55.2-60v60m52.8-60v60m43.2-60v122.4"/><path d="m5184 2186.4 9.6 7.2 19.2 16.8v-122.4m-7.2 117.6v-117.6m-21.6 0h50.4m81.6 122.4-16.8-4.8-12-19.2-7.2-28.8v-16.8l7.2-28.8 12-16.8 16.8-7.2h12l16.8 7.2 12 16.8 4.8 28.8v16.8l-4.8 28.8-12 19.2-16.8 4.8h-12l-12-4.8-4.8-7.2-7.2-12-4.8-28.8v-16.8l4.8-28.8 7.2-12 4.8-4.8 12-7.2m12 0 12 7.2 4.8 4.8 4.8 12 7.2 28.8v16.8l-7.2 28.8-4.8 12-4.8 7.2-12 4.8m103.2 0-16.8-4.8-12-19.2-4.8-28.8v-16.8l4.8-28.8 12-16.8 16.8-7.2h12l16.8 7.2 12 16.8 4.8 28.8v16.8l-4.8 28.8-12 19.2-16.8 4.8h-12l-12-4.8-4.8-7.2-7.2-12-4.8-28.8v-16.8l4.8-28.8 7.2-12 4.8-4.8 12-7.2m12 0 12 7.2 4.8 4.8 7.2 12 4.8 28.8v16.8l-4.8 28.8-7.2 12-4.8 7.2-12 4.8"/><path d="m1068 6927.1h4550.4m-4473.6 0v-62.4m64.8 62.4v-62.4m57.6 62.4v-62.4m50.4 62.4v-62.4m45.6 62.4v-122.4m297.6 122.4v-62.4m175.2 62.4v-62.4m124.8 62.4v-62.4m93.6 62.4v-62.4m79.2 62.4v-62.4m67.2 62.4v-62.4m57.6 62.4v-62.4m50.4 62.4v-62.4m45.6 62.4v-122.4m297.6 122.4v-62.4m172.8 62.4v-62.4m124.8 62.4v-62.4m96 62.4v-62.4m76.8 62.4v-62.4m67.2 62.4v-62.4m57.6 62.4v-62.4m50.4 62.4v-62.4m45.6 62.4v-122.4m297.6 122.4v-62.4m175.2 62.4v-62.4m122.4 62.4v-62.4m96 62.4v-62.4m79.2 62.4v-62.4m64.8 62.4v-62.4m57.6 62.4v-62.4m50.4 62.4v-62.4m45.6 62.4v-122.4m297.6 122.4v-62.4m175.2 62.4v-62.4m122.4 62.4v-62.4m96 62.4v-62.4m79.2 62.4v-62.4m67.2 62.4v-62.4m55.2 62.4v-62.4m52.8 62.4v-62.4m43.2 62.4v-122.4m-4252.8-4428v4550.4"/><path d="m1068 2316h60m-60 206.4h60m-60 206.4h60m-60 206.4h122.4"/><path d="m720 2928h103.2m93.602 57.6v-110.4m4.801 122.4v-122.4m0 122.4-62.403-88.8h91.199m-52.796-33.6h40.796"/><path d="m1068 3141.6h60m-60 208.8h60m-60 206.4h60m-60 206.4h122.4"/><path d="m720 3753.6h103.2m45.602 48 7.199-7.2-7.199-4.8-4.801 4.8v7.2l4.801 12 7.199 4.8 16.801 4.8h24l16.801-4.8 4.796-4.8 7.204-12v-12l-7.204-12-16.796-12-28.801-12-12-4.8-12-12-4.801-16.8v-16.8m52.801 120 9.597-4.8 7.204-4.8 4.796-12v-12l-4.796-12-16.801-12-24-12m-28.801-38.4l4.801 4.8h12l28.801-12h16.796l12 7.2 7.204 4.8m-64.801 0 28.801-16.8h24l4.796 4.8 7.204 12v12"/><path d="m1068 3969.6h60m-60 206.4h60m-60 208.8h60m-60 206.4h122.4"/><path d="m897.6 4651.2-16.801-4.8-12-16.8-4.801-28.8v-19.2l4.801-28.8 12-16.8 16.801-4.8h12l16.796 4.8 12 16.8 7.204 28.8v19.2l-7.204 28.8-12 16.8-16.796 4.8h-12"/><path d="m897.6 4651.2-9.602-4.8-7.199-7.2-4.801-9.6-7.199-28.8v-19.2l7.199-28.8 4.801-12 7.199-4.8 9.602-4.8m12 0 12 4.8 4.796 4.8 7.204 12 4.796 28.8v19.2l-4.796 28.8-7.204 9.6-4.796 7.2-12 4.8"/><path d="m1068 4797.6h60m-60 206.4h60m-60 206.4h60m-60 208.8h122.4"/><path d="m868.8 5455.2 7.199-4.8-7.199-4.8-4.801 4.8v4.8l4.801 12 7.199 7.2 16.801 4.8h24l16.801-4.8 4.796-7.2 7.204-12v-9.6l-7.204-12-16.796-12-28.801-12-12-4.8-12-12-4.801-16.8v-19.2m52.801 122.4 9.597-4.8 7.204-7.2 4.796-12v-9.6l-4.796-12-16.801-12-24-12m-28.801-40.8l4.801 7.2h12l28.801-12h16.796l12 4.8 7.204 7.2m-64.801 0 28.801-19.2h24l4.796 7.2 7.204 12v9.6"/><path d="m1068 5625.6h60m-60 206.4h60m-60 206.4h60m-60 206.4h122.4"/><path d="m916.8 6295.2v-110.4m4.801 122.4v-122.4m0 122.4-62.403-86.4h91.199m-52.796-36h40.796"/><path d="m1068 6453.6h60m-60 206.4h60m-60 206.4h60m4490.4-4550.4v4550.4"/><path d="m5618.4 2316h-62.4m62.4 206.4h-62.4m62.4 206.4h-62.4m62.4 206.4h-122.4m122.4 206.4h-62.4m62.4 208.8h-62.4m62.4 206.4h-62.4m62.4 206.4h-122.4m122.4 206.4h-62.4m62.4 206.4h-62.4m62.4 208.8h-62.4m62.4 206.4h-122.4m122.4 206.4h-62.4m62.4 206.4h-62.4m62.4 206.4h-62.4m62.4 208.8h-122.4m122.4 206.4h-62.4m62.4 206.4h-62.4m62.4 206.4h-62.4m62.4 206.4h-122.4m122.4 208.8h-62.4m62.4 206.4h-62.4m62.4 206.4h-62.4"/><path d="m391.2 3940.8 4.801-19.2 12-14.4 12-7.2 21.602-9.6 19.199-4.8 21.597 2.4 12 2.4 12 9.6 4.801 16.8v9.6l-4.801 19.2-12 14.4-12 7.2-21.597 12-19.199 2.4h-21.602l-12-4.8-12-9.6-4.801-14.4v-12l4.801-14.4 12-12 12-9.6 21.602-9.6 19.199-4.8 21.597 2.4 12 2.4 12 9.6 4.801 12m0 9.6-4.801 14.4-12 14.4-12 7.2-21.597 9.6-19.199 4.8-21.602-2.4-12-2.4-12-9.6-4.801-9.6m110.4-52.8-7.204 2.4-12 7.2-4.796 12v7.2l4.796 9.6 12 4.8 40.801-2.4 4.801 4.8v9.6l-9.602 9.6h-7.199m-28.801-21.6h24l12 4.8 4.801 4.8v4.8l-4.801 7.2"/><path d="m525.6 4029.6h4.796v-4.8h-4.796l-2.403 4.8-4.801 7.2v12l4.801 7.2 2.403 4.8 7.199 2.4h24l7.199 4.8 2.398 2.4m-40.796-9.6h31.199l7.199 2.4 2.398 7.2v4.8m-33.597-14.4 2.398-4.8 4.801-19.2 2.398-12 7.204-2.4h7.199l7.199 2.4 2.398 12v9.6l-2.398 7.2-7.199 7.2m-16.801-24 2.398-7.2 7.204-4.8h7.199l7.199 4.8 2.398 7.2m-40.796 88.8-7.204 4.8h14.403l-7.199-4.8-2.403-2.4-4.801-7.2v-14.4l4.801-7.2 2.403-2.4h7.199l2.398 2.4 4.801 7.2 7.199 16.8 2.403 7.2 4.796 4.8m-24-38.4 2.403 2.4 2.398 7.2 7.199 16.8 4.801 7.2 2.403 4.8h12l2.398-4.8 2.398-7.2v-12l-2.398-7.2-2.398-4.8-7.204-2.4h12l-4.796 2.4m-43.204 62.4h74.403m-74.403 4.8h74.403m-62.403 0-7.199 7.2-4.801 4.8v7.2l4.801 12 7.199 4.8 9.602 4.8h7.199l9.602-4.8 7.199-4.8 2.398-12v-7.2l-2.398-4.8-7.199-7.2m-38.403 19.2 4.801 7.2 7.199 7.2 9.602 2.4h7.199l9.602-2.4 7.199-7.2 2.398-7.2m-48-33.6v14.4m74.403-14.4v24m-52.801 55.2v40.8h-7.199l-7.199-2.4-2.403-4.8-4.801-4.8v-12l4.801-9.6 7.199-7.2 9.602-2.4h7.199l9.602 2.4 7.199 7.2 2.398 9.6v7.2l-2.398 9.6-7.199 7.2m-16.801-2.4h-9.602l-7.199-4.8m-4.801-16.8 4.801-7.2 7.199-7.2 9.602-2.4h7.199l9.602 2.4 7.199 7.2 2.398 7.2m-36 86.4 2.403-2.4 2.398 2.4-2.398 4.8h-2.403l-7.199-7.2-4.801-7.2v-9.6l4.801-12 7.199-7.2 9.602-2.4h7.199l9.602 2.4 7.199 7.2 2.398 12v7.2l-2.398 9.6-7.199 7.2m-38.403-24 4.801-7.2 7.199-7.2 9.602-4.8h7.199l9.602 4.8 7.199 7.2 2.398 7.2m-72 50.4h60l9.602 4.8 2.398 7.2v7.2l-2.398 4.8-7.199 4.8m-62.403-24h60l9.602 2.4 2.398 4.8m-48-21.6v28.8"/><path d="m367.2 4552.8 12-12 16.801-12 24-12 28.801-4.8h21.597l31.204 4.8 21.597 12 16.801 12 12 12"/><path d="m379.2 4540.8 24-12 16.801-4.8 28.801-7.2h21.597l31.204 7.2 16.796 4.8 21.602 12m-74.398 52.8v67.2h-12l-12-4.8-4.801-4.8-4.801-12v-16.8l4.801-19.2 12-9.6 16.801-7.2h12l16.796 7.2 12 9.6 4.801 19.2v9.6l-4.801 19.2-12 9.6m-28.796-4.8h-16.801l-12-4.8m-4.801-28.8 4.801-12 12-12 16.801-4.8h12l16.796 4.8 12 12 4.801 12m-79.199 86.4h79.199m-79.199 4.8h79.199m-62.398 0-12 12-4.801 16.8v12l4.801 16.8 12 7.2h62.398m-79.199-24 4.801 12 12 4.8h62.398m-79.199-79.2v21.6m79.199-21.6v38.4m0 24v40.8m-79.199 57.6 4.801-12 4.801-4.8 12-7.2h12l12 7.2 4.796 4.8 7.204 12v12l-7.204 12-4.796 4.8-12 4.8h-12l-12-4.8-4.801-4.8-4.801-12v-12m4.801-12 12-4.8h21.597l12 4.8m0 36-12 4.8h-21.597l-12-4.8m4.801 4.8-4.801 4.8-4.801 12h4.801v-12m40.801-50.4 4.796-7.2 12-4.8h7.204l9.597 4.8 7.199 19.2v28.8l4.801 16.8 7.199 4.8m-28.796-74.4 4.796 4.8 4.801 19.2v28.8l7.199 16.8 12 4.8h4.801l12-4.8 4.801-16.8v-36l-4.801-16.8-12-7.2h-4.801l-12 7.2-7.199 16.8m-120 103.2 4.801-4.8 7.199 4.8-7.199 7.2-4.801-7.2m40.801 0h79.199m-79.199 7.2h79.199m-79.199-24v24m79.199-24v40.8m-79.199 40.8h79.199m-79.199 4.8h79.199m-62.398 0-12 12-4.801 16.8v12l4.801 16.8 12 7.2h62.398m-79.199-24 4.801 12 12 4.8h62.398m-79.199-79.2v21.6m79.199-21.6v40.8m0 21.6v40.8m-45.597 33.6v69.6h-12l-12-4.8-4.801-4.8-4.801-12v-19.2l4.801-16.8 12-12 16.801-4.8h12l16.796 4.8 12 12 4.801 16.8v12l-4.801 19.2-12 9.6m-28.796-4.8h-16.801l-12-4.8m-4.801-31.2 4.801-9.6 12-12 16.801-7.2h12l16.796 7.2 12 12 4.801 9.6m-144 76.8 12 12 16.801 9.6 24 12 28.801 7.2h21.597l31.204-7.2 21.597-12 16.801-9.6 12-12m-172.8 12 24 9.6 16.801 7.2 28.801 4.8h21.597l31.204-4.8 16.796-7.2 21.602-9.6"/><path d="m2740.8 1920-24-120m31.2 120-24-120m14.4 103.2-9.6 12-9.6 4.8h-12l-19.2-4.8-14.4-12-7.2-16.8-2.4-12 2.4-16.8 7.2-12 16.8-7.2h12l12 7.2 14.4 12m-21.6 62.4-12-4.8-14.4-12-9.6-16.8-2.4-12 2.4-16.8 9.6-12 9.6-7.2m9.6-38.4h40.8"/><path d="m2798.4 1826.4v-4.8h-2.4v4.8l2.4 2.4 7.2 4.8h14.4l7.2-4.8 2.4-2.4 2.4-7.2v-24l4.8-7.2 2.4-4.8m-9.6 43.2v-31.2l2.4-7.2 7.2-4.8h4.8m-14.4 36-2.4-4.8-21.6-2.4-9.6-4.8-4.8-4.8v-7.2l4.8-7.2 9.6-4.8h9.6l7.2 4.8 7.2 7.2m-24 16.8-7.2-4.8-2.4-4.8v-7.2l2.4-7.2 7.2-4.8m88.8 43.2 4.8 7.2v-14.4l-4.8 7.2-2.4 2.4-7.2 4.8h-14.4l-7.2-4.8-2.4-2.4v-7.2l2.4-4.8 7.2-2.4 19.2-7.2 4.8-2.4 4.8-4.8m-38.4 24 2.4-2.4 7.2-4.8 19.2-7.2 4.8-2.4 4.8-2.4v-12l-4.8-2.4-4.8-4.8h-14.4l-7.2 4.8-4.8 2.4-2.4 7.2v-14.4l2.4 7.2m62.4 43.2v-74.4m4.8 74.4v-74.4m0 62.4 7.2 7.2 7.2 4.8h4.8l12-4.8 7.2-7.2 2.4-9.6v-7.2l-2.4-9.6-7.2-7.2-12-4.8h-4.8l-7.2 4.8-7.2 7.2m19.2 38.4 7.2-4.8 7.2-7.2 4.8-9.6v-7.2l-4.8-9.6-7.2-7.2-7.2-4.8m-33.6 50.4h14.4m-14.4-74.4h24m55.2 52.8h43.2v7.2l-4.8 7.2-2.4 2.4-7.2 4.8h-12l-9.6-4.8-7.2-7.2-2.4-9.6v-7.2l2.4-9.6 7.2-7.2 9.6-4.8h7.2l12 4.8 7.2 7.2m-4.8 16.8v9.6l-2.4 7.2m-19.2 4.8-4.8-4.8-7.2-7.2-4.8-9.6v-7.2l4.8-9.6 7.2-7.2 4.8-4.8m88.8 38.4-4.8-2.4 4.8-4.8 2.4 4.8v2.4l-7.2 7.2-7.2 4.8h-9.6l-9.6-4.8-7.2-7.2-4.8-9.6v-7.2l4.8-9.6"/><path d="m3062.4 1795.2 7.2-7.2 9.6-4.8h7.2l9.6 4.8 7.2 7.2m-24 38.4-7.2-4.8-7.2-7.2-2.4-9.6v-7.2l2.4-9.6 7.2-7.2 7.2-4.8m52.8 74.4v-60l2.4-9.6 7.2-4.8h7.2l7.2 4.8 2.4 7.2m-24 62.4v-60l2.4-9.6 4.8-4.8m-21.6 50.4h28.8"/><path d="m3321.6 1984.8-12-12-12-16.8-9.6-24-7.2-28.8v-24l7.2-28.8 9.6-21.6 12-19.2 12-9.6m-12 172.8-12-24-4.8-16.8-4.8-28.8v-24l4.8-28.8 4.8-16.8 12-24m57.6 110.4v-81.6m7.2 81.6v-81.6m0 64.8 9.6 12 19.2 4.8h9.6l19.2-4.8 4.8-12v-64.8m-24 81.6 12-4.8 7.2-12v-64.8m4.8 64.8 12 12 16.8 4.8h12l16.8-4.8 7.2-12v-64.8m-24 81.6 12-4.8 4.8-12v-64.8m-144 81.6h24m-24-81.6h40.8m21.6 0h40.8m24 0h40.8m62.4 81.6-16.8-4.8-12-12-4.8-16.8v-12l4.8-16.8 12-12 16.8-7.2h12l16.8 7.2 12 12 7.2 16.8v12l-7.2 16.8-12 12-16.8 4.8h-12l-12-4.8-9.6-12-7.2-16.8v-12l7.2-16.8 9.6-12 12-7.2m12 0 12 7.2 12 12 4.8 16.8v12l-4.8 16.8-12 12-12 4.8m139.2 40.8v-122.4m4.8 122.4v-122.4m-4.8 64.8-12 12-12 4.8h-12l-16.8-4.8-12-12-4.8-16.8v-12l4.8-16.8 12-12 16.8-7.2h12l12 7.2 12 12m-36 62.4-9.6-4.8-12-12-7.2-16.8v-12l7.2-16.8 12-12 9.6-7.2m19.2 122.4h21.6m-4.8-122.4h21.6m36 48h69.6v12l-7.2 9.6-4.8 7.2-12 4.8h-16.8l-16.8-4.8-12-12-4.8-16.8v-12l4.8-16.8 12-12 16.8-7.2h12l16.8 7.2 12 12m-7.2 28.8v16.8l-4.8 12m-28.8 4.8-12-4.8-12-12-4.8-16.8v-12l4.8-16.8 12-12 12-7.2m86.4 122.4v-122.4m4.8 122.4v-122.4m-21.6 122.4h21.6m-21.6-122.4h40.8m28.8 146.4 12-12 9.6-16.8 12-24 7.2-28.8v-24l-7.2-28.8-12-21.6-9.6-19.2-12-9.6m12 172.8 9.6-24 7.2-16.8 4.8-28.8v-24l-4.8-28.8-7.2-16.8-9.6-24"/></g></g><g><g><path d="m767.33 237.67h0.24"/><path d="m767.57 237.67h0.48v0.24h0.24v0.24h0.24v0.24l0.24 0.24v0.48h0.24v0.72h0.24v0.72l0.24 0.24v0.96h0.24v0.96h0.24v1.2l0.24 0.24v1.2l0.24 0.24v1.2l0.24 0.24v0.96l0.24 0.48v1.44l0.24 0.24v1.44l0.24 0.48v1.2l0.24 0.24v1.44l0.24 0.24v1.44l0.24 0.48v1.68l0.24 0.48v1.44l0.24 0.72v1.2l0.24 0.48v1.2l0.24 0.72v1.2l0.24 0.72v1.44l0.24 0.72v1.44l0.24 0.72v1.44l0.24 0.96v0.72l0.24 0.72v1.68l0.24 0.96v0.96l0.24 0.72v0.96l0.24 0.96v1.92l0.24 0.96v0.96l0.24 0.96v0.96l0.24 0.96v1.2l0.24 0.96v1.2l0.24 0.96 0.24 1.2"/><path d="m776.45 293.59v1.2l0.24 0.96v1.2l0.24 1.2v1.2l0.24 1.2 0.24 1.2v1.44l0.24 1.2v1.2l0.24 1.44 0.24 1.2 0.24 1.44v1.2l0.24 1.44 0.24 1.44v1.44l0.24 1.44 0.24 1.44 0.24 1.44 0.24 1.44v1.44l0.24 1.68 0.24 1.44 0.24 1.44 0.24 1.68 0.24 1.68v1.44l0.24 1.68 0.24 1.68 0.24 1.68 0.24 1.68 0.24 1.68 0.24 1.68 0.24 1.92 0.24 1.68 0.24 1.68 0.24 1.92 0.48 1.68 0.24 1.92 0.24 1.92 0.24 1.68 0.24 1.92 0.24 1.92 0.48 1.92 0.24 1.92 0.24 1.92 0.48 2.16 0.24 1.92 0.24 1.92 0.48 2.16 0.24 1.92 0.48 2.16 0.24 1.92 0.48 2.16 0.24 2.16 0.48 2.16 0.48 2.16 0.24 2.16 0.48 2.16 0.48 2.16 0.24 2.16 0.48 2.16 0.48 2.16 0.48 2.4 0.48 2.16 0.48 2.4 0.48 2.16 0.48 2.4 0.48 2.16 0.48 2.4 0.48 2.4 0.48 2.16 0.72 2.4 0.48 2.4 0.48 2.4 0.72 2.4 0.48 2.4 0.72 2.4 0.72 2.4 0.48 2.4 0.72 2.4 0.72 2.4 0.72 2.4 0.48 2.64 0.72 2.4 0.72 2.4 0.72 2.4 0.96 2.64 0.72 2.4 0.72 2.4 0.96 2.64 0.72 2.4 0.96 2.64 0.72 2.4 0.96 2.64 0.96 2.4 0.72 2.4 0.96 2.64 0.96 2.4 1.2 2.64 0.96 2.4 0.96 2.64 1.2 2.4 0.96 2.64 1.2 2.4 0.96 2.4 1.2 2.64 1.2 2.4 1.2 2.4 1.44 2.64 1.2 2.4 1.2 2.4 1.44 2.64 1.44 2.4 1.2 2.4 1.44 2.4 1.68 2.4 1.44 2.4 1.44 2.64 1.68 2.16 1.68 2.4 1.44 2.4 1.68 2.4 1.92 2.4 1.68 2.4 1.92 2.16 1.68 2.4 1.92 2.4 2.16 2.16 1.92 2.16 1.92 2.4 2.16 2.16 2.16 2.16 2.16 2.16 2.4 2.16 2.16 2.16 2.4 2.16 2.4 2.16 2.4 2.16 2.64 1.92 2.64 2.16 2.64 1.92 2.64 1.92 2.88 2.16 2.88 1.92 2.88 1.92 3.12 1.92 2.88 1.68 3.36 1.92 3.12 1.92 3.36 1.68 3.36 1.68 3.36 1.92 3.6 1.68 3.6 1.68 3.84 1.44 3.84 1.68 3.84 1.68 4.08 1.44 4.08 1.44 4.08 1.44 4.32 1.68 4.56 1.2 4.56 1.44 4.56 1.44 4.8 1.2 4.8 1.44 5.04 1.2 5.04 1.2 5.28 1.2 5.28 0.96 5.52 1.2 5.52 0.96 5.76 1.2 6 0.96 6 0.96 6.24 0.72 6.24 0.96 6.48 0.72 6.72 0.96 6.72 0.72 6.96 0.72 7.2 0.72 7.2 0.48 7.44 0.72 7.68 0.48 7.92 0.48 7.92 0.48 8.16 0.48 8.4 0.48 8.64 0.24 8.88 0.24 8.88 0.24 9.36 0.24 9.36 0.24 9.6 0.24h10.08l10.08 0.24h10.32"/></g><path d="m1217.8 237.67v455.04" stroke-dasharray="1.44, 2.88"/><g><path d="m762.77 237.67h455.04v455.04h-455.04v-455.04h455.04m-455.04 0h455.04"/><path d="m762.77 237.67v12.24"/><path d="m762.05 227.11-1.68-0.48-1.2-1.92-0.48-2.88v-1.68l0.48-2.88 1.2-1.68 1.68-0.72h1.2l1.68 0.72 1.2 1.68 0.72 2.88v1.68l-0.72 2.88-1.2 1.92-1.68 0.48h-1.2l-1.2-0.48-0.48-0.72-0.48-1.2-0.72-2.88v-1.68l0.72-2.88 0.48-1.2 0.48-0.48 1.2-0.72m1.2 0 1.2 0.72 0.48 0.48 0.72 1.2 0.48 2.88v1.68l-0.48 2.88-0.72 1.2-0.48 0.72-1.2 0.48"/><path d="m785.57 237.67v6m22.56-6v6m22.8-6v6m22.8-6v12.24"/><path d="m844.37 227.11-1.68-0.48-1.2-1.92-0.48-2.88v-1.68l0.48-2.88 1.2-1.68 1.68-0.72h1.2l1.68 0.72 1.2 1.68 0.72 2.88v1.68l-0.72 2.88-1.2 1.92-1.68 0.48h-1.2l-0.96-0.48-0.72-0.72-0.48-1.2-0.72-2.88v-1.68l0.72-2.88 0.48-1.2 0.72-0.48 0.96-0.72m1.2 0 1.2 0.72 0.48 0.48 0.72 1.2 0.48 2.88v1.68l-0.48 2.88-0.72 1.2-0.48 0.72-1.2 0.48m8.16-11.04-0.48-0.48 0.48-0.72 0.48 0.72-0.48 0.48m5.28 8.64 0.48-0.48-0.48-0.72-0.72 0.72v0.48l0.72 1.2 0.48 0.72 1.68 0.48h2.4l1.68-0.48 0.72-0.72 0.48-1.2v-1.2l-0.48-0.96-1.92-1.2-2.88-1.2-1.2-0.48"/><path d="m859.97 219.67-0.96-1.2-0.72-1.68v-1.92m5.28 12.24 1.2-0.48 0.48-0.72 0.72-1.2v-1.2l-0.72-0.96-1.68-1.2-2.4-1.2m-2.88-4.08 0.72 0.72h0.96l2.88-1.2h1.92l1.2 0.48 0.48 0.72m-6.48 0 2.88-1.92h2.4l0.72 0.72 0.48 1.2v0.96"/><path d="m876.53 237.67v6m22.8-6v6m22.56-6v6m22.8-6v12.24"/><path d="m935.57 227.11-1.92-0.48-0.96-1.92-0.72-2.88v-1.68l0.72-2.88 0.96-1.68 1.92-0.72h1.2l1.68 0.72 1.2 1.68 0.48 2.88v1.68l-0.48 2.88-1.2 1.92-1.68 0.48h-1.2l-1.2-0.48-0.72-0.72-0.48-1.2-0.48-2.88v-1.68l0.48-2.88 0.48-1.2 0.72-0.48 1.2-0.72m1.2 0 0.96 0.72 0.72 0.48 0.48 1.2 0.72 2.88v1.68l-0.72 2.88-0.48 1.2-0.72 0.72-0.96 0.48m7.92-11.04-0.48-0.48 0.48-0.72 0.72 0.72-0.72 0.48m9.84 9.84v-11.04m0.72 12.24v-12.24m0 12.24-6.48-8.64h9.36m-5.28-3.6h4.08"/><path d="m967.49 237.67v6m22.8-6v6m22.8-6v6m22.8-6v12.24"/><path d="m1026.5 227.11-1.68-0.48-1.2-1.92-0.48-2.88v-1.68l0.48-2.88 1.2-1.68 1.68-0.72h1.2l1.68 0.72 1.2 1.68 0.48 2.88v1.68l-0.48 2.88-1.2 1.92-1.68 0.48h-1.2l-1.2-0.48-0.48-0.72-0.72-1.2-0.48-2.88v-1.68l0.48-2.88 0.72-1.2 0.48-0.48 1.2-0.72m1.2 0 1.2 0.72 0.48 0.48 0.48 1.2 0.72 2.88v1.68l-0.72 2.88-0.48 1.2-0.48 0.72-1.2 0.48m8.16-11.04-0.72-0.48 0.72-0.72 0.48 0.72-0.48 0.48m11.52 9.36-0.72-0.72 0.72-0.48 0.48 0.48v0.72l-0.48 1.2-1.2 0.48h-1.68l-1.92-0.48-0.96-1.2-0.72-1.2-0.48-2.4v-3.36l0.48-1.68 1.2-1.2 1.68-0.72h1.2l1.68 0.72 1.2 1.2 0.48 1.68v0.48l-0.48 1.68-1.2 1.2-1.68 0.72h-0.48l-1.92-0.72-0.96-1.2-0.72-1.68m3.6 8.16-1.2-0.48-1.2-1.2-0.48-1.2-0.72-2.4v-3.36l0.72-1.68 0.96-1.2 1.2-0.72m1.2 0 1.2 0.72 1.2 1.2 0.48 1.68v0.48l-0.48 1.68-1.2 1.2-1.2 0.72"/><path d="m1058.5 237.67v6m22.8-6v6m22.8-6v6m22.8-6v12.24"/><path d="m1117.5 227.11-1.68-0.48-1.2-1.92-0.48-2.88v-1.68l0.48-2.88 1.2-1.68 1.68-0.72h1.2l1.68 0.72 1.2 1.68 0.72 2.88v1.68l-0.72 2.88-1.2 1.92-1.68 0.48h-1.2l-1.2-0.48-0.48-0.72-0.48-1.2-0.72-2.88v-1.68l0.72-2.88 0.48-1.2 0.48-0.48 1.2-0.72m1.2 0 1.2 0.72 0.48 0.48 0.72 1.2 0.48 2.88v1.68l-0.48 2.88-0.72 1.2-0.48 0.72-1.2 0.48m8.16-11.04-0.72-0.48 0.72-0.72 0.48 0.72-0.48 0.48m7.44 11.04-1.68-0.48-0.72-1.2v-1.92l0.72-0.96 1.68-0.72h2.4l1.68 0.72 0.48 0.96v1.92l-0.48 1.2-1.68 0.48h-2.4l-1.2-0.48-0.48-1.2v-1.92l0.48-0.96 1.2-0.72m2.4 0 1.2 0.72 0.48 0.96v1.92l-0.48 1.2-1.2 0.48m-2.4-5.28-1.68-0.48-0.72-0.72-0.48-0.96v-2.4l0.48-1.2 0.72-0.48 1.68-0.72h2.4l1.68 0.72 0.48 0.48 0.72 1.2v2.4l-0.72 0.96-0.48 0.72-1.68 0.48m-2.4 0-1.2-0.48-0.48-0.72-0.72-0.96v-2.4l0.72-1.2 0.48-0.48 1.2-0.72m2.4 0 1.2 0.72 0.48 0.48 0.48 1.2v2.4l-0.48 0.96-0.48 0.72-1.2 0.48"/><path d="m1149.7 237.67v6m22.56-6v6m22.8-6v6m22.8-6v12.24"/><path d="m1215.4 224.71 1.2 0.72 1.68 1.68v-12.24m-0.48 11.76v-11.76m-2.4 0h5.28"/><path d="m762.77 692.71h455.04"/><path d="m762.77 692.71v-12.24m22.8 12.24v-6.24m22.56 6.24v-6.24m22.8 6.24v-6.24m22.8 6.24v-12.24m22.8 12.24v-6.24m22.8 6.24v-6.24m22.56 6.24v-6.24m22.8 6.24v-12.24m22.8 12.24v-6.24m22.8 6.24v-6.24m22.8 6.24v-6.24m22.8 6.24v-12.24m22.56 12.24v-6.24m22.8 6.24v-6.24m22.8 6.24v-6.24m22.8 6.24v-12.24m22.8 12.24v-6.24m22.56 6.24v-6.24m22.8 6.24v-6.24m22.8 6.24v-12.24m-455.04-442.8v455.04"/><path d="m762.77 237.67h12.24"/><path d="m745.73 243.67-1.6801-0.48-1.2-1.92-0.4801-2.88v-1.68l0.4801-2.88 1.2-1.68 1.6801-0.72h1.2l1.6796 0.72 1.2 1.68 0.7204 2.88v1.68l-0.7204 2.88-1.2 1.92-1.6796 0.48h-1.2l-0.9602-0.48-0.7199-0.72-0.4801-1.2-0.7199-2.88v-1.68l0.7199-2.88"/><path d="m743.57 233.83 0.4801-1.2 0.7199-0.48 0.9602-0.72m1.2 0 1.2 0.72 0.4796 0.48 0.7204 1.2 0.4796 2.88v1.68l-0.4796 2.88-0.7204 1.2-0.4796 0.72-1.2 0.48"/><path d="m762.77 258.31h6m-6 20.64h6m-6 20.64h6m-6 20.64h12.24"/><path d="m728.45 326.47-1.6801-0.72-1.2-1.68-0.4801-2.88v-1.68l0.4801-2.88 1.2-1.68 1.6801-0.72h1.2l1.6801 0.72 1.2 1.68 0.4796 2.88v1.68l-0.4796 2.88-1.2 1.68-1.6801 0.72h-1.2l-1.2-0.72-0.4801-0.48-0.4801-1.2-0.7199-2.88v-1.68l0.7199-2.88 0.4801-1.2 0.4801-0.48 1.2-0.72m1.2 0 1.2 0.72 0.4801 0.48 0.7199 1.2 0.4801 2.88v1.68l-0.4801 2.88-0.7199 1.2-0.4801 0.48-1.2 0.72m8.1597-11.04-0.7199-0.48 0.7199-0.72 0.4801 0.72-0.4801 0.48m5.0403 8.64 0.7199-0.48-0.7199-0.72-0.4801 0.72v0.48l0.4801 1.2 0.7199 0.48 1.6801 0.72h2.4l1.6801-0.72 0.4796-0.48 0.7204-1.2v-1.2l-0.7204-0.96-1.6796-1.2-2.8801-1.2-1.2-0.72-1.2-0.96-0.4801-1.92v-1.68m5.2801 12.24 0.9597-0.72 0.7204-0.48 0.4796-1.2v-1.2l-0.4796-0.96-1.6801-1.2-2.4-1.2m-2.8801-4.08 0.4801 0.48h1.2l2.8801-0.96h1.6796l1.2 0.48 0.7204 0.48m-6.4801 0 2.8801-1.68h2.4l0.4796 0.72 0.7204 0.96v1.2"/><path d="m762.77 341.11h6m-6 20.64h6m-6 20.64h6m-6 20.64h12.24"/><path d="m728.45 409.27-1.6801-0.72-1.2-1.68-0.4801-2.88v-1.68l0.4801-2.88 1.2-1.92 1.6801-0.48h1.2l1.6801 0.48 1.2 1.92 0.4796 2.88v1.68l-0.4796 2.88-1.2 1.68-1.6801 0.72h-1.2l-1.2-0.72-0.4801-0.48-0.4801-1.2-0.7199-2.88v-1.68l0.7199-2.88 0.4801-1.2 0.4801-0.72 1.2-0.48m1.2 0 1.2 0.48 0.4801 0.72 0.7199 1.2 0.4801 2.88v1.68l-0.4801 2.88-0.7199 1.2-0.4801 0.48-1.2 0.72m8.1597-11.04-0.7199-0.72 0.7199-0.48 0.4801 0.48-0.4801 0.72m9.8403 9.84v-11.04m0.4801 12.24v-12.24m0 12.24-6.2403-8.88h9.1199m-5.2796-3.36h4.0796"/><path d="m762.77 423.67h6m-6 20.88h6m-6 20.64h6m-6 20.64h12.24"/><path d="m728.45 491.83-1.6801-0.48-1.2-1.68-0.4801-2.88v-1.92l0.4801-2.88 1.2-1.68 1.6801-0.48h1.2l1.6801 0.48 1.2 1.68 0.4796 2.88v1.92l-0.4796 2.88-1.2 1.68-1.6801 0.48h-1.2l-1.2-0.48-0.4801-0.48-0.4801-1.2-0.7199-2.88v-1.92l0.7199-2.88 0.4801-0.96 0.4801-0.72 1.2-0.48m1.2 0 1.2 0.48 0.4801 0.72 0.7199 0.96 0.4801 2.88v1.92l-0.4801 2.88-0.7199 1.2-0.4801 0.48-1.2 0.48m8.1597-10.8-0.7199-0.72 0.7199-0.48 0.4801 0.48-0.4801 0.72m11.52 9.12-0.7204-0.48 0.7204-0.72 0.4796 0.72v0.48l-0.4796 1.2-1.2 0.48h-1.6801l-1.6801-0.48-1.2-1.2-0.7199-1.2-0.4801-2.16v-3.6l0.4801-1.68 1.2-1.2 1.6801-0.48h1.2l1.6796 0.48 1.2 1.2 0.7204 1.68v0.72l-0.7204 1.68-1.2 1.2-1.6796 0.48h-0.4801l-1.6801-0.48-1.2-1.2-0.7199-1.68m3.6 7.92-1.2-0.48-1.2-1.2-0.4801-1.2-0.7199-2.16v-3.6l0.7199-1.68 1.2-1.2 0.9602-0.48m1.2 0 1.2 0.48 1.2 1.2 0.4796 1.68v0.72l-0.4796 1.68-1.2 1.2-1.2 0.48"/><path d="m762.77 506.47h6m-6 20.64h6m-6 20.88h6m-6 20.64h12.24"/><path d="m728.45 574.63-1.6801-0.48-1.2-1.68-0.4801-3.12v-1.68l0.4801-2.88 1.2-1.68 1.6801-0.48h1.2l1.6801 0.48 1.2 1.68 0.4796 2.88v1.68l-0.4796 3.12-1.2 1.68-1.6801 0.48h-1.2l-1.2-0.48-0.4801-0.72-0.4801-0.96-0.7199-3.12v-1.68l0.7199-2.88 0.4801-1.2 0.4801-0.48 1.2-0.48m1.2 0 1.2 0.48 0.4801 0.48 0.7199 1.2 0.4801 2.88v1.68l-0.4801 3.12-0.7199 0.96-0.4801 0.72-1.2 0.48m8.1597-11.04-0.7199-0.48 0.7199-0.48 0.4801 0.48-0.4801 0.48m7.4403 11.04-1.6801-0.48-0.7199-1.2v-1.68l0.7199-1.2 1.6801-0.72h2.4l1.6801 0.72 0.4796 1.2v1.68l-0.4796 1.2-1.6801 0.48h-2.4l-1.2-0.48-0.4801-1.2v-1.68l0.4801-1.2 1.2-0.72m2.4 0 0.9597 0.72 0.7204 1.2v1.68l-0.7204 1.2-0.9597 0.48m-2.4-5.28-1.6801-0.48-0.7199-0.48-0.4801-1.2v-2.4l0.4801-1.2 0.7199-0.48 1.6801-0.48h2.4l1.6801 0.48 0.4796 0.48 0.7204 1.2v2.4l-0.7204 1.2-0.4796 0.48"/><path d="m749.33 568.87-1.6801 0.48m-2.4 0-1.2-0.48-0.4801-0.48-0.7199-1.2v-2.4l0.7199-1.2 0.4801-0.48 1.2-0.48m2.4 0 0.9597 0.48 0.7204 0.48 0.4796 1.2v2.4l-0.4796 1.2-0.7204 0.48-0.9597 0.48"/><path d="m762.77 589.27h6m-6 20.64h6m-6 20.64h6m-6 20.88h12.24"/><path d="m744.05 655.03 1.2 0.72 1.6801 1.68v-12.24m-0.4801 11.76v-11.76m-2.4 0h5.2801"/><path d="m762.77 672.07h6m-6 20.64h6m449.04-455.04v455.04"/><path d="m1217.8 237.67h-12.24m12.24 20.64h-6.24m6.24 20.64h-6.24m6.24 20.64h-6.24m6.24 20.64h-12.24m12.24 20.88h-6.24m6.24 20.64h-6.24m6.24 20.64h-6.24m6.24 20.64h-12.24m12.24 20.64h-6.24m6.24 20.88h-6.24m6.24 20.64h-6.24m6.24 20.64h-12.24m12.24 20.64h-6.24m6.24 20.64h-6.24m6.24 20.88h-6.24m6.24 20.64h-12.24m12.24 20.64h-6.24m6.24 20.64h-6.24m6.24 20.64h-6.24m6.24 20.88h-12.24m12.24 20.64h-6.24m6.24 20.64h-6.24"/><path d="m930.05 198.07-2.4-12m3.12 12-2.4-12m1.44 10.32-0.96 1.2-0.96 0.48h-1.2l-1.92-0.48-1.44-1.2-0.72-1.68-0.24-1.2 0.24-1.68 0.72-1.2 1.68-0.72h1.2l1.2 0.72 1.44 1.2m-2.16 6.24-1.2-0.48-1.44-1.2-0.96-1.68-0.24-1.2 0.24-1.68 0.96-1.2 0.96-0.72m0.96-3.84h4.08"/><path d="m935.81 188.71v-0.48h-0.24v0.48l0.24 0.24 0.72 0.48h1.44l0.72-0.48 0.24-0.24 0.24-0.72v-2.4l0.48-0.72 0.24-0.48m-0.96 4.32v-3.12l0.24-0.72 0.72-0.48h0.48m-1.44 3.6-0.24-0.48-2.16-0.24-0.96-0.48-0.48-0.48v-0.72l0.48-0.72 0.96-0.48h0.96l0.72 0.48 0.72 0.72m-2.4 1.68-0.72-0.48-0.24-0.48v-0.72l0.24-0.72 0.72-0.48m8.88 4.32 0.48 0.72v-1.44l-0.48 0.72-0.24 0.24-0.72 0.48h-1.44l-0.72-0.48-0.24-0.24v-0.72l0.24-0.48 0.72-0.24 1.92-0.72 0.48-0.24 0.48-0.48m-3.84 2.4 0.24-0.24 0.72-0.48 1.92-0.72 0.48-0.24 0.48-0.24v-1.2l-0.48-0.24-0.48-0.48h-1.44l-0.72 0.48-0.48 0.24-0.24 0.72v-1.44l0.24 0.72m6.24 4.32v-7.44m0.48 7.44v-7.44m0 6.24 0.72 0.72 0.72 0.48h0.48l1.2-0.48 0.72-0.72 0.24-0.96v-0.72l-0.24-0.96-0.72-0.72-1.2-0.48h-0.48l-0.72 0.48-0.72 0.72m1.92 3.84 0.72-0.48 0.72-0.72 0.48-0.96v-0.72l-0.48-0.96-0.72-0.72-0.72-0.48m-3.36 5.04h1.44m-1.44-7.44h2.4m5.52 5.28h4.32v0.72l-0.48 0.72-0.24 0.24-0.72 0.48h-1.2l-0.96-0.48-0.72-0.72-0.24-0.96v-0.72l0.24-0.96 0.72-0.72 0.96-0.48h0.72l1.2 0.48 0.72 0.72m-0.48 1.68v0.96l-0.24 0.72m-1.92 0.48-0.48-0.48-0.72-0.72-0.48-0.96v-0.72l0.48-0.96 0.72-0.72 0.48-0.48m8.88 3.84-0.48-0.24 0.48-0.48 0.24 0.48v0.24l-0.72 0.72-0.72 0.48h-0.96l-0.96-0.48-0.72-0.72-0.48-0.96v-0.72l0.48-0.96 0.72-0.72 0.96-0.48h0.72l0.96 0.48 0.72 0.72m-2.4 3.84-0.72-0.48-0.72-0.72-0.24-0.96v-0.72l0.24-0.96 0.72-0.72 0.72-0.48m5.28 7.44v-6l0.24-0.96 0.72-0.48h0.72l0.72 0.48 0.24 0.72m-2.4 6.24v-6l0.24-0.96 0.48-0.48m-2.16 5.04h2.88"/><path d="m988.13 204.55-1.2-1.2-1.2-1.68-0.96-2.4-0.72-2.88v-2.4l0.72-2.88 0.96-2.16 1.2-1.92 1.2-0.96m-1.2 17.28-1.2-2.4-0.48-1.68-0.48-2.88v-2.4l0.48-2.88 0.48-1.68 1.2-2.4m5.76 11.04v-8.16m0.72 8.16v-8.16m0 6.48 0.96 1.2 1.92 0.48h0.96l1.92-0.48 0.48-1.2v-6.48m-2.4 8.16 1.2-0.48 0.72-1.2v-6.48m0.48 6.48 1.2 1.2 1.68 0.48h1.2l1.68-0.48 0.72-1.2v-6.48m-2.4 8.16 1.2-0.48 0.48-1.2v-6.48m-14.4 8.16h2.4m-2.4-8.16h4.08m2.16 0h4.08m2.4 0h4.08m6.24 8.16-1.68-0.48-1.2-1.2-0.48-1.68v-1.2l0.48-1.68 1.2-1.2 1.68-0.72h1.2l1.68 0.72 1.2 1.2 0.72 1.68v1.2l-0.72 1.68-1.2 1.2-1.68 0.48h-1.2l-1.2-0.48-0.96-1.2-0.72-1.68v-1.2l0.72-1.68 0.96-1.2 1.2-0.72m1.2 0 1.2 0.72 1.2 1.2 0.48 1.68v1.2l-0.48 1.68-1.2 1.2-1.2 0.48m13.92 4.08v-12.24m0.48 12.24v-12.24m-0.48 6.48-1.2 1.2-1.2 0.48h-1.2l-1.68-0.48-1.2-1.2-0.48-1.68v-1.2l0.48-1.68 1.2-1.2 1.68-0.72h1.2l1.2 0.72 1.2 1.2"/><path d="m1025.6 198.07-0.96-0.48-1.2-1.2-0.72-1.68v-1.2l0.72-1.68 1.2-1.2 0.96-0.72m1.92 12.24h2.16m-0.48-12.24h2.16m3.6 4.8h6.96v1.2l-0.72 0.96-0.48 0.72-1.2 0.48h-1.68l-1.68-0.48-1.2-1.2-0.48-1.68v-1.2l0.48-1.68 1.2-1.2 1.68-0.72h1.2l1.68 0.72 1.2 1.2m-0.72 2.88v1.68l-0.48 1.2m-2.88 0.48-1.2-0.48-1.2-1.2-0.48-1.68v-1.2l0.48-1.68 1.2-1.2 1.2-0.72m8.64 12.24v-12.24m0.48 12.24v-12.24m-2.16 12.24h2.16m-2.16-12.24h4.08m2.88 14.64 1.2-1.2 0.96-1.68 1.2-2.4 0.72-2.88v-2.4l-0.72-2.88-1.2-2.16-0.96-1.92-1.2-0.96m1.2 17.28 0.96-2.4 0.72-1.68 0.48-2.88v-2.4l-0.48-2.88-0.72-1.68-0.96-2.4"/><path d="m700.61 401.11h8.1602m-8.1602 0.48h8.1602m-4.5602 0-1.9199 0.72-0.9597 0.96-0.7204 1.2v1.68l0.7204 0.72h0.4796l0.4801-0.72-0.4801-0.48-0.4796 0.48m-0.7204-6.96v2.4m8.1602-2.4v4.08m-4.5602 6.96v6.96h-1.2l-1.2-0.48-0.4796-0.72-0.7204-1.2v-1.68l0.7204-1.68 0.9597-1.2 1.9199-0.48h1.2l1.6801 0.48 1.2 1.2 0.4801 1.68v1.2l-0.4801 1.68-1.2 1.2m-2.8801-0.48h-1.9199l-0.9597-0.72m-0.7204-2.88 0.7204-1.2 0.9597-0.96 1.9199-0.72h1.2l1.6801 0.72 1.2 0.96 0.4801 1.2m-12.24 8.64h12.24m-12.24 0.72h12.24m-12.24-2.4v2.4m12.24-2.4v4.08m-6.9602 4.08h0.4801v-0.72h-0.4801l-0.4796 0.72-0.7204 1.2v2.16l0.7204 1.2 0.4796 0.48 1.2 0.72h4.0801l1.2 0.48 0.4801 0.72m-6.9602-1.92h5.2801l1.2 0.72 0.4801 1.2v0.48m-5.7602-2.4 0.4801-0.48 0.7199-3.36 0.4801-1.92 1.2-0.48h1.2l1.2 0.48 0.4801 1.92v1.68l-0.4801 1.2-1.2 0.96m-2.8801-3.84 0.4801-1.2 1.2-0.72h1.2l1.2 0.72 0.4801 1.2m-12.24 10.32h9.8398l1.9199 0.48 0.4801 1.2v1.2l-0.4801 1.2-1.2 0.48m-10.56-4.08h9.8398l1.9199 0.72 0.4801 0.48m-8.1602-3.36v4.56m-4.0796 5.76 0.7199-0.48 0.4801 0.48-0.4801 0.48-0.7199-0.48m4.0796 0h8.1602m-8.1602 0.48h8.1602m-8.1602-2.16v2.16m8.1602-2.16v4.08m-8.1602 2.88 8.1602 3.36m-8.1602-2.88 6.9602 2.88m-6.9602 3.6 8.1602-3.6m-8.1602-4.56v3.36m0 2.4v3.36m3.6 2.88v6.96h-1.2l-1.2-0.48-0.4796-0.48-0.7204-1.2v-1.92l0.7204-1.68 0.9597-1.2 1.9199-0.48h1.2l1.6801 0.48 1.2 1.2 0.4801 1.68v1.2l-0.4801 1.92-1.2 0.96m-2.8801-0.48h-1.9199l-0.9597-0.48m-0.7204-3.12 0.7204-0.96 0.9597-1.2 1.9199-0.72h1.2l1.6801 0.72 1.2 1.2 0.4801 0.96m-8.1602 18h12.24m-12.24 0.72h12.24m-10.56 0-0.9597 0.96-0.7204 1.2v1.2l0.7204 1.68 0.9597 1.2 1.9199 0.48h1.2l1.6801-0.48 1.2-1.2 0.4801-1.68v-1.2l-0.4801-1.2-1.2-0.96m-6.4801 3.36 0.7204 1.2 0.9597 1.2 1.9199 0.48h1.2l1.6801-0.48 1.2-1.2 0.4801-1.2m-8.1602-5.76v2.4m12.24-2.4v4.08m-12.24 9.84h8.1602m-8.1602 0.48h8.1602m-4.5602 0-1.9199 0.48-0.9597 1.2-0.7204 1.2v1.68l0.7204 0.72h0.4796l0.4801-0.72-0.4801-0.48-0.4796 0.48m-0.7204-6.96v2.4m8.1602-2.4v4.08m-12.24 7.68 0.7199-0.72 0.4801 0.72-0.4801 0.48-0.7199-0.48m4.0796 0h8.1602m-8.1602 0.48h8.1602m-8.1602-2.4v2.4m8.1602-2.4v4.08m-8.1602 6.48 0.7204-1.92 0.9597-0.96 1.9199-0.72h1.2l1.6801 0.72 1.2 0.96 0.4801 1.92v0.96l-0.4801 1.92-1.2 1.2-1.6801 0.48h-1.2l-1.9199-0.48-0.9597-1.2-0.7204-1.92v-0.96l0.7204-1.2 0.9597-1.2 1.9199-0.48h1.2l1.6801 0.48 1.2 1.2 0.4801 1.2m0 0.96-0.4801 1.2-1.2 1.2-1.6801 0.72h-1.2l-1.9199-0.72-0.9597-1.2-0.7204-1.2m0 8.16h8.1602m-8.1602 0.72h8.1602m-4.5602 0-1.9199 0.48-0.9597 1.2-0.7204 1.2v1.68l0.7204 0.48h0.4796l0.4801-0.48-0.4801-0.72-0.4796 0.72m-0.7204-6.96v2.4m8.1602-2.4v4.08"/></g></g></g></svg>
